G04 #@! TF.FileFunction,Soldermask,Bot*
%FSLAX46Y46*%
G04 Gerber Fmt 4.6, Leading zero omitted, Abs format (unit mm)*
G04 Created by KiCad (PCBNEW 0.201512080931+6353~38~ubuntu14.04.1-stable) date Mon 28 Dec 2015 07:06:20 PM PST*
%MOMM*%
G01*
G04 APERTURE LIST*
%ADD10C,0.100000*%
%ADD11C,4.464000*%
%ADD12R,2.200000X5.480000*%
%ADD13C,0.700000*%
%ADD14O,4.400000X2.900000*%
%ADD15O,5.400000X2.900000*%
%ADD16O,2.900000X4.400000*%
%ADD17C,2.400000*%
%ADD18R,1.901140X1.901140*%
%ADD19C,4.400000*%
%ADD20C,4.500000*%
%ADD21C,3.399740*%
%ADD22C,2.100000*%
%ADD23R,0.800000X3.400000*%
%ADD24O,24.400000X1.900000*%
%ADD25O,1.650000X1.350000*%
%ADD26O,1.400000X1.950000*%
%ADD27C,1.200000*%
G04 APERTURE END LIST*
D10*
D11*
X84000000Y-85000000D03*
X196000000Y-85000000D03*
X84000000Y-136000000D03*
X196000000Y-136000000D03*
X196000000Y-54000000D03*
X84000000Y-54000000D03*
D12*
X181350000Y-52750000D03*
D13*
X181350000Y-50710000D03*
X181350000Y-54710000D03*
X181850000Y-53710000D03*
X180850000Y-53710000D03*
X181350000Y-52710000D03*
X181850000Y-51710000D03*
X180850000Y-51710000D03*
X187350000Y-50710000D03*
X187350000Y-54710000D03*
X187850000Y-53710000D03*
X186850000Y-53710000D03*
X187350000Y-52710000D03*
X187850000Y-51710000D03*
X186850000Y-51710000D03*
D12*
X187350000Y-52750000D03*
D14*
X164500000Y-57800000D03*
D15*
X164500000Y-63900000D03*
D16*
X159900000Y-61000000D03*
D12*
X90800000Y-52740000D03*
D13*
X90800000Y-50700000D03*
X90800000Y-54700000D03*
X91300000Y-53700000D03*
X90300000Y-53700000D03*
X90800000Y-52700000D03*
X91300000Y-51700000D03*
X90300000Y-51700000D03*
X96800000Y-50700000D03*
X96800000Y-54700000D03*
X97300000Y-53700000D03*
X96300000Y-53700000D03*
X96800000Y-52700000D03*
X97300000Y-51700000D03*
X96300000Y-51700000D03*
D12*
X96800000Y-52740000D03*
D17*
X90800000Y-69050000D03*
X120800000Y-69050000D03*
X90800000Y-66510000D03*
X90800000Y-71590000D03*
X120800000Y-66510000D03*
X120800000Y-71590000D03*
D18*
X133300000Y-75450000D03*
X136900000Y-75450000D03*
D17*
X173100000Y-137500000D03*
X175600000Y-137500000D03*
X178100000Y-137500000D03*
X178100000Y-122500000D03*
X173100000Y-122500000D03*
D19*
X182200000Y-130000000D03*
X169000000Y-130000000D03*
D20*
X183735000Y-68145000D03*
D17*
X188700000Y-112250000D03*
X182200000Y-112250000D03*
X188700000Y-107750000D03*
X182200000Y-107750000D03*
X178850000Y-112250000D03*
X172350000Y-112250000D03*
X178850000Y-107750000D03*
X172350000Y-107750000D03*
X169000000Y-112250000D03*
X162500000Y-112250000D03*
X169000000Y-107750000D03*
X162500000Y-107750000D03*
D21*
X133890000Y-57868920D03*
X144050000Y-57868920D03*
D22*
X138970000Y-62948920D03*
X136430000Y-62948920D03*
D23*
X165450000Y-101000000D03*
X166150000Y-101000000D03*
X166850000Y-101000000D03*
X167550000Y-101000000D03*
X168250000Y-101000000D03*
X168950000Y-101000000D03*
X169650000Y-101000000D03*
X170350000Y-101000000D03*
X171050000Y-101000000D03*
X171750000Y-101000000D03*
X172450000Y-101000000D03*
X173150000Y-101000000D03*
X173850000Y-101000000D03*
X174550000Y-101000000D03*
X175250000Y-101000000D03*
X175950000Y-101000000D03*
X176650000Y-101000000D03*
X177350000Y-101000000D03*
X178050000Y-101000000D03*
X178750000Y-101000000D03*
X179450000Y-101000000D03*
X180150000Y-101000000D03*
X180850000Y-101000000D03*
X181550000Y-101000000D03*
X182250000Y-101000000D03*
X182950000Y-101000000D03*
X183650000Y-101000000D03*
X184350000Y-101000000D03*
X185050000Y-101000000D03*
X185750000Y-101000000D03*
D24*
X175600000Y-104810000D03*
D22*
X107050000Y-97650000D03*
X109950000Y-97650000D03*
D25*
X150900000Y-54150000D03*
X155900000Y-54150000D03*
D26*
X149900000Y-51450000D03*
X156900000Y-51450000D03*
D27*
X98900000Y-121035000D03*
X98900000Y-122235000D03*
X100100000Y-122235000D03*
X100100000Y-121035000D03*
M02*
