G04 #@! TF.FileFunction,Legend,Top*
%FSLAX46Y46*%
G04 Gerber Fmt 4.6, Leading zero omitted, Abs format (unit mm)*
G04 Created by KiCad (PCBNEW 0.201512080931+6353~38~ubuntu14.04.1-stable) date Mon 28 Dec 2015 07:06:20 PM PST*
%MOMM*%
G01*
G04 APERTURE LIST*
%ADD10C,0.100000*%
%ADD11C,0.250000*%
%ADD12C,0.150000*%
%ADD13C,0.300000*%
%ADD14C,0.400000*%
%ADD15C,0.200000*%
%ADD16C,0.381000*%
%ADD17C,0.119380*%
%ADD18C,0.127000*%
%ADD19C,0.002540*%
%ADD20C,0.129540*%
G04 APERTURE END LIST*
D10*
D11*
X107059524Y-58292857D02*
X106726190Y-57721429D01*
X106488095Y-58292857D02*
X106488095Y-57092857D01*
X106869048Y-57092857D01*
X106964286Y-57150000D01*
X107011905Y-57207143D01*
X107059524Y-57321429D01*
X107059524Y-57492857D01*
X107011905Y-57607143D01*
X106964286Y-57664286D01*
X106869048Y-57721429D01*
X106488095Y-57721429D01*
X107869048Y-58235714D02*
X107773810Y-58292857D01*
X107583333Y-58292857D01*
X107488095Y-58235714D01*
X107440476Y-58121429D01*
X107440476Y-57664286D01*
X107488095Y-57550000D01*
X107583333Y-57492857D01*
X107773810Y-57492857D01*
X107869048Y-57550000D01*
X107916667Y-57664286D01*
X107916667Y-57778571D01*
X107440476Y-57892857D01*
X108297619Y-58235714D02*
X108392857Y-58292857D01*
X108583333Y-58292857D01*
X108678572Y-58235714D01*
X108726191Y-58121429D01*
X108726191Y-58064286D01*
X108678572Y-57950000D01*
X108583333Y-57892857D01*
X108440476Y-57892857D01*
X108345238Y-57835714D01*
X108297619Y-57721429D01*
X108297619Y-57664286D01*
X108345238Y-57550000D01*
X108440476Y-57492857D01*
X108583333Y-57492857D01*
X108678572Y-57550000D01*
X109535715Y-58235714D02*
X109440477Y-58292857D01*
X109250000Y-58292857D01*
X109154762Y-58235714D01*
X109107143Y-58121429D01*
X109107143Y-57664286D01*
X109154762Y-57550000D01*
X109250000Y-57492857D01*
X109440477Y-57492857D01*
X109535715Y-57550000D01*
X109583334Y-57664286D01*
X109583334Y-57778571D01*
X109107143Y-57892857D01*
X109869048Y-57492857D02*
X110250000Y-57492857D01*
X110011905Y-57092857D02*
X110011905Y-58121429D01*
X110059524Y-58235714D01*
X110154762Y-58292857D01*
X110250000Y-58292857D01*
D12*
X184509524Y-124632143D02*
X184461905Y-124679762D01*
X184319048Y-124727381D01*
X184223810Y-124727381D01*
X184080952Y-124679762D01*
X183985714Y-124584524D01*
X183938095Y-124489286D01*
X183890476Y-124298810D01*
X183890476Y-124155952D01*
X183938095Y-123965476D01*
X183985714Y-123870238D01*
X184080952Y-123775000D01*
X184223810Y-123727381D01*
X184319048Y-123727381D01*
X184461905Y-123775000D01*
X184509524Y-123822619D01*
X184938095Y-124727381D02*
X184938095Y-124060714D01*
X184938095Y-124251190D02*
X184985714Y-124155952D01*
X185033333Y-124108333D01*
X185128571Y-124060714D01*
X185223810Y-124060714D01*
X185938096Y-124679762D02*
X185842858Y-124727381D01*
X185652381Y-124727381D01*
X185557143Y-124679762D01*
X185509524Y-124584524D01*
X185509524Y-124203571D01*
X185557143Y-124108333D01*
X185652381Y-124060714D01*
X185842858Y-124060714D01*
X185938096Y-124108333D01*
X185985715Y-124203571D01*
X185985715Y-124298810D01*
X185509524Y-124394048D01*
X186842858Y-124727381D02*
X186842858Y-124203571D01*
X186795239Y-124108333D01*
X186700001Y-124060714D01*
X186509524Y-124060714D01*
X186414286Y-124108333D01*
X186842858Y-124679762D02*
X186747620Y-124727381D01*
X186509524Y-124727381D01*
X186414286Y-124679762D01*
X186366667Y-124584524D01*
X186366667Y-124489286D01*
X186414286Y-124394048D01*
X186509524Y-124346429D01*
X186747620Y-124346429D01*
X186842858Y-124298810D01*
X187176191Y-124060714D02*
X187557143Y-124060714D01*
X187319048Y-123727381D02*
X187319048Y-124584524D01*
X187366667Y-124679762D01*
X187461905Y-124727381D01*
X187557143Y-124727381D01*
X187890477Y-124727381D02*
X187890477Y-124060714D01*
X187890477Y-123727381D02*
X187842858Y-123775000D01*
X187890477Y-123822619D01*
X187938096Y-123775000D01*
X187890477Y-123727381D01*
X187890477Y-123822619D01*
X188271429Y-124060714D02*
X188509524Y-124727381D01*
X188747620Y-124060714D01*
X189509525Y-124679762D02*
X189414287Y-124727381D01*
X189223810Y-124727381D01*
X189128572Y-124679762D01*
X189080953Y-124584524D01*
X189080953Y-124203571D01*
X189128572Y-124108333D01*
X189223810Y-124060714D01*
X189414287Y-124060714D01*
X189509525Y-124108333D01*
X189557144Y-124203571D01*
X189557144Y-124298810D01*
X189080953Y-124394048D01*
X191319049Y-124632143D02*
X191271430Y-124679762D01*
X191128573Y-124727381D01*
X191033335Y-124727381D01*
X190890477Y-124679762D01*
X190795239Y-124584524D01*
X190747620Y-124489286D01*
X190700001Y-124298810D01*
X190700001Y-124155952D01*
X190747620Y-123965476D01*
X190795239Y-123870238D01*
X190890477Y-123775000D01*
X191033335Y-123727381D01*
X191128573Y-123727381D01*
X191271430Y-123775000D01*
X191319049Y-123822619D01*
X191890477Y-124727381D02*
X191795239Y-124679762D01*
X191747620Y-124632143D01*
X191700001Y-124536905D01*
X191700001Y-124251190D01*
X191747620Y-124155952D01*
X191795239Y-124108333D01*
X191890477Y-124060714D01*
X192033335Y-124060714D01*
X192128573Y-124108333D01*
X192176192Y-124155952D01*
X192223811Y-124251190D01*
X192223811Y-124536905D01*
X192176192Y-124632143D01*
X192128573Y-124679762D01*
X192033335Y-124727381D01*
X191890477Y-124727381D01*
X192652382Y-124727381D02*
X192652382Y-124060714D01*
X192652382Y-124155952D02*
X192700001Y-124108333D01*
X192795239Y-124060714D01*
X192938097Y-124060714D01*
X193033335Y-124108333D01*
X193080954Y-124203571D01*
X193080954Y-124727381D01*
X193080954Y-124203571D02*
X193128573Y-124108333D01*
X193223811Y-124060714D01*
X193366668Y-124060714D01*
X193461906Y-124108333D01*
X193509525Y-124203571D01*
X193509525Y-124727381D01*
X193985715Y-124727381D02*
X193985715Y-124060714D01*
X193985715Y-124155952D02*
X194033334Y-124108333D01*
X194128572Y-124060714D01*
X194271430Y-124060714D01*
X194366668Y-124108333D01*
X194414287Y-124203571D01*
X194414287Y-124727381D01*
X194414287Y-124203571D02*
X194461906Y-124108333D01*
X194557144Y-124060714D01*
X194700001Y-124060714D01*
X194795239Y-124108333D01*
X194842858Y-124203571D01*
X194842858Y-124727381D01*
X195461905Y-124727381D02*
X195366667Y-124679762D01*
X195319048Y-124632143D01*
X195271429Y-124536905D01*
X195271429Y-124251190D01*
X195319048Y-124155952D01*
X195366667Y-124108333D01*
X195461905Y-124060714D01*
X195604763Y-124060714D01*
X195700001Y-124108333D01*
X195747620Y-124155952D01*
X195795239Y-124251190D01*
X195795239Y-124536905D01*
X195747620Y-124632143D01*
X195700001Y-124679762D01*
X195604763Y-124727381D01*
X195461905Y-124727381D01*
X196223810Y-124060714D02*
X196223810Y-124727381D01*
X196223810Y-124155952D02*
X196271429Y-124108333D01*
X196366667Y-124060714D01*
X196509525Y-124060714D01*
X196604763Y-124108333D01*
X196652382Y-124203571D01*
X196652382Y-124727381D01*
X197080953Y-124679762D02*
X197176191Y-124727381D01*
X197366667Y-124727381D01*
X197461906Y-124679762D01*
X197509525Y-124584524D01*
X197509525Y-124536905D01*
X197461906Y-124441667D01*
X197366667Y-124394048D01*
X197223810Y-124394048D01*
X197128572Y-124346429D01*
X197080953Y-124251190D01*
X197080953Y-124203571D01*
X197128572Y-124108333D01*
X197223810Y-124060714D01*
X197366667Y-124060714D01*
X197461906Y-124108333D01*
X184414286Y-126277381D02*
X183938095Y-126277381D01*
X183938095Y-125277381D01*
X184747619Y-126277381D02*
X184747619Y-125610714D01*
X184747619Y-125277381D02*
X184700000Y-125325000D01*
X184747619Y-125372619D01*
X184795238Y-125325000D01*
X184747619Y-125277381D01*
X184747619Y-125372619D01*
X185652381Y-126229762D02*
X185557143Y-126277381D01*
X185366666Y-126277381D01*
X185271428Y-126229762D01*
X185223809Y-126182143D01*
X185176190Y-126086905D01*
X185176190Y-125801190D01*
X185223809Y-125705952D01*
X185271428Y-125658333D01*
X185366666Y-125610714D01*
X185557143Y-125610714D01*
X185652381Y-125658333D01*
X186461905Y-126229762D02*
X186366667Y-126277381D01*
X186176190Y-126277381D01*
X186080952Y-126229762D01*
X186033333Y-126134524D01*
X186033333Y-125753571D01*
X186080952Y-125658333D01*
X186176190Y-125610714D01*
X186366667Y-125610714D01*
X186461905Y-125658333D01*
X186509524Y-125753571D01*
X186509524Y-125848810D01*
X186033333Y-125944048D01*
X186938095Y-125610714D02*
X186938095Y-126277381D01*
X186938095Y-125705952D02*
X186985714Y-125658333D01*
X187080952Y-125610714D01*
X187223810Y-125610714D01*
X187319048Y-125658333D01*
X187366667Y-125753571D01*
X187366667Y-126277381D01*
X187795238Y-126229762D02*
X187890476Y-126277381D01*
X188080952Y-126277381D01*
X188176191Y-126229762D01*
X188223810Y-126134524D01*
X188223810Y-126086905D01*
X188176191Y-125991667D01*
X188080952Y-125944048D01*
X187938095Y-125944048D01*
X187842857Y-125896429D01*
X187795238Y-125801190D01*
X187795238Y-125753571D01*
X187842857Y-125658333D01*
X187938095Y-125610714D01*
X188080952Y-125610714D01*
X188176191Y-125658333D01*
X189033334Y-126229762D02*
X188938096Y-126277381D01*
X188747619Y-126277381D01*
X188652381Y-126229762D01*
X188604762Y-126134524D01*
X188604762Y-125753571D01*
X188652381Y-125658333D01*
X188747619Y-125610714D01*
X188938096Y-125610714D01*
X189033334Y-125658333D01*
X189080953Y-125753571D01*
X189080953Y-125848810D01*
X188604762Y-125944048D01*
X190842858Y-126182143D02*
X190795239Y-126229762D01*
X190652382Y-126277381D01*
X190557144Y-126277381D01*
X190414286Y-126229762D01*
X190319048Y-126134524D01*
X190271429Y-126039286D01*
X190223810Y-125848810D01*
X190223810Y-125705952D01*
X190271429Y-125515476D01*
X190319048Y-125420238D01*
X190414286Y-125325000D01*
X190557144Y-125277381D01*
X190652382Y-125277381D01*
X190795239Y-125325000D01*
X190842858Y-125372619D01*
X191842858Y-126182143D02*
X191795239Y-126229762D01*
X191652382Y-126277381D01*
X191557144Y-126277381D01*
X191414286Y-126229762D01*
X191319048Y-126134524D01*
X191271429Y-126039286D01*
X191223810Y-125848810D01*
X191223810Y-125705952D01*
X191271429Y-125515476D01*
X191319048Y-125420238D01*
X191414286Y-125325000D01*
X191557144Y-125277381D01*
X191652382Y-125277381D01*
X191795239Y-125325000D01*
X191842858Y-125372619D01*
X192271429Y-125896429D02*
X193033334Y-125896429D01*
X193842858Y-125753571D02*
X193985715Y-125801190D01*
X194033334Y-125848810D01*
X194080953Y-125944048D01*
X194080953Y-126086905D01*
X194033334Y-126182143D01*
X193985715Y-126229762D01*
X193890477Y-126277381D01*
X193509524Y-126277381D01*
X193509524Y-125277381D01*
X193842858Y-125277381D01*
X193938096Y-125325000D01*
X193985715Y-125372619D01*
X194033334Y-125467857D01*
X194033334Y-125563095D01*
X193985715Y-125658333D01*
X193938096Y-125705952D01*
X193842858Y-125753571D01*
X193509524Y-125753571D01*
X194700000Y-125801190D02*
X194700000Y-126277381D01*
X194366667Y-125277381D02*
X194700000Y-125801190D01*
X195033334Y-125277381D01*
X195366667Y-125896429D02*
X196128572Y-125896429D01*
X196557143Y-126229762D02*
X196700000Y-126277381D01*
X196938096Y-126277381D01*
X197033334Y-126229762D01*
X197080953Y-126182143D01*
X197128572Y-126086905D01*
X197128572Y-125991667D01*
X197080953Y-125896429D01*
X197033334Y-125848810D01*
X196938096Y-125801190D01*
X196747619Y-125753571D01*
X196652381Y-125705952D01*
X196604762Y-125658333D01*
X196557143Y-125563095D01*
X196557143Y-125467857D01*
X196604762Y-125372619D01*
X196652381Y-125325000D01*
X196747619Y-125277381D01*
X196985715Y-125277381D01*
X197128572Y-125325000D01*
X197509524Y-125991667D02*
X197985715Y-125991667D01*
X197414286Y-126277381D02*
X197747619Y-125277381D01*
X198080953Y-126277381D01*
D13*
X106742857Y-138557143D02*
X106628571Y-138628571D01*
X106400000Y-138628571D01*
X106285714Y-138557143D01*
X106228571Y-138414286D01*
X106228571Y-137842857D01*
X106285714Y-137700000D01*
X106400000Y-137628571D01*
X106628571Y-137628571D01*
X106742857Y-137700000D01*
X106800000Y-137842857D01*
X106800000Y-137985714D01*
X106228571Y-138128571D01*
X107142857Y-137628571D02*
X107600000Y-137628571D01*
X107314285Y-137128571D02*
X107314285Y-138414286D01*
X107371428Y-138557143D01*
X107485714Y-138628571D01*
X107600000Y-138628571D01*
X107999999Y-138628571D02*
X107999999Y-137128571D01*
X108514285Y-138628571D02*
X108514285Y-137842857D01*
X108457142Y-137700000D01*
X108342856Y-137628571D01*
X108171428Y-137628571D01*
X108057142Y-137700000D01*
X107999999Y-137771429D01*
X109542856Y-138557143D02*
X109428570Y-138628571D01*
X109199999Y-138628571D01*
X109085713Y-138557143D01*
X109028570Y-138414286D01*
X109028570Y-137842857D01*
X109085713Y-137700000D01*
X109199999Y-137628571D01*
X109428570Y-137628571D01*
X109542856Y-137700000D01*
X109599999Y-137842857D01*
X109599999Y-137985714D01*
X109028570Y-138128571D01*
X110114284Y-138628571D02*
X110114284Y-137628571D01*
X110114284Y-137914286D02*
X110171427Y-137771429D01*
X110228570Y-137700000D01*
X110342856Y-137628571D01*
X110457141Y-137628571D01*
X110857141Y-138628571D02*
X110857141Y-137128571D01*
X110971427Y-138057143D02*
X111314284Y-138628571D01*
X111314284Y-137628571D02*
X110857141Y-138200000D01*
X111828570Y-138628571D02*
X111828570Y-137628571D01*
X111828570Y-137128571D02*
X111771427Y-137200000D01*
X111828570Y-137271429D01*
X111885713Y-137200000D01*
X111828570Y-137128571D01*
X111828570Y-137271429D01*
X112228571Y-137628571D02*
X112685714Y-137628571D01*
X112399999Y-137128571D02*
X112399999Y-138414286D01*
X112457142Y-138557143D01*
X112571428Y-138628571D01*
X112685714Y-138628571D01*
X113085713Y-138485714D02*
X113142856Y-138557143D01*
X113085713Y-138628571D01*
X113028570Y-138557143D01*
X113085713Y-138485714D01*
X113085713Y-138628571D01*
X114171428Y-138557143D02*
X114057142Y-138628571D01*
X113828571Y-138628571D01*
X113714285Y-138557143D01*
X113657142Y-138485714D01*
X113599999Y-138342857D01*
X113599999Y-137914286D01*
X113657142Y-137771429D01*
X113714285Y-137700000D01*
X113828571Y-137628571D01*
X114057142Y-137628571D01*
X114171428Y-137700000D01*
X114857142Y-138628571D02*
X114742856Y-138557143D01*
X114685713Y-138485714D01*
X114628570Y-138342857D01*
X114628570Y-137914286D01*
X114685713Y-137771429D01*
X114742856Y-137700000D01*
X114857142Y-137628571D01*
X115028570Y-137628571D01*
X115142856Y-137700000D01*
X115199999Y-137771429D01*
X115257142Y-137914286D01*
X115257142Y-138342857D01*
X115199999Y-138485714D01*
X115142856Y-138557143D01*
X115028570Y-138628571D01*
X114857142Y-138628571D01*
X115771427Y-138628571D02*
X115771427Y-137628571D01*
X115771427Y-137771429D02*
X115828570Y-137700000D01*
X115942856Y-137628571D01*
X116114284Y-137628571D01*
X116228570Y-137700000D01*
X116285713Y-137842857D01*
X116285713Y-138628571D01*
X116285713Y-137842857D02*
X116342856Y-137700000D01*
X116457142Y-137628571D01*
X116628570Y-137628571D01*
X116742856Y-137700000D01*
X116799999Y-137842857D01*
X116799999Y-138628571D01*
X118228570Y-137271429D02*
X118285713Y-137200000D01*
X118399999Y-137128571D01*
X118685713Y-137128571D01*
X118799999Y-137200000D01*
X118857142Y-137271429D01*
X118914285Y-137414286D01*
X118914285Y-137557143D01*
X118857142Y-137771429D01*
X118171428Y-138628571D01*
X118914285Y-138628571D01*
X119657142Y-137128571D02*
X119771427Y-137128571D01*
X119885713Y-137200000D01*
X119942856Y-137271429D01*
X119999999Y-137414286D01*
X120057142Y-137700000D01*
X120057142Y-138057143D01*
X119999999Y-138342857D01*
X119942856Y-138485714D01*
X119885713Y-138557143D01*
X119771427Y-138628571D01*
X119657142Y-138628571D01*
X119542856Y-138557143D01*
X119485713Y-138485714D01*
X119428570Y-138342857D01*
X119371427Y-138057143D01*
X119371427Y-137700000D01*
X119428570Y-137414286D01*
X119485713Y-137271429D01*
X119542856Y-137200000D01*
X119657142Y-137128571D01*
X121199999Y-138628571D02*
X120514284Y-138628571D01*
X120857142Y-138628571D02*
X120857142Y-137128571D01*
X120742856Y-137342857D01*
X120628570Y-137485714D01*
X120514284Y-137557143D01*
X122228570Y-137128571D02*
X121999999Y-137128571D01*
X121885713Y-137200000D01*
X121828570Y-137271429D01*
X121714284Y-137485714D01*
X121657141Y-137771429D01*
X121657141Y-138342857D01*
X121714284Y-138485714D01*
X121771427Y-138557143D01*
X121885713Y-138628571D01*
X122114284Y-138628571D01*
X122228570Y-138557143D01*
X122285713Y-138485714D01*
X122342856Y-138342857D01*
X122342856Y-137985714D01*
X122285713Y-137842857D01*
X122228570Y-137771429D01*
X122114284Y-137700000D01*
X121885713Y-137700000D01*
X121771427Y-137771429D01*
X121714284Y-137842857D01*
X121657141Y-137985714D01*
X107071429Y-134054762D02*
X106357143Y-134054762D01*
X106285714Y-135007143D01*
X106357143Y-134911905D01*
X106500000Y-134816667D01*
X106857143Y-134816667D01*
X107000000Y-134911905D01*
X107071429Y-135007143D01*
X107142857Y-135197619D01*
X107142857Y-135673810D01*
X107071429Y-135864286D01*
X107000000Y-135959524D01*
X106857143Y-136054762D01*
X106500000Y-136054762D01*
X106357143Y-135959524D01*
X106285714Y-135864286D01*
X108071428Y-134054762D02*
X108214285Y-134054762D01*
X108357142Y-134150000D01*
X108428571Y-134245238D01*
X108500000Y-134435714D01*
X108571428Y-134816667D01*
X108571428Y-135292857D01*
X108500000Y-135673810D01*
X108428571Y-135864286D01*
X108357142Y-135959524D01*
X108214285Y-136054762D01*
X108071428Y-136054762D01*
X107928571Y-135959524D01*
X107857142Y-135864286D01*
X107785714Y-135673810D01*
X107714285Y-135292857D01*
X107714285Y-134816667D01*
X107785714Y-134435714D01*
X107857142Y-134245238D01*
X107928571Y-134150000D01*
X108071428Y-134054762D01*
X109499999Y-134054762D02*
X109642856Y-134054762D01*
X109785713Y-134150000D01*
X109857142Y-134245238D01*
X109928571Y-134435714D01*
X109999999Y-134816667D01*
X109999999Y-135292857D01*
X109928571Y-135673810D01*
X109857142Y-135864286D01*
X109785713Y-135959524D01*
X109642856Y-136054762D01*
X109499999Y-136054762D01*
X109357142Y-135959524D01*
X109285713Y-135864286D01*
X109214285Y-135673810D01*
X109142856Y-135292857D01*
X109142856Y-134816667D01*
X109214285Y-134435714D01*
X109285713Y-134245238D01*
X109357142Y-134150000D01*
X109499999Y-134054762D01*
X111785713Y-136054762D02*
X111785713Y-134721429D01*
X111785713Y-134911905D02*
X111857141Y-134816667D01*
X111999999Y-134721429D01*
X112214284Y-134721429D01*
X112357141Y-134816667D01*
X112428570Y-135007143D01*
X112428570Y-136054762D01*
X112428570Y-135007143D02*
X112499999Y-134816667D01*
X112642856Y-134721429D01*
X112857141Y-134721429D01*
X112999999Y-134816667D01*
X113071427Y-135007143D01*
X113071427Y-136054762D01*
X113642856Y-134054762D02*
X113999999Y-136054762D01*
X114285713Y-134626190D01*
X114571427Y-136054762D01*
X114928570Y-134054762D01*
X116642856Y-136054762D02*
X116642856Y-134054762D01*
X117142856Y-135483333D01*
X117642856Y-134054762D01*
X117642856Y-136054762D01*
X118357142Y-135007143D02*
X118857142Y-135007143D01*
X119071428Y-136054762D02*
X118357142Y-136054762D01*
X118357142Y-134054762D01*
X119071428Y-134054762D01*
X119714285Y-136054762D02*
X119714285Y-134054762D01*
X120285713Y-134054762D01*
X120428571Y-134150000D01*
X120499999Y-134245238D01*
X120571428Y-134435714D01*
X120571428Y-134721429D01*
X120499999Y-134911905D01*
X120428571Y-135007143D01*
X120285713Y-135102381D01*
X119714285Y-135102381D01*
X120999999Y-134054762D02*
X121857142Y-134054762D01*
X121428571Y-136054762D02*
X121428571Y-134054762D01*
X123285713Y-134054762D02*
X124142856Y-134054762D01*
X123714285Y-136054762D02*
X123714285Y-134054762D01*
X124642856Y-136054762D02*
X124642856Y-134721429D01*
X124642856Y-135102381D02*
X124714284Y-134911905D01*
X124785713Y-134816667D01*
X124928570Y-134721429D01*
X125071427Y-134721429D01*
X126214284Y-136054762D02*
X126214284Y-135007143D01*
X126142855Y-134816667D01*
X125999998Y-134721429D01*
X125714284Y-134721429D01*
X125571427Y-134816667D01*
X126214284Y-135959524D02*
X126071427Y-136054762D01*
X125714284Y-136054762D01*
X125571427Y-135959524D01*
X125499998Y-135769048D01*
X125499998Y-135578571D01*
X125571427Y-135388095D01*
X125714284Y-135292857D01*
X126071427Y-135292857D01*
X126214284Y-135197619D01*
X126928570Y-134721429D02*
X126928570Y-136054762D01*
X126928570Y-134911905D02*
X126999998Y-134816667D01*
X127142856Y-134721429D01*
X127357141Y-134721429D01*
X127499998Y-134816667D01*
X127571427Y-135007143D01*
X127571427Y-136054762D01*
X128214284Y-135959524D02*
X128357141Y-136054762D01*
X128642856Y-136054762D01*
X128785713Y-135959524D01*
X128857141Y-135769048D01*
X128857141Y-135673810D01*
X128785713Y-135483333D01*
X128642856Y-135388095D01*
X128428570Y-135388095D01*
X128285713Y-135292857D01*
X128214284Y-135102381D01*
X128214284Y-135007143D01*
X128285713Y-134816667D01*
X128428570Y-134721429D01*
X128642856Y-134721429D01*
X128785713Y-134816667D01*
X129499999Y-136054762D02*
X129499999Y-134721429D01*
X129499999Y-134911905D02*
X129571427Y-134816667D01*
X129714285Y-134721429D01*
X129928570Y-134721429D01*
X130071427Y-134816667D01*
X130142856Y-135007143D01*
X130142856Y-136054762D01*
X130142856Y-135007143D02*
X130214285Y-134816667D01*
X130357142Y-134721429D01*
X130571427Y-134721429D01*
X130714285Y-134816667D01*
X130785713Y-135007143D01*
X130785713Y-136054762D01*
X131499999Y-136054762D02*
X131499999Y-134721429D01*
X131499999Y-134054762D02*
X131428570Y-134150000D01*
X131499999Y-134245238D01*
X131571427Y-134150000D01*
X131499999Y-134054762D01*
X131499999Y-134245238D01*
X131999999Y-134721429D02*
X132571428Y-134721429D01*
X132214285Y-134054762D02*
X132214285Y-135769048D01*
X132285713Y-135959524D01*
X132428571Y-136054762D01*
X132571428Y-136054762D01*
X132857142Y-134721429D02*
X133428571Y-134721429D01*
X133071428Y-134054762D02*
X133071428Y-135769048D01*
X133142856Y-135959524D01*
X133285714Y-136054762D01*
X133428571Y-136054762D01*
X134499999Y-135959524D02*
X134357142Y-136054762D01*
X134071428Y-136054762D01*
X133928571Y-135959524D01*
X133857142Y-135769048D01*
X133857142Y-135007143D01*
X133928571Y-134816667D01*
X134071428Y-134721429D01*
X134357142Y-134721429D01*
X134499999Y-134816667D01*
X134571428Y-135007143D01*
X134571428Y-135197619D01*
X133857142Y-135388095D01*
X135214285Y-136054762D02*
X135214285Y-134721429D01*
X135214285Y-135102381D02*
X135285713Y-134911905D01*
X135357142Y-134816667D01*
X135499999Y-134721429D01*
X135642856Y-134721429D01*
D14*
X107098810Y-129980952D02*
X107441667Y-129980952D01*
X107598214Y-130100000D01*
X107739881Y-130338095D01*
X107766071Y-130814286D01*
X107661905Y-131647619D01*
X107516667Y-132123810D01*
X107315476Y-132361905D01*
X107129167Y-132480952D01*
X106786310Y-132480952D01*
X106629762Y-132361905D01*
X106488095Y-132123810D01*
X106461905Y-131647619D01*
X106566071Y-130814286D01*
X106711309Y-130338095D01*
X106912500Y-130100000D01*
X107098810Y-129980952D01*
X108537499Y-130814286D02*
X108224999Y-133314286D01*
X108522618Y-130933333D02*
X108708928Y-130814286D01*
X109051785Y-130814286D01*
X109208333Y-130933333D01*
X109279166Y-131052381D01*
X109335119Y-131290476D01*
X109245833Y-132004762D01*
X109130357Y-132242857D01*
X109029762Y-132361905D01*
X108843452Y-132480952D01*
X108500595Y-132480952D01*
X108344047Y-132361905D01*
X110658333Y-132361905D02*
X110472023Y-132480952D01*
X110129166Y-132480952D01*
X109972618Y-132361905D01*
X109916666Y-132123810D01*
X110035713Y-131171429D01*
X110151189Y-130933333D01*
X110337499Y-130814286D01*
X110680356Y-130814286D01*
X110836904Y-130933333D01*
X110892856Y-131171429D01*
X110863095Y-131409524D01*
X109976190Y-131647619D01*
X111708927Y-130814286D02*
X111500594Y-132480952D01*
X111679165Y-131052381D02*
X111779761Y-130933333D01*
X111966070Y-130814286D01*
X112223213Y-130814286D01*
X112379761Y-130933333D01*
X112435713Y-131171429D01*
X112272023Y-132480952D01*
X113892855Y-131171429D02*
X114135118Y-131290476D01*
X114205952Y-131409524D01*
X114261904Y-131647619D01*
X114217261Y-132004762D01*
X114101785Y-132242857D01*
X114001189Y-132361905D01*
X113814880Y-132480952D01*
X113129165Y-132480952D01*
X113441665Y-129980952D01*
X114041665Y-129980952D01*
X114198213Y-130100000D01*
X114269046Y-130219048D01*
X114324999Y-130457143D01*
X114295237Y-130695238D01*
X114179760Y-130933333D01*
X114079165Y-131052381D01*
X113892855Y-131171429D01*
X113292855Y-131171429D01*
X115629761Y-132361905D02*
X115443451Y-132480952D01*
X115100594Y-132480952D01*
X114944046Y-132361905D01*
X114888094Y-132123810D01*
X115007141Y-131171429D01*
X115122617Y-130933333D01*
X115308927Y-130814286D01*
X115651784Y-130814286D01*
X115808332Y-130933333D01*
X115864284Y-131171429D01*
X115834523Y-131409524D01*
X114947618Y-131647619D01*
X117243451Y-132480952D02*
X117407141Y-131171429D01*
X117351189Y-130933333D01*
X117194641Y-130814286D01*
X116851784Y-130814286D01*
X116665474Y-130933333D01*
X117258332Y-132361905D02*
X117072022Y-132480952D01*
X116643451Y-132480952D01*
X116486903Y-132361905D01*
X116430951Y-132123810D01*
X116460713Y-131885714D01*
X116576189Y-131647619D01*
X116762499Y-131528571D01*
X117191070Y-131528571D01*
X117377380Y-131409524D01*
X118886903Y-132361905D02*
X118700593Y-132480952D01*
X118357736Y-132480952D01*
X118201189Y-132361905D01*
X118130355Y-132242857D01*
X118074403Y-132004762D01*
X118163689Y-131290476D01*
X118279164Y-131052381D01*
X118379760Y-130933333D01*
X118566069Y-130814286D01*
X118908926Y-130814286D01*
X119065474Y-130933333D01*
X119900593Y-132480952D02*
X119744046Y-132361905D01*
X119673212Y-132242857D01*
X119617260Y-132004762D01*
X119706546Y-131290476D01*
X119822021Y-131052381D01*
X119922617Y-130933333D01*
X120108926Y-130814286D01*
X120366069Y-130814286D01*
X120522617Y-130933333D01*
X120593450Y-131052381D01*
X120649403Y-131290476D01*
X120560117Y-132004762D01*
X120444641Y-132242857D01*
X120344046Y-132361905D01*
X120157736Y-132480952D01*
X119900593Y-132480952D01*
X121480354Y-130814286D02*
X121272021Y-132480952D01*
X121450592Y-131052381D02*
X121551188Y-130933333D01*
X121737497Y-130814286D01*
X121994640Y-130814286D01*
X122151188Y-130933333D01*
X122207140Y-131171429D01*
X122043450Y-132480952D01*
X124469045Y-130219048D02*
X124569640Y-130100000D01*
X124755950Y-129980952D01*
X125184521Y-129980952D01*
X125341069Y-130100000D01*
X125411902Y-130219048D01*
X125467855Y-130457143D01*
X125438093Y-130695238D01*
X125307735Y-131052381D01*
X124100593Y-132480952D01*
X125214879Y-132480952D01*
D11*
X161188095Y-66992857D02*
X161188095Y-65792857D01*
X161426190Y-65792857D01*
X161569048Y-65850000D01*
X161664286Y-65964286D01*
X161711905Y-66078571D01*
X161759524Y-66307143D01*
X161759524Y-66478571D01*
X161711905Y-66707143D01*
X161664286Y-66821429D01*
X161569048Y-66935714D01*
X161426190Y-66992857D01*
X161188095Y-66992857D01*
X162759524Y-66878571D02*
X162711905Y-66935714D01*
X162569048Y-66992857D01*
X162473810Y-66992857D01*
X162330952Y-66935714D01*
X162235714Y-66821429D01*
X162188095Y-66707143D01*
X162140476Y-66478571D01*
X162140476Y-66307143D01*
X162188095Y-66078571D01*
X162235714Y-65964286D01*
X162330952Y-65850000D01*
X162473810Y-65792857D01*
X162569048Y-65792857D01*
X162711905Y-65850000D01*
X162759524Y-65907143D01*
X163950000Y-66992857D02*
X163950000Y-65792857D01*
X164330953Y-65792857D01*
X164426191Y-65850000D01*
X164473810Y-65907143D01*
X164521429Y-66021429D01*
X164521429Y-66192857D01*
X164473810Y-66307143D01*
X164426191Y-66364286D01*
X164330953Y-66421429D01*
X163950000Y-66421429D01*
X165092857Y-66992857D02*
X164997619Y-66935714D01*
X164950000Y-66878571D01*
X164902381Y-66764286D01*
X164902381Y-66421429D01*
X164950000Y-66307143D01*
X164997619Y-66250000D01*
X165092857Y-66192857D01*
X165235715Y-66192857D01*
X165330953Y-66250000D01*
X165378572Y-66307143D01*
X165426191Y-66421429D01*
X165426191Y-66764286D01*
X165378572Y-66878571D01*
X165330953Y-66935714D01*
X165235715Y-66992857D01*
X165092857Y-66992857D01*
X165759524Y-66192857D02*
X165950000Y-66992857D01*
X166140477Y-66421429D01*
X166330953Y-66992857D01*
X166521429Y-66192857D01*
X167283334Y-66935714D02*
X167188096Y-66992857D01*
X166997619Y-66992857D01*
X166902381Y-66935714D01*
X166854762Y-66821429D01*
X166854762Y-66364286D01*
X166902381Y-66250000D01*
X166997619Y-66192857D01*
X167188096Y-66192857D01*
X167283334Y-66250000D01*
X167330953Y-66364286D01*
X167330953Y-66478571D01*
X166854762Y-66592857D01*
X167759524Y-66992857D02*
X167759524Y-66192857D01*
X167759524Y-66421429D02*
X167807143Y-66307143D01*
X167854762Y-66250000D01*
X167950000Y-66192857D01*
X168045239Y-66192857D01*
X92385714Y-79492857D02*
X92785714Y-79492857D01*
X92957143Y-80278571D02*
X92385714Y-80278571D01*
X92385714Y-78778571D01*
X92957143Y-78778571D01*
X93300000Y-79278571D02*
X93757143Y-79278571D01*
X93471428Y-78778571D02*
X93471428Y-80064286D01*
X93528571Y-80207143D01*
X93642857Y-80278571D01*
X93757143Y-80278571D01*
X94157142Y-80278571D02*
X94157142Y-78778571D01*
X94671428Y-80278571D02*
X94671428Y-79492857D01*
X94614285Y-79350000D01*
X94499999Y-79278571D01*
X94328571Y-79278571D01*
X94214285Y-79350000D01*
X94157142Y-79421429D01*
X95699999Y-80207143D02*
X95585713Y-80278571D01*
X95357142Y-80278571D01*
X95242856Y-80207143D01*
X95185713Y-80064286D01*
X95185713Y-79492857D01*
X95242856Y-79350000D01*
X95357142Y-79278571D01*
X95585713Y-79278571D01*
X95699999Y-79350000D01*
X95757142Y-79492857D01*
X95757142Y-79635714D01*
X95185713Y-79778571D01*
X96271427Y-80278571D02*
X96271427Y-79278571D01*
X96271427Y-79564286D02*
X96328570Y-79421429D01*
X96385713Y-79350000D01*
X96499999Y-79278571D01*
X96614284Y-79278571D01*
X97014284Y-80278571D02*
X97014284Y-78778571D01*
X97128570Y-79707143D02*
X97471427Y-80278571D01*
X97471427Y-79278571D02*
X97014284Y-79850000D01*
X97985713Y-80278571D02*
X97985713Y-79278571D01*
X97985713Y-78778571D02*
X97928570Y-78850000D01*
X97985713Y-78921429D01*
X98042856Y-78850000D01*
X97985713Y-78778571D01*
X97985713Y-78921429D01*
X98385714Y-79278571D02*
X98842857Y-79278571D01*
X98557142Y-78778571D02*
X98557142Y-80064286D01*
X98614285Y-80207143D01*
X98728571Y-80278571D01*
X98842857Y-80278571D01*
X100728571Y-80278571D02*
X100157142Y-80278571D01*
X100157142Y-78778571D01*
X101300000Y-80278571D02*
X101185714Y-80207143D01*
X101128571Y-80135714D01*
X101071428Y-79992857D01*
X101071428Y-79564286D01*
X101128571Y-79421429D01*
X101185714Y-79350000D01*
X101300000Y-79278571D01*
X101471428Y-79278571D01*
X101585714Y-79350000D01*
X101642857Y-79421429D01*
X101700000Y-79564286D01*
X101700000Y-79992857D01*
X101642857Y-80135714D01*
X101585714Y-80207143D01*
X101471428Y-80278571D01*
X101300000Y-80278571D01*
X102100000Y-79278571D02*
X102328571Y-80278571D01*
X102557142Y-79564286D01*
X102785714Y-80278571D01*
X103014285Y-79278571D01*
X104385714Y-80278571D02*
X104385714Y-78778571D01*
X104842857Y-78778571D01*
X104957143Y-78850000D01*
X105014286Y-78921429D01*
X105071429Y-79064286D01*
X105071429Y-79278571D01*
X105014286Y-79421429D01*
X104957143Y-79492857D01*
X104842857Y-79564286D01*
X104385714Y-79564286D01*
X106100000Y-80278571D02*
X106100000Y-79492857D01*
X106042857Y-79350000D01*
X105928571Y-79278571D01*
X105700000Y-79278571D01*
X105585714Y-79350000D01*
X106100000Y-80207143D02*
X105985714Y-80278571D01*
X105700000Y-80278571D01*
X105585714Y-80207143D01*
X105528571Y-80064286D01*
X105528571Y-79921429D01*
X105585714Y-79778571D01*
X105700000Y-79707143D01*
X105985714Y-79707143D01*
X106100000Y-79635714D01*
X106614285Y-80207143D02*
X106728571Y-80278571D01*
X106957143Y-80278571D01*
X107071428Y-80207143D01*
X107128571Y-80064286D01*
X107128571Y-79992857D01*
X107071428Y-79850000D01*
X106957143Y-79778571D01*
X106785714Y-79778571D01*
X106671428Y-79707143D01*
X106614285Y-79564286D01*
X106614285Y-79492857D01*
X106671428Y-79350000D01*
X106785714Y-79278571D01*
X106957143Y-79278571D01*
X107071428Y-79350000D01*
X107585714Y-80207143D02*
X107700000Y-80278571D01*
X107928572Y-80278571D01*
X108042857Y-80207143D01*
X108100000Y-80064286D01*
X108100000Y-79992857D01*
X108042857Y-79850000D01*
X107928572Y-79778571D01*
X107757143Y-79778571D01*
X107642857Y-79707143D01*
X107585714Y-79564286D01*
X107585714Y-79492857D01*
X107642857Y-79350000D01*
X107757143Y-79278571D01*
X107928572Y-79278571D01*
X108042857Y-79350000D01*
X109928572Y-79492857D02*
X109528572Y-79492857D01*
X109528572Y-80278571D02*
X109528572Y-78778571D01*
X110100001Y-78778571D01*
X110557143Y-80278571D02*
X110557143Y-79278571D01*
X110557143Y-78778571D02*
X110500000Y-78850000D01*
X110557143Y-78921429D01*
X110614286Y-78850000D01*
X110557143Y-78778571D01*
X110557143Y-78921429D01*
X111300001Y-80278571D02*
X111185715Y-80207143D01*
X111128572Y-80064286D01*
X111128572Y-78778571D01*
X111585715Y-79278571D02*
X112042858Y-79278571D01*
X111757143Y-78778571D02*
X111757143Y-80064286D01*
X111814286Y-80207143D01*
X111928572Y-80278571D01*
X112042858Y-80278571D01*
X112900000Y-80207143D02*
X112785714Y-80278571D01*
X112557143Y-80278571D01*
X112442857Y-80207143D01*
X112385714Y-80064286D01*
X112385714Y-79492857D01*
X112442857Y-79350000D01*
X112557143Y-79278571D01*
X112785714Y-79278571D01*
X112900000Y-79350000D01*
X112957143Y-79492857D01*
X112957143Y-79635714D01*
X112385714Y-79778571D01*
X113471428Y-80278571D02*
X113471428Y-79278571D01*
X113471428Y-79564286D02*
X113528571Y-79421429D01*
X113585714Y-79350000D01*
X113700000Y-79278571D01*
X113814285Y-79278571D01*
X115128571Y-80278571D02*
X115128571Y-78778571D01*
X115528571Y-79850000D01*
X115928571Y-78778571D01*
X115928571Y-80278571D01*
X116671429Y-80278571D02*
X116557143Y-80207143D01*
X116500000Y-80135714D01*
X116442857Y-79992857D01*
X116442857Y-79564286D01*
X116500000Y-79421429D01*
X116557143Y-79350000D01*
X116671429Y-79278571D01*
X116842857Y-79278571D01*
X116957143Y-79350000D01*
X117014286Y-79421429D01*
X117071429Y-79564286D01*
X117071429Y-79992857D01*
X117014286Y-80135714D01*
X116957143Y-80207143D01*
X116842857Y-80278571D01*
X116671429Y-80278571D01*
X118100000Y-80278571D02*
X118100000Y-78778571D01*
X118100000Y-80207143D02*
X117985714Y-80278571D01*
X117757143Y-80278571D01*
X117642857Y-80207143D01*
X117585714Y-80135714D01*
X117528571Y-79992857D01*
X117528571Y-79564286D01*
X117585714Y-79421429D01*
X117642857Y-79350000D01*
X117757143Y-79278571D01*
X117985714Y-79278571D01*
X118100000Y-79350000D01*
X119185714Y-79278571D02*
X119185714Y-80278571D01*
X118671428Y-79278571D02*
X118671428Y-80064286D01*
X118728571Y-80207143D01*
X118842857Y-80278571D01*
X119014285Y-80278571D01*
X119128571Y-80207143D01*
X119185714Y-80135714D01*
X119928571Y-80278571D02*
X119814285Y-80207143D01*
X119757142Y-80064286D01*
X119757142Y-78778571D01*
X120842856Y-80207143D02*
X120728570Y-80278571D01*
X120499999Y-80278571D01*
X120385713Y-80207143D01*
X120328570Y-80064286D01*
X120328570Y-79492857D01*
X120385713Y-79350000D01*
X120499999Y-79278571D01*
X120728570Y-79278571D01*
X120842856Y-79350000D01*
X120899999Y-79492857D01*
X120899999Y-79635714D01*
X120328570Y-79778571D01*
X91288095Y-56614286D02*
X91621429Y-56614286D01*
X91764286Y-57242857D02*
X91288095Y-57242857D01*
X91288095Y-56042857D01*
X91764286Y-56042857D01*
X92097619Y-57242857D02*
X92621429Y-56442857D01*
X92097619Y-56442857D02*
X92621429Y-57242857D01*
X92859524Y-56442857D02*
X93240476Y-56442857D01*
X93002381Y-56042857D02*
X93002381Y-57071429D01*
X93050000Y-57185714D01*
X93145238Y-57242857D01*
X93240476Y-57242857D01*
X94907144Y-57242857D02*
X94573810Y-56671429D01*
X94335715Y-57242857D02*
X94335715Y-56042857D01*
X94716668Y-56042857D01*
X94811906Y-56100000D01*
X94859525Y-56157143D01*
X94907144Y-56271429D01*
X94907144Y-56442857D01*
X94859525Y-56557143D01*
X94811906Y-56614286D01*
X94716668Y-56671429D01*
X94335715Y-56671429D01*
X95716668Y-57185714D02*
X95621430Y-57242857D01*
X95430953Y-57242857D01*
X95335715Y-57185714D01*
X95288096Y-57071429D01*
X95288096Y-56614286D01*
X95335715Y-56500000D01*
X95430953Y-56442857D01*
X95621430Y-56442857D01*
X95716668Y-56500000D01*
X95764287Y-56614286D01*
X95764287Y-56728571D01*
X95288096Y-56842857D01*
X96050001Y-56442857D02*
X96430953Y-56442857D01*
X96192858Y-57242857D02*
X96192858Y-56214286D01*
X96240477Y-56100000D01*
X96335715Y-56042857D01*
X96430953Y-56042857D01*
X120140476Y-58800000D02*
X120616667Y-58800000D01*
X120045238Y-59142857D02*
X120378571Y-57942857D01*
X120711905Y-59142857D01*
X121616667Y-59142857D02*
X121283333Y-58571429D01*
X121045238Y-59142857D02*
X121045238Y-57942857D01*
X121426191Y-57942857D01*
X121521429Y-58000000D01*
X121569048Y-58057143D01*
X121616667Y-58171429D01*
X121616667Y-58342857D01*
X121569048Y-58457143D01*
X121521429Y-58514286D01*
X121426191Y-58571429D01*
X121045238Y-58571429D01*
X122045238Y-59142857D02*
X122045238Y-57942857D01*
X122378572Y-58800000D01*
X122711905Y-57942857D01*
X122711905Y-59142857D01*
X123902381Y-59085714D02*
X124045238Y-59142857D01*
X124283334Y-59142857D01*
X124378572Y-59085714D01*
X124426191Y-59028571D01*
X124473810Y-58914286D01*
X124473810Y-58800000D01*
X124426191Y-58685714D01*
X124378572Y-58628571D01*
X124283334Y-58571429D01*
X124092857Y-58514286D01*
X123997619Y-58457143D01*
X123950000Y-58400000D01*
X123902381Y-58285714D01*
X123902381Y-58171429D01*
X123950000Y-58057143D01*
X123997619Y-58000000D01*
X124092857Y-57942857D01*
X124330953Y-57942857D01*
X124473810Y-58000000D01*
X124807143Y-57942857D02*
X125045238Y-59142857D01*
X125235715Y-58285714D01*
X125426191Y-59142857D01*
X125664286Y-57942857D01*
X126045238Y-59142857D02*
X126045238Y-57942857D01*
X126283333Y-57942857D01*
X126426191Y-58000000D01*
X126521429Y-58114286D01*
X126569048Y-58228571D01*
X126616667Y-58457143D01*
X126616667Y-58628571D01*
X126569048Y-58857143D01*
X126521429Y-58971429D01*
X126426191Y-59085714D01*
X126283333Y-59142857D01*
X126045238Y-59142857D01*
X135840476Y-65450000D02*
X136316667Y-65450000D01*
X135745238Y-65792857D02*
X136078571Y-64592857D01*
X136411905Y-65792857D01*
X136745238Y-64992857D02*
X136745238Y-65792857D01*
X136745238Y-65107143D02*
X136792857Y-65050000D01*
X136888095Y-64992857D01*
X137030953Y-64992857D01*
X137126191Y-65050000D01*
X137173810Y-65164286D01*
X137173810Y-65792857D01*
X137507143Y-64992857D02*
X137888095Y-64992857D01*
X137650000Y-64592857D02*
X137650000Y-65621429D01*
X137697619Y-65735714D01*
X137792857Y-65792857D01*
X137888095Y-65792857D01*
X138602382Y-65735714D02*
X138507144Y-65792857D01*
X138316667Y-65792857D01*
X138221429Y-65735714D01*
X138173810Y-65621429D01*
X138173810Y-65164286D01*
X138221429Y-65050000D01*
X138316667Y-64992857D01*
X138507144Y-64992857D01*
X138602382Y-65050000D01*
X138650001Y-65164286D01*
X138650001Y-65278571D01*
X138173810Y-65392857D01*
X139078572Y-64992857D02*
X139078572Y-65792857D01*
X139078572Y-65107143D02*
X139126191Y-65050000D01*
X139221429Y-64992857D01*
X139364287Y-64992857D01*
X139459525Y-65050000D01*
X139507144Y-65164286D01*
X139507144Y-65792857D01*
X139983334Y-64992857D02*
X139983334Y-65792857D01*
X139983334Y-65107143D02*
X140030953Y-65050000D01*
X140126191Y-64992857D01*
X140269049Y-64992857D01*
X140364287Y-65050000D01*
X140411906Y-65164286D01*
X140411906Y-65792857D01*
X141316668Y-65792857D02*
X141316668Y-65164286D01*
X141269049Y-65050000D01*
X141173811Y-64992857D01*
X140983334Y-64992857D01*
X140888096Y-65050000D01*
X141316668Y-65735714D02*
X141221430Y-65792857D01*
X140983334Y-65792857D01*
X140888096Y-65735714D01*
X140840477Y-65621429D01*
X140840477Y-65507143D01*
X140888096Y-65392857D01*
X140983334Y-65335714D01*
X141221430Y-65335714D01*
X141316668Y-65278571D01*
X152088095Y-55392857D02*
X152088095Y-56364286D01*
X152135714Y-56478571D01*
X152183333Y-56535714D01*
X152278571Y-56592857D01*
X152469048Y-56592857D01*
X152564286Y-56535714D01*
X152611905Y-56478571D01*
X152659524Y-56364286D01*
X152659524Y-55392857D01*
X153088095Y-56535714D02*
X153230952Y-56592857D01*
X153469048Y-56592857D01*
X153564286Y-56535714D01*
X153611905Y-56478571D01*
X153659524Y-56364286D01*
X153659524Y-56250000D01*
X153611905Y-56135714D01*
X153564286Y-56078571D01*
X153469048Y-56021429D01*
X153278571Y-55964286D01*
X153183333Y-55907143D01*
X153135714Y-55850000D01*
X153088095Y-55735714D01*
X153088095Y-55621429D01*
X153135714Y-55507143D01*
X153183333Y-55450000D01*
X153278571Y-55392857D01*
X153516667Y-55392857D01*
X153659524Y-55450000D01*
X154421429Y-55964286D02*
X154564286Y-56021429D01*
X154611905Y-56078571D01*
X154659524Y-56192857D01*
X154659524Y-56364286D01*
X154611905Y-56478571D01*
X154564286Y-56535714D01*
X154469048Y-56592857D01*
X154088095Y-56592857D01*
X154088095Y-55392857D01*
X154421429Y-55392857D01*
X154516667Y-55450000D01*
X154564286Y-55507143D01*
X154611905Y-55621429D01*
X154611905Y-55735714D01*
X154564286Y-55850000D01*
X154516667Y-55907143D01*
X154421429Y-55964286D01*
X154088095Y-55964286D01*
X182111905Y-55950000D02*
X182016667Y-55892857D01*
X181873810Y-55892857D01*
X181730952Y-55950000D01*
X181635714Y-56064286D01*
X181588095Y-56178571D01*
X181540476Y-56407143D01*
X181540476Y-56578571D01*
X181588095Y-56807143D01*
X181635714Y-56921429D01*
X181730952Y-57035714D01*
X181873810Y-57092857D01*
X181969048Y-57092857D01*
X182111905Y-57035714D01*
X182159524Y-56978571D01*
X182159524Y-56578571D01*
X181969048Y-56578571D01*
X182588095Y-57092857D02*
X182588095Y-55892857D01*
X182969048Y-55892857D01*
X183064286Y-55950000D01*
X183111905Y-56007143D01*
X183159524Y-56121429D01*
X183159524Y-56292857D01*
X183111905Y-56407143D01*
X183064286Y-56464286D01*
X182969048Y-56521429D01*
X182588095Y-56521429D01*
X183540476Y-57035714D02*
X183683333Y-57092857D01*
X183921429Y-57092857D01*
X184016667Y-57035714D01*
X184064286Y-56978571D01*
X184111905Y-56864286D01*
X184111905Y-56750000D01*
X184064286Y-56635714D01*
X184016667Y-56578571D01*
X183921429Y-56521429D01*
X183730952Y-56464286D01*
X183635714Y-56407143D01*
X183588095Y-56350000D01*
X183540476Y-56235714D01*
X183540476Y-56121429D01*
X183588095Y-56007143D01*
X183635714Y-55950000D01*
X183730952Y-55892857D01*
X183969048Y-55892857D01*
X184111905Y-55950000D01*
X185254762Y-56750000D02*
X185730953Y-56750000D01*
X185159524Y-57092857D02*
X185492857Y-55892857D01*
X185826191Y-57092857D01*
X186159524Y-56292857D02*
X186159524Y-57092857D01*
X186159524Y-56407143D02*
X186207143Y-56350000D01*
X186302381Y-56292857D01*
X186445239Y-56292857D01*
X186540477Y-56350000D01*
X186588096Y-56464286D01*
X186588096Y-57092857D01*
X186921429Y-56292857D02*
X187302381Y-56292857D01*
X187064286Y-55892857D02*
X187064286Y-56921429D01*
X187111905Y-57035714D01*
X187207143Y-57092857D01*
X187302381Y-57092857D01*
D12*
X136209524Y-77802381D02*
X136209524Y-76802381D01*
X136590477Y-76802381D01*
X136685715Y-76850000D01*
X136733334Y-76897619D01*
X136780953Y-76992857D01*
X136780953Y-77135714D01*
X136733334Y-77230952D01*
X136685715Y-77278571D01*
X136590477Y-77326190D01*
X136209524Y-77326190D01*
X137161905Y-77516667D02*
X137638096Y-77516667D01*
X137066667Y-77802381D02*
X137400000Y-76802381D01*
X137733334Y-77802381D01*
X135876191Y-78828571D02*
X136019048Y-78876190D01*
X136066667Y-78923810D01*
X136114286Y-79019048D01*
X136114286Y-79161905D01*
X136066667Y-79257143D01*
X136019048Y-79304762D01*
X135923810Y-79352381D01*
X135542857Y-79352381D01*
X135542857Y-78352381D01*
X135876191Y-78352381D01*
X135971429Y-78400000D01*
X136019048Y-78447619D01*
X136066667Y-78542857D01*
X136066667Y-78638095D01*
X136019048Y-78733333D01*
X135971429Y-78780952D01*
X135876191Y-78828571D01*
X135542857Y-78828571D01*
X136542857Y-79352381D02*
X136542857Y-78685714D01*
X136542857Y-78352381D02*
X136495238Y-78400000D01*
X136542857Y-78447619D01*
X136590476Y-78400000D01*
X136542857Y-78352381D01*
X136542857Y-78447619D01*
X137447619Y-79352381D02*
X137447619Y-78828571D01*
X137400000Y-78733333D01*
X137304762Y-78685714D01*
X137114285Y-78685714D01*
X137019047Y-78733333D01*
X137447619Y-79304762D02*
X137352381Y-79352381D01*
X137114285Y-79352381D01*
X137019047Y-79304762D01*
X136971428Y-79209524D01*
X136971428Y-79114286D01*
X137019047Y-79019048D01*
X137114285Y-78971429D01*
X137352381Y-78971429D01*
X137447619Y-78923810D01*
X137876190Y-79304762D02*
X137971428Y-79352381D01*
X138161904Y-79352381D01*
X138257143Y-79304762D01*
X138304762Y-79209524D01*
X138304762Y-79161905D01*
X138257143Y-79066667D01*
X138161904Y-79019048D01*
X138019047Y-79019048D01*
X137923809Y-78971429D01*
X137876190Y-78876190D01*
X137876190Y-78828571D01*
X137923809Y-78733333D01*
X138019047Y-78685714D01*
X138161904Y-78685714D01*
X138257143Y-78733333D01*
X136566667Y-79902381D02*
X136900000Y-80902381D01*
X137233334Y-79902381D01*
X132588096Y-76850000D02*
X132492858Y-76802381D01*
X132350001Y-76802381D01*
X132207143Y-76850000D01*
X132111905Y-76945238D01*
X132064286Y-77040476D01*
X132016667Y-77230952D01*
X132016667Y-77373810D01*
X132064286Y-77564286D01*
X132111905Y-77659524D01*
X132207143Y-77754762D01*
X132350001Y-77802381D01*
X132445239Y-77802381D01*
X132588096Y-77754762D01*
X132635715Y-77707143D01*
X132635715Y-77373810D01*
X132445239Y-77373810D01*
X133064286Y-77802381D02*
X133064286Y-76802381D01*
X133635715Y-77802381D01*
X133635715Y-76802381D01*
X134111905Y-77802381D02*
X134111905Y-76802381D01*
X134350000Y-76802381D01*
X134492858Y-76850000D01*
X134588096Y-76945238D01*
X134635715Y-77040476D01*
X134683334Y-77230952D01*
X134683334Y-77373810D01*
X134635715Y-77564286D01*
X134588096Y-77659524D01*
X134492858Y-77754762D01*
X134350000Y-77802381D01*
X134111905Y-77802381D01*
D15*
X143040476Y-121152381D02*
X143040476Y-121961905D01*
X143078571Y-122057143D01*
X143116667Y-122104762D01*
X143192857Y-122152381D01*
X143345238Y-122152381D01*
X143421429Y-122104762D01*
X143459524Y-122057143D01*
X143497619Y-121961905D01*
X143497619Y-121152381D01*
X143840476Y-121866667D02*
X144221428Y-121866667D01*
X143764285Y-122152381D02*
X144030952Y-121152381D01*
X144297619Y-122152381D01*
X145021428Y-122152381D02*
X144754761Y-121676190D01*
X144564285Y-122152381D02*
X144564285Y-121152381D01*
X144869047Y-121152381D01*
X144945238Y-121200000D01*
X144983333Y-121247619D01*
X145021428Y-121342857D01*
X145021428Y-121485714D01*
X144983333Y-121580952D01*
X144945238Y-121628571D01*
X144869047Y-121676190D01*
X144564285Y-121676190D01*
X145249999Y-121152381D02*
X145707142Y-121152381D01*
X145478571Y-122152381D02*
X145478571Y-121152381D01*
X143497619Y-123752381D02*
X143230952Y-123276190D01*
X143040476Y-123752381D02*
X143040476Y-122752381D01*
X143345238Y-122752381D01*
X143421429Y-122800000D01*
X143459524Y-122847619D01*
X143497619Y-122942857D01*
X143497619Y-123085714D01*
X143459524Y-123180952D01*
X143421429Y-123228571D01*
X143345238Y-123276190D01*
X143040476Y-123276190D01*
X143764286Y-122752381D02*
X144297619Y-123752381D01*
X144297619Y-122752381D02*
X143764286Y-123752381D01*
X137840476Y-121152381D02*
X137840476Y-121961905D01*
X137878571Y-122057143D01*
X137916667Y-122104762D01*
X137992857Y-122152381D01*
X138145238Y-122152381D01*
X138221429Y-122104762D01*
X138259524Y-122057143D01*
X138297619Y-121961905D01*
X138297619Y-121152381D01*
X138640476Y-121866667D02*
X139021428Y-121866667D01*
X138564285Y-122152381D02*
X138830952Y-121152381D01*
X139097619Y-122152381D01*
X139821428Y-122152381D02*
X139554761Y-121676190D01*
X139364285Y-122152381D02*
X139364285Y-121152381D01*
X139669047Y-121152381D01*
X139745238Y-121200000D01*
X139783333Y-121247619D01*
X139821428Y-121342857D01*
X139821428Y-121485714D01*
X139783333Y-121580952D01*
X139745238Y-121628571D01*
X139669047Y-121676190D01*
X139364285Y-121676190D01*
X140049999Y-121152381D02*
X140507142Y-121152381D01*
X140278571Y-122152381D02*
X140278571Y-121152381D01*
X137726190Y-122752381D02*
X138183333Y-122752381D01*
X137954762Y-123752381D02*
X137954762Y-122752381D01*
X138373810Y-122752381D02*
X138907143Y-123752381D01*
X138907143Y-122752381D02*
X138373810Y-123752381D01*
X148290476Y-122152381D02*
X148290476Y-121152381D01*
X148595238Y-121152381D01*
X148671429Y-121200000D01*
X148709524Y-121247619D01*
X148747619Y-121342857D01*
X148747619Y-121485714D01*
X148709524Y-121580952D01*
X148671429Y-121628571D01*
X148595238Y-121676190D01*
X148290476Y-121676190D01*
X149052381Y-121866667D02*
X149433333Y-121866667D01*
X148976190Y-122152381D02*
X149242857Y-121152381D01*
X149509524Y-122152381D01*
X148176190Y-122752381D02*
X148633333Y-122752381D01*
X148404762Y-123752381D02*
X148404762Y-122752381D01*
X148823810Y-122752381D02*
X149357143Y-123752381D01*
X149357143Y-122752381D02*
X148823810Y-123752381D01*
X153490476Y-122952381D02*
X153490476Y-121952381D01*
X153795238Y-121952381D01*
X153871429Y-122000000D01*
X153909524Y-122047619D01*
X153947619Y-122142857D01*
X153947619Y-122285714D01*
X153909524Y-122380952D01*
X153871429Y-122428571D01*
X153795238Y-122476190D01*
X153490476Y-122476190D01*
X154404762Y-122952381D02*
X154328571Y-122904762D01*
X154290476Y-122857143D01*
X154252381Y-122761905D01*
X154252381Y-122476190D01*
X154290476Y-122380952D01*
X154328571Y-122333333D01*
X154404762Y-122285714D01*
X154519048Y-122285714D01*
X154595238Y-122333333D01*
X154633333Y-122380952D01*
X154671429Y-122476190D01*
X154671429Y-122761905D01*
X154633333Y-122857143D01*
X154595238Y-122904762D01*
X154519048Y-122952381D01*
X154404762Y-122952381D01*
X154938096Y-122285714D02*
X155090477Y-122952381D01*
X155242858Y-122476190D01*
X155395239Y-122952381D01*
X155547620Y-122285714D01*
X156157143Y-122904762D02*
X156080953Y-122952381D01*
X155928572Y-122952381D01*
X155852381Y-122904762D01*
X155814286Y-122809524D01*
X155814286Y-122428571D01*
X155852381Y-122333333D01*
X155928572Y-122285714D01*
X156080953Y-122285714D01*
X156157143Y-122333333D01*
X156195238Y-122428571D01*
X156195238Y-122523810D01*
X155814286Y-122619048D01*
X156538095Y-122952381D02*
X156538095Y-122285714D01*
X156538095Y-122476190D02*
X156576190Y-122380952D01*
X156614286Y-122333333D01*
X156690476Y-122285714D01*
X156766667Y-122285714D01*
D16*
X86286000Y-85000000D02*
G75*
G03X86286000Y-85000000I-2286000J0D01*
G01*
X198286000Y-85000000D02*
G75*
G03X198286000Y-85000000I-2286000J0D01*
G01*
X86286000Y-136000000D02*
G75*
G03X86286000Y-136000000I-2286000J0D01*
G01*
X198286000Y-136000000D02*
G75*
G03X198286000Y-136000000I-2286000J0D01*
G01*
X198286000Y-54000000D02*
G75*
G03X198286000Y-54000000I-2286000J0D01*
G01*
X86286000Y-54000000D02*
G75*
G03X86286000Y-54000000I-2286000J0D01*
G01*
D12*
X151100000Y-64450000D02*
X151100000Y-65450000D01*
X152800000Y-65450000D02*
X152800000Y-64450000D01*
X130100000Y-116700000D02*
X131100000Y-116700000D01*
X131100000Y-115000000D02*
X130100000Y-115000000D01*
X131200000Y-96650000D02*
X130200000Y-96650000D01*
X130200000Y-98350000D02*
X131200000Y-98350000D01*
X131200000Y-107350000D02*
X130200000Y-107350000D01*
X130200000Y-109050000D02*
X131200000Y-109050000D01*
X136250000Y-98350000D02*
X137250000Y-98350000D01*
X137250000Y-96650000D02*
X136250000Y-96650000D01*
X141500000Y-96650000D02*
X140500000Y-96650000D01*
X140500000Y-98350000D02*
X141500000Y-98350000D01*
X141150000Y-113950000D02*
X140150000Y-113950000D01*
X140150000Y-115650000D02*
X141150000Y-115650000D01*
X150350000Y-101400000D02*
X150350000Y-102400000D01*
X152050000Y-102400000D02*
X152050000Y-101400000D01*
X158350000Y-95700000D02*
X158350000Y-96700000D01*
X160050000Y-96700000D02*
X160050000Y-95700000D01*
X158350000Y-90150000D02*
X158350000Y-91150000D01*
X160050000Y-91150000D02*
X160050000Y-90150000D01*
X160050000Y-101950000D02*
X160050000Y-100950000D01*
X158350000Y-100950000D02*
X158350000Y-101950000D01*
X195850000Y-69650000D02*
X196850000Y-69650000D01*
X196850000Y-67950000D02*
X195850000Y-67950000D01*
X160050000Y-107250000D02*
X160050000Y-106250000D01*
X158350000Y-106250000D02*
X158350000Y-107250000D01*
X193500000Y-105050000D02*
X193500000Y-104050000D01*
X191800000Y-104050000D02*
X191800000Y-105050000D01*
X193500000Y-99650000D02*
X193500000Y-98650000D01*
X191800000Y-98650000D02*
X191800000Y-99650000D01*
X150900000Y-91600000D02*
X149900000Y-91600000D01*
X149900000Y-93300000D02*
X150900000Y-93300000D01*
X168900000Y-66900000D02*
X167900000Y-67900000D01*
X167900000Y-67900000D02*
X167900000Y-72200000D01*
X171200000Y-66900000D02*
X172200000Y-67900000D01*
X172200000Y-67900000D02*
X172200000Y-72200000D01*
X169250000Y-66900000D02*
X168900000Y-66900000D01*
X170850000Y-66900000D02*
X171200000Y-66900000D01*
X169250000Y-72200000D02*
X167900000Y-72200000D01*
X170850000Y-72200000D02*
X172200000Y-72200000D01*
X146350000Y-71100000D02*
X145350000Y-72100000D01*
X145350000Y-72100000D02*
X145350000Y-76400000D01*
X148650000Y-71100000D02*
X149650000Y-72100000D01*
X149650000Y-72100000D02*
X149650000Y-76400000D01*
X146700000Y-71100000D02*
X146350000Y-71100000D01*
X148300000Y-71100000D02*
X148650000Y-71100000D01*
X146700000Y-76400000D02*
X145350000Y-76400000D01*
X148300000Y-76400000D02*
X149650000Y-76400000D01*
X94150000Y-121150000D02*
X94150000Y-122150000D01*
X95850000Y-122150000D02*
X95850000Y-121150000D01*
X104900000Y-121200000D02*
X104900000Y-120200000D01*
X103200000Y-120200000D02*
X103200000Y-121200000D01*
X114800000Y-117550000D02*
X115800000Y-117550000D01*
X115800000Y-115850000D02*
X114800000Y-115850000D01*
X108800000Y-112600000D02*
X108800000Y-111600000D01*
X107100000Y-111600000D02*
X107100000Y-112600000D01*
X96650000Y-99100000D02*
X96650000Y-98100000D01*
X94950000Y-98100000D02*
X94950000Y-99100000D01*
X111450000Y-101750000D02*
X110450000Y-101750000D01*
X110450000Y-103450000D02*
X111450000Y-103450000D01*
X92200000Y-100550000D02*
X91200000Y-100550000D01*
X91200000Y-102250000D02*
X92200000Y-102250000D01*
X100450000Y-99100000D02*
X100450000Y-98100000D01*
X98750000Y-98100000D02*
X98750000Y-99100000D01*
X91900000Y-110050000D02*
X90900000Y-110050000D01*
X90900000Y-111750000D02*
X91900000Y-111750000D01*
X103100000Y-92850000D02*
X103100000Y-91850000D01*
X101400000Y-91850000D02*
X101400000Y-92850000D01*
D11*
X165000000Y-76850000D02*
X165000000Y-74650000D01*
D12*
X166300000Y-74750000D02*
X166300000Y-74550000D01*
X166300000Y-74550000D02*
X162700000Y-74550000D01*
X162700000Y-74550000D02*
X162700000Y-74750000D01*
X162700000Y-76750000D02*
X162700000Y-76950000D01*
X162700000Y-76950000D02*
X166300000Y-76950000D01*
X166300000Y-76950000D02*
X166300000Y-76750000D01*
X119180000Y-56000000D02*
X119430000Y-56000000D01*
X119180000Y-52100000D02*
X119430000Y-52100000D01*
X126180000Y-52100000D02*
X125930000Y-52100000D01*
X125930000Y-56000000D02*
X126180000Y-56000000D01*
X126180000Y-52100000D02*
X126180000Y-56000000D01*
X119180000Y-52100000D02*
X119180000Y-56000000D01*
X119421548Y-57850000D02*
G75*
G03X119421548Y-57850000I-291548J0D01*
G01*
X160100000Y-63700000D02*
X160100000Y-63200000D01*
X160100000Y-50100000D02*
X160100000Y-58800000D01*
X168900000Y-63700000D02*
X168900000Y-50100000D01*
X168900000Y-63700000D02*
X167100000Y-63700000D01*
X160100000Y-63700000D02*
X161900000Y-63700000D01*
X131250000Y-112875000D02*
X130050000Y-112875000D01*
X130050000Y-111125000D02*
X131250000Y-111125000D01*
D14*
X83300000Y-60050000D02*
X128300000Y-60050000D01*
X128300000Y-60050000D02*
X128300000Y-78050000D01*
X128300000Y-78050000D02*
X83300000Y-78050000D01*
X83300000Y-78050000D02*
X83300000Y-60050000D01*
D17*
X152874000Y-85631000D02*
X149826000Y-85631000D01*
X149826000Y-85631000D02*
X149826000Y-84869000D01*
X149826000Y-84869000D02*
X152874000Y-84869000D01*
X152874000Y-84869000D02*
X152874000Y-85631000D01*
X166024000Y-71281000D02*
X162976000Y-71281000D01*
X162976000Y-71281000D02*
X162976000Y-70519000D01*
X162976000Y-70519000D02*
X166024000Y-70519000D01*
X166024000Y-70519000D02*
X166024000Y-71281000D01*
X116785000Y-121465000D02*
X113737000Y-121465000D01*
X113737000Y-121465000D02*
X113737000Y-120703000D01*
X113737000Y-120703000D02*
X116785000Y-120703000D01*
X116785000Y-120703000D02*
X116785000Y-121465000D01*
X116774000Y-112465000D02*
X113726000Y-112465000D01*
X113726000Y-112465000D02*
X113726000Y-111703000D01*
X113726000Y-111703000D02*
X116774000Y-111703000D01*
X116774000Y-111703000D02*
X116774000Y-112465000D01*
D12*
X95049560Y-90199340D02*
X95049560Y-92000200D01*
X95049560Y-90199340D02*
X95699800Y-90199340D01*
X99550440Y-90199340D02*
X99550440Y-92000200D01*
X99550440Y-90199340D02*
X98900200Y-90199340D01*
X135725000Y-128500000D02*
X135725000Y-127300000D01*
X137475000Y-127300000D02*
X137475000Y-128500000D01*
X140975000Y-128500000D02*
X140975000Y-127300000D01*
X142725000Y-127300000D02*
X142725000Y-128500000D01*
X149725000Y-64400000D02*
X149725000Y-65600000D01*
X147975000Y-65600000D02*
X147975000Y-64400000D01*
X147925000Y-127300000D02*
X147925000Y-128500000D01*
X146175000Y-128500000D02*
X146175000Y-127300000D01*
X124375000Y-112650000D02*
X124375000Y-111450000D01*
X126125000Y-111450000D02*
X126125000Y-112650000D01*
X124375000Y-117500000D02*
X124375000Y-116300000D01*
X126125000Y-116300000D02*
X126125000Y-117500000D01*
X136100000Y-92375000D02*
X137300000Y-92375000D01*
X137300000Y-94125000D02*
X136100000Y-94125000D01*
X140400000Y-92375000D02*
X141600000Y-92375000D01*
X141600000Y-94125000D02*
X140400000Y-94125000D01*
X150325000Y-107750000D02*
X150325000Y-106550000D01*
X152075000Y-106550000D02*
X152075000Y-107750000D01*
X153475000Y-107750000D02*
X153475000Y-106550000D01*
X155225000Y-106550000D02*
X155225000Y-107750000D01*
X197225000Y-62800000D02*
X197225000Y-64000000D01*
X195475000Y-64000000D02*
X195475000Y-62800000D01*
X191775000Y-94350000D02*
X191775000Y-93150000D01*
X193525000Y-93150000D02*
X193525000Y-94350000D01*
X173325000Y-76000000D02*
X173325000Y-77200000D01*
X171575000Y-77200000D02*
X171575000Y-76000000D01*
X170075000Y-76000000D02*
X170075000Y-77200000D01*
X168325000Y-77200000D02*
X168325000Y-76000000D01*
X154300000Y-87925000D02*
X155500000Y-87925000D01*
X155500000Y-89675000D02*
X154300000Y-89675000D01*
X155500000Y-93325000D02*
X154300000Y-93325000D01*
X154300000Y-91575000D02*
X155500000Y-91575000D01*
X159675000Y-73450000D02*
X159675000Y-72250000D01*
X161425000Y-72250000D02*
X161425000Y-73450000D01*
X151375000Y-128500000D02*
X151375000Y-127300000D01*
X153125000Y-127300000D02*
X153125000Y-128500000D01*
X88675000Y-129450000D02*
X88675000Y-128250000D01*
X90425000Y-128250000D02*
X90425000Y-129450000D01*
X110250000Y-121225000D02*
X111450000Y-121225000D01*
X111450000Y-122975000D02*
X110250000Y-122975000D01*
X109875000Y-118300000D02*
X109875000Y-117100000D01*
X111625000Y-117100000D02*
X111625000Y-118300000D01*
X110475000Y-112700000D02*
X110475000Y-111500000D01*
X112225000Y-111500000D02*
X112225000Y-112700000D01*
X110475000Y-107400000D02*
X110475000Y-106200000D01*
X112225000Y-106200000D02*
X112225000Y-107400000D01*
X107200000Y-103475000D02*
X106000000Y-103475000D01*
X106000000Y-101725000D02*
X107200000Y-101725000D01*
X182200000Y-137500000D02*
X182200000Y-132500000D01*
X179400000Y-137500000D02*
X182200000Y-137500000D01*
X169000000Y-137500000D02*
X171800000Y-137500000D01*
X169000000Y-132500000D02*
X169000000Y-137500000D01*
X182200000Y-122500000D02*
X182200000Y-127500000D01*
X179400000Y-122500000D02*
X182200000Y-122500000D01*
X174400000Y-122500000D02*
X176800000Y-122500000D01*
X169000000Y-122500000D02*
X171800000Y-122500000D01*
X169000000Y-127500000D02*
X169000000Y-122500000D01*
X110850000Y-52850000D02*
X110850000Y-55050000D01*
X105650000Y-52850000D02*
X105650000Y-55050000D01*
X105650000Y-56550000D02*
X110850000Y-56550000D01*
X105650000Y-51350000D02*
X110850000Y-51350000D01*
X141632843Y-83900000D02*
G75*
G03X141632843Y-83900000I-282843J0D01*
G01*
X142025000Y-84325000D02*
X142025000Y-84470000D01*
X146175000Y-84325000D02*
X146175000Y-84470000D01*
X146175000Y-89475000D02*
X146175000Y-89330000D01*
X142025000Y-89475000D02*
X142025000Y-89330000D01*
X142025000Y-84325000D02*
X146175000Y-84325000D01*
X142025000Y-89475000D02*
X146175000Y-89475000D01*
D17*
X195969000Y-75024000D02*
X195969000Y-71976000D01*
X195969000Y-71976000D02*
X196731000Y-71976000D01*
X196731000Y-71976000D02*
X196731000Y-75024000D01*
X196731000Y-75024000D02*
X195969000Y-75024000D01*
D12*
X192595000Y-68115000D02*
X192595000Y-63115000D01*
X192595000Y-76405000D02*
X192595000Y-75915000D01*
X192595000Y-58625000D02*
X176085000Y-58625000D01*
X192595000Y-76405000D02*
X176085000Y-76405000D01*
X176085000Y-76405000D02*
X176085000Y-75915000D01*
X176085000Y-59115000D02*
X176085000Y-58625000D01*
X192595000Y-59115000D02*
X192595000Y-58625000D01*
X157800000Y-70750000D02*
X156550000Y-70750000D01*
X157800000Y-74250000D02*
X157800000Y-70750000D01*
X151300000Y-70750000D02*
X151300000Y-74250000D01*
X151300000Y-70750000D02*
X152550000Y-70750000D01*
X92835044Y-131750000D02*
G75*
G03X92835044Y-131750000I-285044J0D01*
G01*
X95400000Y-127300000D02*
X97200000Y-127300000D01*
X95400000Y-130500000D02*
X97200000Y-130500000D01*
X98800000Y-128600000D02*
X98800000Y-129200000D01*
X93800000Y-128600000D02*
X93800000Y-129200000D01*
D18*
X105791000Y-105278500D02*
X107569000Y-105278500D01*
X107569000Y-105278500D02*
X107569000Y-108326500D01*
X107569000Y-108326500D02*
X105791000Y-108326500D01*
X105791000Y-108326500D02*
X105791000Y-105278500D01*
D12*
X148175000Y-60300000D02*
X148175000Y-59300000D01*
X149525000Y-59300000D02*
X149525000Y-60300000D01*
X151275000Y-60300000D02*
X151275000Y-59300000D01*
X152625000Y-59300000D02*
X152625000Y-60300000D01*
X132700000Y-100850000D02*
X132700000Y-104650000D01*
X132950000Y-100850000D02*
X132550000Y-100850000D01*
X132950000Y-104650000D02*
X132550000Y-104650000D01*
X132950000Y-100850000D02*
X132950000Y-104650000D01*
X124950000Y-100850000D02*
X125350000Y-100850000D01*
X124950000Y-104650000D02*
X125350000Y-104650000D01*
X124950000Y-100850000D02*
X124950000Y-104650000D01*
X130850000Y-100850000D02*
X127050000Y-100850000D01*
X130850000Y-104650000D02*
X127050000Y-104650000D01*
X188450000Y-109000000D02*
X188450000Y-111000000D01*
X182450000Y-109000000D02*
X182450000Y-111000000D01*
X183250000Y-113000000D02*
X187650000Y-113000000D01*
X183250000Y-107000000D02*
X187650000Y-107000000D01*
X178600000Y-109000000D02*
X178600000Y-111000000D01*
X172600000Y-109000000D02*
X172600000Y-111000000D01*
X173400000Y-113000000D02*
X177800000Y-113000000D01*
X173400000Y-107000000D02*
X177800000Y-107000000D01*
X168750000Y-109000000D02*
X168750000Y-111000000D01*
X162750000Y-109000000D02*
X162750000Y-111000000D01*
X163550000Y-113000000D02*
X167950000Y-113000000D01*
X163550000Y-107000000D02*
X167950000Y-107000000D01*
X131769100Y-50000000D02*
X131769100Y-64099540D01*
X131769100Y-64099540D02*
X146170900Y-64099540D01*
X146170900Y-64099540D02*
X146170900Y-50000000D01*
X137400000Y-101350000D02*
G75*
G03X137400000Y-101350000I-500000J0D01*
G01*
X137625000Y-102075000D02*
X137625000Y-102600000D01*
X144875000Y-102075000D02*
X144875000Y-102600000D01*
X144875000Y-109325000D02*
X144875000Y-108800000D01*
X137625000Y-109325000D02*
X137625000Y-108800000D01*
X137625000Y-102075000D02*
X138150000Y-102075000D01*
X137625000Y-109325000D02*
X138150000Y-109325000D01*
X144875000Y-109325000D02*
X144350000Y-109325000D01*
X144875000Y-102075000D02*
X144350000Y-102075000D01*
X137625000Y-102600000D02*
X136250000Y-102600000D01*
X152999998Y-124000000D02*
X152999998Y-121300000D01*
X151499998Y-124000000D02*
X151499998Y-121300000D01*
X152399998Y-122500000D02*
X152149998Y-122500000D01*
X152149998Y-122500000D02*
X152299998Y-122650000D01*
X151899998Y-122750000D02*
X152599998Y-122750000D01*
X152249998Y-122400000D02*
X152249998Y-122050000D01*
X152249998Y-122750000D02*
X151899998Y-122400000D01*
X151899998Y-122400000D02*
X152599998Y-122400000D01*
X152599998Y-122400000D02*
X152249998Y-122750000D01*
X147783332Y-124000000D02*
X147783332Y-121300000D01*
X146283332Y-124000000D02*
X146283332Y-121300000D01*
X147183332Y-122500000D02*
X146933332Y-122500000D01*
X146933332Y-122500000D02*
X147083332Y-122650000D01*
X146683332Y-122750000D02*
X147383332Y-122750000D01*
X147033332Y-122400000D02*
X147033332Y-122050000D01*
X147033332Y-122750000D02*
X146683332Y-122400000D01*
X146683332Y-122400000D02*
X147383332Y-122400000D01*
X147383332Y-122400000D02*
X147033332Y-122750000D01*
X142566666Y-124000000D02*
X142566666Y-121300000D01*
X141066666Y-124000000D02*
X141066666Y-121300000D01*
X141966666Y-122500000D02*
X141716666Y-122500000D01*
X141716666Y-122500000D02*
X141866666Y-122650000D01*
X141466666Y-122750000D02*
X142166666Y-122750000D01*
X141816666Y-122400000D02*
X141816666Y-122050000D01*
X141816666Y-122750000D02*
X141466666Y-122400000D01*
X141466666Y-122400000D02*
X142166666Y-122400000D01*
X142166666Y-122400000D02*
X141816666Y-122750000D01*
X137350000Y-124000000D02*
X137350000Y-121300000D01*
X135850000Y-124000000D02*
X135850000Y-121300000D01*
X136750000Y-122500000D02*
X136500000Y-122500000D01*
X136500000Y-122500000D02*
X136650000Y-122650000D01*
X136250000Y-122750000D02*
X136950000Y-122750000D01*
X136600000Y-122400000D02*
X136600000Y-122050000D01*
X136600000Y-122750000D02*
X136250000Y-122400000D01*
X136250000Y-122400000D02*
X136950000Y-122400000D01*
X136950000Y-122400000D02*
X136600000Y-122750000D01*
X157400000Y-60500000D02*
X157400000Y-62700000D01*
X154200000Y-60500000D02*
X154200000Y-62700000D01*
D11*
X181600000Y-99450000D02*
X181600000Y-103800000D01*
X188950000Y-99450000D02*
X181600000Y-99450000D01*
X188950000Y-83950000D02*
X188950000Y-99450000D01*
X162250000Y-83950000D02*
X188950000Y-83950000D01*
X162250000Y-99450000D02*
X162250000Y-83950000D01*
X169600000Y-99450000D02*
X162250000Y-99450000D01*
X169600000Y-103800000D02*
X169600000Y-99450000D01*
D12*
X111500000Y-88950000D02*
X105500000Y-88950000D01*
X105500000Y-96150000D02*
X111500000Y-96150000D01*
X112000000Y-89450000D02*
G75*
G03X111500000Y-88950000I-500000J0D01*
G01*
X105500000Y-88950000D02*
G75*
G03X105000000Y-89450000I0J-500000D01*
G01*
X112000000Y-95650000D02*
X112000000Y-89450000D01*
X105000000Y-95650000D02*
X105000000Y-89450000D01*
X105000000Y-95650000D02*
G75*
G03X105500000Y-96150000I500000J0D01*
G01*
X111500000Y-96150000D02*
G75*
G03X112000000Y-95650000I0J500000D01*
G01*
X100725000Y-115600000D02*
X100725000Y-114400000D01*
X102475000Y-114400000D02*
X102475000Y-115600000D01*
X97075000Y-115600000D02*
X97075000Y-114400000D01*
X98825000Y-114400000D02*
X98825000Y-115600000D01*
X98725000Y-110450000D02*
X98725000Y-109250000D01*
X100475000Y-109250000D02*
X100475000Y-110450000D01*
X91050000Y-96725000D02*
X92250000Y-96725000D01*
X92250000Y-98475000D02*
X91050000Y-98475000D01*
X98725000Y-104800000D02*
X98725000Y-103600000D01*
X100475000Y-103600000D02*
X100475000Y-104800000D01*
X97300000Y-124085000D02*
G75*
G03X97300000Y-124085000I-250000J0D01*
G01*
X97350000Y-119485000D02*
X98125000Y-119485000D01*
X101650000Y-123785000D02*
X100875000Y-123785000D01*
X101650000Y-119485000D02*
X100875000Y-119485000D01*
X97350000Y-123785000D02*
X97350000Y-123010000D01*
X101650000Y-123785000D02*
X101650000Y-123010000D01*
X101650000Y-119485000D02*
X101650000Y-120260000D01*
X97350000Y-119485000D02*
X97350000Y-120260000D01*
X98125000Y-123785000D02*
X97350000Y-123785000D01*
D19*
G36*
X192001260Y-121548980D02*
X192024120Y-121536280D01*
X192077460Y-121503260D01*
X192151120Y-121455000D01*
X192240020Y-121396580D01*
X192326380Y-121335620D01*
X192400040Y-121287360D01*
X192450840Y-121254340D01*
X192471160Y-121244180D01*
X192483860Y-121246720D01*
X192524500Y-121267040D01*
X192585460Y-121300060D01*
X192621020Y-121317840D01*
X192676900Y-121340700D01*
X192704840Y-121345780D01*
X192709920Y-121338160D01*
X192730240Y-121297520D01*
X192760720Y-121223860D01*
X192803900Y-121127340D01*
X192852160Y-121013040D01*
X192902960Y-120891120D01*
X192956300Y-120769200D01*
X193004560Y-120649820D01*
X193047740Y-120543140D01*
X193083300Y-120456780D01*
X193106160Y-120395820D01*
X193113780Y-120370420D01*
X193111240Y-120365340D01*
X193083300Y-120337400D01*
X193035040Y-120301840D01*
X192930900Y-120215480D01*
X192826760Y-120085940D01*
X192763260Y-119938620D01*
X192740400Y-119773520D01*
X192758180Y-119623660D01*
X192819140Y-119478880D01*
X192920740Y-119346800D01*
X193045200Y-119250280D01*
X193187440Y-119186780D01*
X193350000Y-119166460D01*
X193504940Y-119184240D01*
X193652260Y-119242660D01*
X193784340Y-119344260D01*
X193840220Y-119407760D01*
X193916420Y-119539840D01*
X193959600Y-119682080D01*
X193964680Y-119717640D01*
X193957060Y-119875120D01*
X193911340Y-120024980D01*
X193830060Y-120157060D01*
X193715760Y-120268820D01*
X193700520Y-120278980D01*
X193647180Y-120317080D01*
X193611620Y-120345020D01*
X193583680Y-120367880D01*
X193781800Y-120847940D01*
X193814820Y-120924140D01*
X193868160Y-121053680D01*
X193916420Y-121167980D01*
X193957060Y-121256880D01*
X193982460Y-121317840D01*
X193995160Y-121340700D01*
X193995160Y-121343240D01*
X194012940Y-121345780D01*
X194048500Y-121333080D01*
X194117080Y-121300060D01*
X194160260Y-121277200D01*
X194211060Y-121251800D01*
X194233920Y-121244180D01*
X194254240Y-121254340D01*
X194302500Y-121284820D01*
X194373620Y-121333080D01*
X194459980Y-121391500D01*
X194541260Y-121447380D01*
X194614920Y-121495640D01*
X194670800Y-121531200D01*
X194696200Y-121546440D01*
X194701280Y-121546440D01*
X194724140Y-121533740D01*
X194767320Y-121495640D01*
X194833360Y-121434680D01*
X194924800Y-121343240D01*
X194940040Y-121330540D01*
X195016240Y-121251800D01*
X195077200Y-121188300D01*
X195117840Y-121142580D01*
X195133080Y-121119720D01*
X195133080Y-121119720D01*
X195120380Y-121094320D01*
X195084820Y-121040980D01*
X195036560Y-120964780D01*
X194975600Y-120875880D01*
X194815580Y-120644740D01*
X194904480Y-120426300D01*
X194929880Y-120360260D01*
X194965440Y-120278980D01*
X194990840Y-120223100D01*
X195003540Y-120197700D01*
X195026400Y-120187540D01*
X195084820Y-120174840D01*
X195171180Y-120157060D01*
X195275320Y-120136740D01*
X195374380Y-120118960D01*
X195460740Y-120101180D01*
X195526780Y-120088480D01*
X195554720Y-120083400D01*
X195562340Y-120080860D01*
X195567420Y-120065620D01*
X195569960Y-120035140D01*
X195572500Y-119981800D01*
X195575040Y-119897980D01*
X195575040Y-119773520D01*
X195575040Y-119760820D01*
X195572500Y-119643980D01*
X195572500Y-119550000D01*
X195567420Y-119491580D01*
X195564880Y-119466180D01*
X195564880Y-119466180D01*
X195536940Y-119461100D01*
X195473440Y-119445860D01*
X195384540Y-119430620D01*
X195280400Y-119410300D01*
X195272780Y-119407760D01*
X195168640Y-119387440D01*
X195079740Y-119369660D01*
X195018780Y-119354420D01*
X194990840Y-119346800D01*
X194985760Y-119339180D01*
X194965440Y-119298540D01*
X194934960Y-119232500D01*
X194899400Y-119153760D01*
X194866380Y-119069940D01*
X194835900Y-118996280D01*
X194815580Y-118940400D01*
X194810500Y-118915000D01*
X194810500Y-118915000D01*
X194825740Y-118889600D01*
X194861300Y-118836260D01*
X194912100Y-118760060D01*
X194975600Y-118671160D01*
X194978140Y-118663540D01*
X195039100Y-118574640D01*
X195089900Y-118498440D01*
X195120380Y-118445100D01*
X195133080Y-118422240D01*
X195133080Y-118419700D01*
X195112760Y-118394300D01*
X195067040Y-118343500D01*
X195003540Y-118274920D01*
X194924800Y-118196180D01*
X194899400Y-118170780D01*
X194813040Y-118086960D01*
X194754620Y-118031080D01*
X194716520Y-118003140D01*
X194698740Y-117995520D01*
X194698740Y-117995520D01*
X194670800Y-118013300D01*
X194614920Y-118048860D01*
X194538720Y-118102200D01*
X194447280Y-118163160D01*
X194442200Y-118165700D01*
X194353300Y-118226660D01*
X194279640Y-118277460D01*
X194226300Y-118313020D01*
X194203440Y-118325720D01*
X194198360Y-118325720D01*
X194162800Y-118315560D01*
X194099300Y-118292700D01*
X194023100Y-118262220D01*
X193939280Y-118229200D01*
X193865620Y-118198720D01*
X193809740Y-118173320D01*
X193781800Y-118158080D01*
X193781800Y-118155540D01*
X193771640Y-118125060D01*
X193756400Y-118059020D01*
X193738620Y-117967580D01*
X193718300Y-117858360D01*
X193713220Y-117840580D01*
X193692900Y-117733900D01*
X193677660Y-117647540D01*
X193664960Y-117586580D01*
X193657340Y-117561180D01*
X193642100Y-117558640D01*
X193591300Y-117553560D01*
X193512560Y-117551020D01*
X193416040Y-117551020D01*
X193316980Y-117551020D01*
X193217920Y-117553560D01*
X193134100Y-117556100D01*
X193075680Y-117561180D01*
X193050280Y-117566260D01*
X193047740Y-117566260D01*
X193040120Y-117599280D01*
X193024880Y-117665320D01*
X193007100Y-117759300D01*
X192984240Y-117868520D01*
X192981700Y-117886300D01*
X192961380Y-117992980D01*
X192943600Y-118079340D01*
X192930900Y-118140300D01*
X192923280Y-118163160D01*
X192915660Y-118168240D01*
X192869940Y-118186020D01*
X192798820Y-118216500D01*
X192712460Y-118252060D01*
X192509260Y-118333340D01*
X192257800Y-118163160D01*
X192234940Y-118147920D01*
X192146040Y-118086960D01*
X192072380Y-118036160D01*
X192021580Y-118003140D01*
X191998720Y-117992980D01*
X191998720Y-117992980D01*
X191973320Y-118015840D01*
X191922520Y-118061560D01*
X191856480Y-118127600D01*
X191777740Y-118206340D01*
X191719320Y-118262220D01*
X191650740Y-118333340D01*
X191605020Y-118381600D01*
X191582160Y-118412080D01*
X191574540Y-118429860D01*
X191577080Y-118442560D01*
X191592320Y-118467960D01*
X191627880Y-118521300D01*
X191681220Y-118597500D01*
X191742180Y-118686400D01*
X191790440Y-118760060D01*
X191846320Y-118843880D01*
X191881880Y-118904840D01*
X191892040Y-118932780D01*
X191889500Y-118945480D01*
X191871720Y-118993740D01*
X191843780Y-119067400D01*
X191805680Y-119156300D01*
X191719320Y-119354420D01*
X191589780Y-119379820D01*
X191511040Y-119392520D01*
X191399280Y-119415380D01*
X191295140Y-119435700D01*
X191130040Y-119466180D01*
X191124960Y-120068160D01*
X191150360Y-120078320D01*
X191175760Y-120085940D01*
X191236720Y-120098640D01*
X191323080Y-120116420D01*
X191424680Y-120136740D01*
X191511040Y-120151980D01*
X191599940Y-120169760D01*
X191663440Y-120182460D01*
X191691380Y-120187540D01*
X191699000Y-120197700D01*
X191719320Y-120238340D01*
X191752340Y-120306920D01*
X191785360Y-120388200D01*
X191820920Y-120472020D01*
X191851400Y-120550760D01*
X191874260Y-120609180D01*
X191881880Y-120642200D01*
X191869180Y-120665060D01*
X191836160Y-120715860D01*
X191787900Y-120789520D01*
X191729480Y-120875880D01*
X191668520Y-120964780D01*
X191617720Y-121038440D01*
X191584700Y-121091780D01*
X191569460Y-121117180D01*
X191577080Y-121134960D01*
X191610100Y-121175600D01*
X191676140Y-121244180D01*
X191775200Y-121340700D01*
X191790440Y-121355940D01*
X191869180Y-121432140D01*
X191935220Y-121493100D01*
X191980940Y-121533740D01*
X192001260Y-121548980D01*
X192001260Y-121548980D01*
G37*
X192001260Y-121548980D02*
X192024120Y-121536280D01*
X192077460Y-121503260D01*
X192151120Y-121455000D01*
X192240020Y-121396580D01*
X192326380Y-121335620D01*
X192400040Y-121287360D01*
X192450840Y-121254340D01*
X192471160Y-121244180D01*
X192483860Y-121246720D01*
X192524500Y-121267040D01*
X192585460Y-121300060D01*
X192621020Y-121317840D01*
X192676900Y-121340700D01*
X192704840Y-121345780D01*
X192709920Y-121338160D01*
X192730240Y-121297520D01*
X192760720Y-121223860D01*
X192803900Y-121127340D01*
X192852160Y-121013040D01*
X192902960Y-120891120D01*
X192956300Y-120769200D01*
X193004560Y-120649820D01*
X193047740Y-120543140D01*
X193083300Y-120456780D01*
X193106160Y-120395820D01*
X193113780Y-120370420D01*
X193111240Y-120365340D01*
X193083300Y-120337400D01*
X193035040Y-120301840D01*
X192930900Y-120215480D01*
X192826760Y-120085940D01*
X192763260Y-119938620D01*
X192740400Y-119773520D01*
X192758180Y-119623660D01*
X192819140Y-119478880D01*
X192920740Y-119346800D01*
X193045200Y-119250280D01*
X193187440Y-119186780D01*
X193350000Y-119166460D01*
X193504940Y-119184240D01*
X193652260Y-119242660D01*
X193784340Y-119344260D01*
X193840220Y-119407760D01*
X193916420Y-119539840D01*
X193959600Y-119682080D01*
X193964680Y-119717640D01*
X193957060Y-119875120D01*
X193911340Y-120024980D01*
X193830060Y-120157060D01*
X193715760Y-120268820D01*
X193700520Y-120278980D01*
X193647180Y-120317080D01*
X193611620Y-120345020D01*
X193583680Y-120367880D01*
X193781800Y-120847940D01*
X193814820Y-120924140D01*
X193868160Y-121053680D01*
X193916420Y-121167980D01*
X193957060Y-121256880D01*
X193982460Y-121317840D01*
X193995160Y-121340700D01*
X193995160Y-121343240D01*
X194012940Y-121345780D01*
X194048500Y-121333080D01*
X194117080Y-121300060D01*
X194160260Y-121277200D01*
X194211060Y-121251800D01*
X194233920Y-121244180D01*
X194254240Y-121254340D01*
X194302500Y-121284820D01*
X194373620Y-121333080D01*
X194459980Y-121391500D01*
X194541260Y-121447380D01*
X194614920Y-121495640D01*
X194670800Y-121531200D01*
X194696200Y-121546440D01*
X194701280Y-121546440D01*
X194724140Y-121533740D01*
X194767320Y-121495640D01*
X194833360Y-121434680D01*
X194924800Y-121343240D01*
X194940040Y-121330540D01*
X195016240Y-121251800D01*
X195077200Y-121188300D01*
X195117840Y-121142580D01*
X195133080Y-121119720D01*
X195133080Y-121119720D01*
X195120380Y-121094320D01*
X195084820Y-121040980D01*
X195036560Y-120964780D01*
X194975600Y-120875880D01*
X194815580Y-120644740D01*
X194904480Y-120426300D01*
X194929880Y-120360260D01*
X194965440Y-120278980D01*
X194990840Y-120223100D01*
X195003540Y-120197700D01*
X195026400Y-120187540D01*
X195084820Y-120174840D01*
X195171180Y-120157060D01*
X195275320Y-120136740D01*
X195374380Y-120118960D01*
X195460740Y-120101180D01*
X195526780Y-120088480D01*
X195554720Y-120083400D01*
X195562340Y-120080860D01*
X195567420Y-120065620D01*
X195569960Y-120035140D01*
X195572500Y-119981800D01*
X195575040Y-119897980D01*
X195575040Y-119773520D01*
X195575040Y-119760820D01*
X195572500Y-119643980D01*
X195572500Y-119550000D01*
X195567420Y-119491580D01*
X195564880Y-119466180D01*
X195564880Y-119466180D01*
X195536940Y-119461100D01*
X195473440Y-119445860D01*
X195384540Y-119430620D01*
X195280400Y-119410300D01*
X195272780Y-119407760D01*
X195168640Y-119387440D01*
X195079740Y-119369660D01*
X195018780Y-119354420D01*
X194990840Y-119346800D01*
X194985760Y-119339180D01*
X194965440Y-119298540D01*
X194934960Y-119232500D01*
X194899400Y-119153760D01*
X194866380Y-119069940D01*
X194835900Y-118996280D01*
X194815580Y-118940400D01*
X194810500Y-118915000D01*
X194810500Y-118915000D01*
X194825740Y-118889600D01*
X194861300Y-118836260D01*
X194912100Y-118760060D01*
X194975600Y-118671160D01*
X194978140Y-118663540D01*
X195039100Y-118574640D01*
X195089900Y-118498440D01*
X195120380Y-118445100D01*
X195133080Y-118422240D01*
X195133080Y-118419700D01*
X195112760Y-118394300D01*
X195067040Y-118343500D01*
X195003540Y-118274920D01*
X194924800Y-118196180D01*
X194899400Y-118170780D01*
X194813040Y-118086960D01*
X194754620Y-118031080D01*
X194716520Y-118003140D01*
X194698740Y-117995520D01*
X194698740Y-117995520D01*
X194670800Y-118013300D01*
X194614920Y-118048860D01*
X194538720Y-118102200D01*
X194447280Y-118163160D01*
X194442200Y-118165700D01*
X194353300Y-118226660D01*
X194279640Y-118277460D01*
X194226300Y-118313020D01*
X194203440Y-118325720D01*
X194198360Y-118325720D01*
X194162800Y-118315560D01*
X194099300Y-118292700D01*
X194023100Y-118262220D01*
X193939280Y-118229200D01*
X193865620Y-118198720D01*
X193809740Y-118173320D01*
X193781800Y-118158080D01*
X193781800Y-118155540D01*
X193771640Y-118125060D01*
X193756400Y-118059020D01*
X193738620Y-117967580D01*
X193718300Y-117858360D01*
X193713220Y-117840580D01*
X193692900Y-117733900D01*
X193677660Y-117647540D01*
X193664960Y-117586580D01*
X193657340Y-117561180D01*
X193642100Y-117558640D01*
X193591300Y-117553560D01*
X193512560Y-117551020D01*
X193416040Y-117551020D01*
X193316980Y-117551020D01*
X193217920Y-117553560D01*
X193134100Y-117556100D01*
X193075680Y-117561180D01*
X193050280Y-117566260D01*
X193047740Y-117566260D01*
X193040120Y-117599280D01*
X193024880Y-117665320D01*
X193007100Y-117759300D01*
X192984240Y-117868520D01*
X192981700Y-117886300D01*
X192961380Y-117992980D01*
X192943600Y-118079340D01*
X192930900Y-118140300D01*
X192923280Y-118163160D01*
X192915660Y-118168240D01*
X192869940Y-118186020D01*
X192798820Y-118216500D01*
X192712460Y-118252060D01*
X192509260Y-118333340D01*
X192257800Y-118163160D01*
X192234940Y-118147920D01*
X192146040Y-118086960D01*
X192072380Y-118036160D01*
X192021580Y-118003140D01*
X191998720Y-117992980D01*
X191998720Y-117992980D01*
X191973320Y-118015840D01*
X191922520Y-118061560D01*
X191856480Y-118127600D01*
X191777740Y-118206340D01*
X191719320Y-118262220D01*
X191650740Y-118333340D01*
X191605020Y-118381600D01*
X191582160Y-118412080D01*
X191574540Y-118429860D01*
X191577080Y-118442560D01*
X191592320Y-118467960D01*
X191627880Y-118521300D01*
X191681220Y-118597500D01*
X191742180Y-118686400D01*
X191790440Y-118760060D01*
X191846320Y-118843880D01*
X191881880Y-118904840D01*
X191892040Y-118932780D01*
X191889500Y-118945480D01*
X191871720Y-118993740D01*
X191843780Y-119067400D01*
X191805680Y-119156300D01*
X191719320Y-119354420D01*
X191589780Y-119379820D01*
X191511040Y-119392520D01*
X191399280Y-119415380D01*
X191295140Y-119435700D01*
X191130040Y-119466180D01*
X191124960Y-120068160D01*
X191150360Y-120078320D01*
X191175760Y-120085940D01*
X191236720Y-120098640D01*
X191323080Y-120116420D01*
X191424680Y-120136740D01*
X191511040Y-120151980D01*
X191599940Y-120169760D01*
X191663440Y-120182460D01*
X191691380Y-120187540D01*
X191699000Y-120197700D01*
X191719320Y-120238340D01*
X191752340Y-120306920D01*
X191785360Y-120388200D01*
X191820920Y-120472020D01*
X191851400Y-120550760D01*
X191874260Y-120609180D01*
X191881880Y-120642200D01*
X191869180Y-120665060D01*
X191836160Y-120715860D01*
X191787900Y-120789520D01*
X191729480Y-120875880D01*
X191668520Y-120964780D01*
X191617720Y-121038440D01*
X191584700Y-121091780D01*
X191569460Y-121117180D01*
X191577080Y-121134960D01*
X191610100Y-121175600D01*
X191676140Y-121244180D01*
X191775200Y-121340700D01*
X191790440Y-121355940D01*
X191869180Y-121432140D01*
X191935220Y-121493100D01*
X191980940Y-121533740D01*
X192001260Y-121548980D01*
G36*
X186581660Y-122006040D02*
X186622300Y-122006040D01*
X186749300Y-122003500D01*
X186833120Y-121998420D01*
X186863600Y-121990800D01*
X186858520Y-121970480D01*
X186840740Y-121899360D01*
X186807720Y-121779980D01*
X186767080Y-121625040D01*
X186716280Y-121439620D01*
X186617220Y-121078940D01*
X186563880Y-120888440D01*
X186520700Y-120720800D01*
X186485140Y-120591260D01*
X186462280Y-120502360D01*
X186454660Y-120466800D01*
X186454660Y-120464260D01*
X186482600Y-120423620D01*
X186541020Y-120342340D01*
X186627380Y-120230580D01*
X186734060Y-120095960D01*
X186855980Y-119943560D01*
X187257300Y-119448260D01*
X186744220Y-119448260D01*
X186322580Y-119989280D01*
X186266700Y-120057860D01*
X186149860Y-120207720D01*
X186048260Y-120337260D01*
X185966980Y-120438860D01*
X185916180Y-120502360D01*
X185895860Y-120525220D01*
X185898400Y-120509980D01*
X185911100Y-120438860D01*
X185933960Y-120319480D01*
X185964440Y-120159460D01*
X186002540Y-119961340D01*
X186045720Y-119737820D01*
X186093980Y-119493980D01*
X186127000Y-119321260D01*
X186175260Y-119087580D01*
X186215900Y-118879300D01*
X186248920Y-118701500D01*
X186274320Y-118564340D01*
X186292100Y-118475440D01*
X186297180Y-118437340D01*
X186297180Y-118429720D01*
X186284480Y-118419560D01*
X186246380Y-118414480D01*
X186170180Y-118414480D01*
X186043180Y-118414480D01*
X185789180Y-118419560D01*
X185763780Y-118544020D01*
X185735840Y-118660860D01*
X185695200Y-118744680D01*
X185636780Y-118813260D01*
X185596140Y-118848820D01*
X185525020Y-118886920D01*
X185436120Y-118897080D01*
X185431040Y-118897080D01*
X185359920Y-118886920D01*
X185301500Y-118848820D01*
X185291340Y-118838660D01*
X185253240Y-118790400D01*
X185238000Y-118731980D01*
X185245620Y-118640540D01*
X185268480Y-118505920D01*
X185288800Y-118414480D01*
X185304040Y-118338280D01*
X185309120Y-118307800D01*
X185324360Y-118305260D01*
X185390400Y-118305260D01*
X185464060Y-118302720D01*
X185464060Y-117876000D01*
X185413260Y-117870920D01*
X185395480Y-117863300D01*
X185392940Y-117850600D01*
X185398020Y-117835360D01*
X185413260Y-117769320D01*
X185433580Y-117675340D01*
X185443740Y-117634700D01*
X185471680Y-117535640D01*
X185499620Y-117467060D01*
X185507240Y-117454360D01*
X185578360Y-117375620D01*
X185674880Y-117327360D01*
X185779020Y-117312120D01*
X185867920Y-117332440D01*
X185931420Y-117393400D01*
X185933960Y-117398480D01*
X185951740Y-117487380D01*
X185946660Y-117611840D01*
X185923800Y-117751540D01*
X185895860Y-117868380D01*
X185641860Y-117873460D01*
X185558040Y-117876000D01*
X185464060Y-117876000D01*
X185464060Y-118302720D01*
X185502160Y-118302720D01*
X185646940Y-118302720D01*
X185819660Y-118300180D01*
X186327660Y-118300180D01*
X186337820Y-118264620D01*
X186340360Y-118257000D01*
X186363220Y-118150320D01*
X186388620Y-118010620D01*
X186416560Y-117858220D01*
X186444500Y-117705820D01*
X186464820Y-117571200D01*
X186480060Y-117464520D01*
X186487680Y-117406100D01*
X186485140Y-117375620D01*
X186449580Y-117195280D01*
X186360680Y-117037800D01*
X186233680Y-116910800D01*
X186073660Y-116834600D01*
X186055880Y-116829520D01*
X185936500Y-116811740D01*
X185796800Y-116811740D01*
X185672340Y-116826980D01*
X185552960Y-116862540D01*
X185370080Y-116964140D01*
X185202440Y-117106380D01*
X185065280Y-117274020D01*
X184971300Y-117454360D01*
X184963680Y-117477220D01*
X184943360Y-117566120D01*
X184915420Y-117695660D01*
X184879860Y-117853140D01*
X184844300Y-118028400D01*
X184808740Y-118208740D01*
X184775720Y-118381460D01*
X184747780Y-118531320D01*
X184727460Y-118648160D01*
X184717300Y-118719280D01*
X184717300Y-118820880D01*
X184737620Y-118985980D01*
X184788420Y-119123140D01*
X184808740Y-119156160D01*
X184925580Y-119285700D01*
X185083060Y-119377140D01*
X185265940Y-119422860D01*
X185461520Y-119417780D01*
X185484380Y-119415240D01*
X185555500Y-119405080D01*
X185585980Y-119405080D01*
X185585980Y-119412700D01*
X185575820Y-119473660D01*
X185552960Y-119585420D01*
X185522480Y-119740360D01*
X185484380Y-119938480D01*
X185441200Y-120167080D01*
X185390400Y-120421080D01*
X185306580Y-120837640D01*
X185253240Y-121101800D01*
X185204980Y-121345640D01*
X185164340Y-121559000D01*
X185128780Y-121739340D01*
X185103380Y-121873960D01*
X185088140Y-121962860D01*
X185085600Y-121993340D01*
X185088140Y-121995880D01*
X185133860Y-122000960D01*
X185222760Y-122003500D01*
X185342140Y-122006040D01*
X185446280Y-122006040D01*
X185530100Y-122003500D01*
X185573280Y-121998420D01*
X185593600Y-121988260D01*
X185598680Y-121970480D01*
X185603760Y-121945080D01*
X185621540Y-121866340D01*
X185641860Y-121752040D01*
X185669800Y-121614880D01*
X185677420Y-121574240D01*
X185712980Y-121411680D01*
X185740920Y-121310080D01*
X185761240Y-121261820D01*
X185771400Y-121251660D01*
X185847600Y-121165300D01*
X185926340Y-121076400D01*
X186000000Y-121000200D01*
X186050800Y-120946860D01*
X186071120Y-120926540D01*
X186076200Y-120941780D01*
X186091440Y-121007820D01*
X186114300Y-121119580D01*
X186144780Y-121264360D01*
X186177800Y-121432000D01*
X186203200Y-121548840D01*
X186236220Y-121706320D01*
X186261620Y-121838400D01*
X186281940Y-121929840D01*
X186289560Y-121970480D01*
X186292100Y-121973020D01*
X186297180Y-121988260D01*
X186317500Y-121998420D01*
X186363220Y-122003500D01*
X186447040Y-122006040D01*
X186581660Y-122006040D01*
X186581660Y-122006040D01*
G37*
X186581660Y-122006040D02*
X186622300Y-122006040D01*
X186749300Y-122003500D01*
X186833120Y-121998420D01*
X186863600Y-121990800D01*
X186858520Y-121970480D01*
X186840740Y-121899360D01*
X186807720Y-121779980D01*
X186767080Y-121625040D01*
X186716280Y-121439620D01*
X186617220Y-121078940D01*
X186563880Y-120888440D01*
X186520700Y-120720800D01*
X186485140Y-120591260D01*
X186462280Y-120502360D01*
X186454660Y-120466800D01*
X186454660Y-120464260D01*
X186482600Y-120423620D01*
X186541020Y-120342340D01*
X186627380Y-120230580D01*
X186734060Y-120095960D01*
X186855980Y-119943560D01*
X187257300Y-119448260D01*
X186744220Y-119448260D01*
X186322580Y-119989280D01*
X186266700Y-120057860D01*
X186149860Y-120207720D01*
X186048260Y-120337260D01*
X185966980Y-120438860D01*
X185916180Y-120502360D01*
X185895860Y-120525220D01*
X185898400Y-120509980D01*
X185911100Y-120438860D01*
X185933960Y-120319480D01*
X185964440Y-120159460D01*
X186002540Y-119961340D01*
X186045720Y-119737820D01*
X186093980Y-119493980D01*
X186127000Y-119321260D01*
X186175260Y-119087580D01*
X186215900Y-118879300D01*
X186248920Y-118701500D01*
X186274320Y-118564340D01*
X186292100Y-118475440D01*
X186297180Y-118437340D01*
X186297180Y-118429720D01*
X186284480Y-118419560D01*
X186246380Y-118414480D01*
X186170180Y-118414480D01*
X186043180Y-118414480D01*
X185789180Y-118419560D01*
X185763780Y-118544020D01*
X185735840Y-118660860D01*
X185695200Y-118744680D01*
X185636780Y-118813260D01*
X185596140Y-118848820D01*
X185525020Y-118886920D01*
X185436120Y-118897080D01*
X185431040Y-118897080D01*
X185359920Y-118886920D01*
X185301500Y-118848820D01*
X185291340Y-118838660D01*
X185253240Y-118790400D01*
X185238000Y-118731980D01*
X185245620Y-118640540D01*
X185268480Y-118505920D01*
X185288800Y-118414480D01*
X185304040Y-118338280D01*
X185309120Y-118307800D01*
X185324360Y-118305260D01*
X185390400Y-118305260D01*
X185464060Y-118302720D01*
X185464060Y-117876000D01*
X185413260Y-117870920D01*
X185395480Y-117863300D01*
X185392940Y-117850600D01*
X185398020Y-117835360D01*
X185413260Y-117769320D01*
X185433580Y-117675340D01*
X185443740Y-117634700D01*
X185471680Y-117535640D01*
X185499620Y-117467060D01*
X185507240Y-117454360D01*
X185578360Y-117375620D01*
X185674880Y-117327360D01*
X185779020Y-117312120D01*
X185867920Y-117332440D01*
X185931420Y-117393400D01*
X185933960Y-117398480D01*
X185951740Y-117487380D01*
X185946660Y-117611840D01*
X185923800Y-117751540D01*
X185895860Y-117868380D01*
X185641860Y-117873460D01*
X185558040Y-117876000D01*
X185464060Y-117876000D01*
X185464060Y-118302720D01*
X185502160Y-118302720D01*
X185646940Y-118302720D01*
X185819660Y-118300180D01*
X186327660Y-118300180D01*
X186337820Y-118264620D01*
X186340360Y-118257000D01*
X186363220Y-118150320D01*
X186388620Y-118010620D01*
X186416560Y-117858220D01*
X186444500Y-117705820D01*
X186464820Y-117571200D01*
X186480060Y-117464520D01*
X186487680Y-117406100D01*
X186485140Y-117375620D01*
X186449580Y-117195280D01*
X186360680Y-117037800D01*
X186233680Y-116910800D01*
X186073660Y-116834600D01*
X186055880Y-116829520D01*
X185936500Y-116811740D01*
X185796800Y-116811740D01*
X185672340Y-116826980D01*
X185552960Y-116862540D01*
X185370080Y-116964140D01*
X185202440Y-117106380D01*
X185065280Y-117274020D01*
X184971300Y-117454360D01*
X184963680Y-117477220D01*
X184943360Y-117566120D01*
X184915420Y-117695660D01*
X184879860Y-117853140D01*
X184844300Y-118028400D01*
X184808740Y-118208740D01*
X184775720Y-118381460D01*
X184747780Y-118531320D01*
X184727460Y-118648160D01*
X184717300Y-118719280D01*
X184717300Y-118820880D01*
X184737620Y-118985980D01*
X184788420Y-119123140D01*
X184808740Y-119156160D01*
X184925580Y-119285700D01*
X185083060Y-119377140D01*
X185265940Y-119422860D01*
X185461520Y-119417780D01*
X185484380Y-119415240D01*
X185555500Y-119405080D01*
X185585980Y-119405080D01*
X185585980Y-119412700D01*
X185575820Y-119473660D01*
X185552960Y-119585420D01*
X185522480Y-119740360D01*
X185484380Y-119938480D01*
X185441200Y-120167080D01*
X185390400Y-120421080D01*
X185306580Y-120837640D01*
X185253240Y-121101800D01*
X185204980Y-121345640D01*
X185164340Y-121559000D01*
X185128780Y-121739340D01*
X185103380Y-121873960D01*
X185088140Y-121962860D01*
X185085600Y-121993340D01*
X185088140Y-121995880D01*
X185133860Y-122000960D01*
X185222760Y-122003500D01*
X185342140Y-122006040D01*
X185446280Y-122006040D01*
X185530100Y-122003500D01*
X185573280Y-121998420D01*
X185593600Y-121988260D01*
X185598680Y-121970480D01*
X185603760Y-121945080D01*
X185621540Y-121866340D01*
X185641860Y-121752040D01*
X185669800Y-121614880D01*
X185677420Y-121574240D01*
X185712980Y-121411680D01*
X185740920Y-121310080D01*
X185761240Y-121261820D01*
X185771400Y-121251660D01*
X185847600Y-121165300D01*
X185926340Y-121076400D01*
X186000000Y-121000200D01*
X186050800Y-120946860D01*
X186071120Y-120926540D01*
X186076200Y-120941780D01*
X186091440Y-121007820D01*
X186114300Y-121119580D01*
X186144780Y-121264360D01*
X186177800Y-121432000D01*
X186203200Y-121548840D01*
X186236220Y-121706320D01*
X186261620Y-121838400D01*
X186281940Y-121929840D01*
X186289560Y-121970480D01*
X186292100Y-121973020D01*
X186297180Y-121988260D01*
X186317500Y-121998420D01*
X186363220Y-122003500D01*
X186447040Y-122006040D01*
X186581660Y-122006040D01*
D15*
X92530000Y-104902500D02*
X90830000Y-104902500D01*
D18*
X92569000Y-107626500D02*
X90791000Y-107626500D01*
X90791000Y-107626500D02*
X90791000Y-104578500D01*
X90791000Y-104578500D02*
X92569000Y-104578500D01*
X92569000Y-104578500D02*
X92569000Y-107626500D01*
D12*
X151783334Y-62857143D02*
X151735715Y-62904762D01*
X151592858Y-62952381D01*
X151497620Y-62952381D01*
X151354762Y-62904762D01*
X151259524Y-62809524D01*
X151211905Y-62714286D01*
X151164286Y-62523810D01*
X151164286Y-62380952D01*
X151211905Y-62190476D01*
X151259524Y-62095238D01*
X151354762Y-62000000D01*
X151497620Y-61952381D01*
X151592858Y-61952381D01*
X151735715Y-62000000D01*
X151783334Y-62047619D01*
X152735715Y-62952381D02*
X152164286Y-62952381D01*
X152450000Y-62952381D02*
X152450000Y-61952381D01*
X152354762Y-62095238D01*
X152259524Y-62190476D01*
X152164286Y-62238095D01*
X130433334Y-114557143D02*
X130385715Y-114604762D01*
X130242858Y-114652381D01*
X130147620Y-114652381D01*
X130004762Y-114604762D01*
X129909524Y-114509524D01*
X129861905Y-114414286D01*
X129814286Y-114223810D01*
X129814286Y-114080952D01*
X129861905Y-113890476D01*
X129909524Y-113795238D01*
X130004762Y-113700000D01*
X130147620Y-113652381D01*
X130242858Y-113652381D01*
X130385715Y-113700000D01*
X130433334Y-113747619D01*
X130814286Y-113747619D02*
X130861905Y-113700000D01*
X130957143Y-113652381D01*
X131195239Y-113652381D01*
X131290477Y-113700000D01*
X131338096Y-113747619D01*
X131385715Y-113842857D01*
X131385715Y-113938095D01*
X131338096Y-114080952D01*
X130766667Y-114652381D01*
X131385715Y-114652381D01*
X130533334Y-96107143D02*
X130485715Y-96154762D01*
X130342858Y-96202381D01*
X130247620Y-96202381D01*
X130104762Y-96154762D01*
X130009524Y-96059524D01*
X129961905Y-95964286D01*
X129914286Y-95773810D01*
X129914286Y-95630952D01*
X129961905Y-95440476D01*
X130009524Y-95345238D01*
X130104762Y-95250000D01*
X130247620Y-95202381D01*
X130342858Y-95202381D01*
X130485715Y-95250000D01*
X130533334Y-95297619D01*
X130866667Y-95202381D02*
X131485715Y-95202381D01*
X131152381Y-95583333D01*
X131295239Y-95583333D01*
X131390477Y-95630952D01*
X131438096Y-95678571D01*
X131485715Y-95773810D01*
X131485715Y-96011905D01*
X131438096Y-96107143D01*
X131390477Y-96154762D01*
X131295239Y-96202381D01*
X131009524Y-96202381D01*
X130914286Y-96154762D01*
X130866667Y-96107143D01*
X130533334Y-106807143D02*
X130485715Y-106854762D01*
X130342858Y-106902381D01*
X130247620Y-106902381D01*
X130104762Y-106854762D01*
X130009524Y-106759524D01*
X129961905Y-106664286D01*
X129914286Y-106473810D01*
X129914286Y-106330952D01*
X129961905Y-106140476D01*
X130009524Y-106045238D01*
X130104762Y-105950000D01*
X130247620Y-105902381D01*
X130342858Y-105902381D01*
X130485715Y-105950000D01*
X130533334Y-105997619D01*
X131390477Y-106235714D02*
X131390477Y-106902381D01*
X131152381Y-105854762D02*
X130914286Y-106569048D01*
X131533334Y-106569048D01*
X136583334Y-96157143D02*
X136535715Y-96204762D01*
X136392858Y-96252381D01*
X136297620Y-96252381D01*
X136154762Y-96204762D01*
X136059524Y-96109524D01*
X136011905Y-96014286D01*
X135964286Y-95823810D01*
X135964286Y-95680952D01*
X136011905Y-95490476D01*
X136059524Y-95395238D01*
X136154762Y-95300000D01*
X136297620Y-95252381D01*
X136392858Y-95252381D01*
X136535715Y-95300000D01*
X136583334Y-95347619D01*
X137488096Y-95252381D02*
X137011905Y-95252381D01*
X136964286Y-95728571D01*
X137011905Y-95680952D01*
X137107143Y-95633333D01*
X137345239Y-95633333D01*
X137440477Y-95680952D01*
X137488096Y-95728571D01*
X137535715Y-95823810D01*
X137535715Y-96061905D01*
X137488096Y-96157143D01*
X137440477Y-96204762D01*
X137345239Y-96252381D01*
X137107143Y-96252381D01*
X137011905Y-96204762D01*
X136964286Y-96157143D01*
X140833334Y-96157143D02*
X140785715Y-96204762D01*
X140642858Y-96252381D01*
X140547620Y-96252381D01*
X140404762Y-96204762D01*
X140309524Y-96109524D01*
X140261905Y-96014286D01*
X140214286Y-95823810D01*
X140214286Y-95680952D01*
X140261905Y-95490476D01*
X140309524Y-95395238D01*
X140404762Y-95300000D01*
X140547620Y-95252381D01*
X140642858Y-95252381D01*
X140785715Y-95300000D01*
X140833334Y-95347619D01*
X141690477Y-95252381D02*
X141500000Y-95252381D01*
X141404762Y-95300000D01*
X141357143Y-95347619D01*
X141261905Y-95490476D01*
X141214286Y-95680952D01*
X141214286Y-96061905D01*
X141261905Y-96157143D01*
X141309524Y-96204762D01*
X141404762Y-96252381D01*
X141595239Y-96252381D01*
X141690477Y-96204762D01*
X141738096Y-96157143D01*
X141785715Y-96061905D01*
X141785715Y-95823810D01*
X141738096Y-95728571D01*
X141690477Y-95680952D01*
X141595239Y-95633333D01*
X141404762Y-95633333D01*
X141309524Y-95680952D01*
X141261905Y-95728571D01*
X141214286Y-95823810D01*
X140483334Y-113407143D02*
X140435715Y-113454762D01*
X140292858Y-113502381D01*
X140197620Y-113502381D01*
X140054762Y-113454762D01*
X139959524Y-113359524D01*
X139911905Y-113264286D01*
X139864286Y-113073810D01*
X139864286Y-112930952D01*
X139911905Y-112740476D01*
X139959524Y-112645238D01*
X140054762Y-112550000D01*
X140197620Y-112502381D01*
X140292858Y-112502381D01*
X140435715Y-112550000D01*
X140483334Y-112597619D01*
X140816667Y-112502381D02*
X141483334Y-112502381D01*
X141054762Y-113502381D01*
X151033334Y-99757143D02*
X150985715Y-99804762D01*
X150842858Y-99852381D01*
X150747620Y-99852381D01*
X150604762Y-99804762D01*
X150509524Y-99709524D01*
X150461905Y-99614286D01*
X150414286Y-99423810D01*
X150414286Y-99280952D01*
X150461905Y-99090476D01*
X150509524Y-98995238D01*
X150604762Y-98900000D01*
X150747620Y-98852381D01*
X150842858Y-98852381D01*
X150985715Y-98900000D01*
X151033334Y-98947619D01*
X151604762Y-99280952D02*
X151509524Y-99233333D01*
X151461905Y-99185714D01*
X151414286Y-99090476D01*
X151414286Y-99042857D01*
X151461905Y-98947619D01*
X151509524Y-98900000D01*
X151604762Y-98852381D01*
X151795239Y-98852381D01*
X151890477Y-98900000D01*
X151938096Y-98947619D01*
X151985715Y-99042857D01*
X151985715Y-99090476D01*
X151938096Y-99185714D01*
X151890477Y-99233333D01*
X151795239Y-99280952D01*
X151604762Y-99280952D01*
X151509524Y-99328571D01*
X151461905Y-99376190D01*
X151414286Y-99471429D01*
X151414286Y-99661905D01*
X151461905Y-99757143D01*
X151509524Y-99804762D01*
X151604762Y-99852381D01*
X151795239Y-99852381D01*
X151890477Y-99804762D01*
X151938096Y-99757143D01*
X151985715Y-99661905D01*
X151985715Y-99471429D01*
X151938096Y-99376190D01*
X151890477Y-99328571D01*
X151795239Y-99280952D01*
X159033334Y-94007143D02*
X158985715Y-94054762D01*
X158842858Y-94102381D01*
X158747620Y-94102381D01*
X158604762Y-94054762D01*
X158509524Y-93959524D01*
X158461905Y-93864286D01*
X158414286Y-93673810D01*
X158414286Y-93530952D01*
X158461905Y-93340476D01*
X158509524Y-93245238D01*
X158604762Y-93150000D01*
X158747620Y-93102381D01*
X158842858Y-93102381D01*
X158985715Y-93150000D01*
X159033334Y-93197619D01*
X159509524Y-94102381D02*
X159700000Y-94102381D01*
X159795239Y-94054762D01*
X159842858Y-94007143D01*
X159938096Y-93864286D01*
X159985715Y-93673810D01*
X159985715Y-93292857D01*
X159938096Y-93197619D01*
X159890477Y-93150000D01*
X159795239Y-93102381D01*
X159604762Y-93102381D01*
X159509524Y-93150000D01*
X159461905Y-93197619D01*
X159414286Y-93292857D01*
X159414286Y-93530952D01*
X159461905Y-93626190D01*
X159509524Y-93673810D01*
X159604762Y-93721429D01*
X159795239Y-93721429D01*
X159890477Y-93673810D01*
X159938096Y-93626190D01*
X159985715Y-93530952D01*
X158557143Y-88507143D02*
X158509524Y-88554762D01*
X158366667Y-88602381D01*
X158271429Y-88602381D01*
X158128571Y-88554762D01*
X158033333Y-88459524D01*
X157985714Y-88364286D01*
X157938095Y-88173810D01*
X157938095Y-88030952D01*
X157985714Y-87840476D01*
X158033333Y-87745238D01*
X158128571Y-87650000D01*
X158271429Y-87602381D01*
X158366667Y-87602381D01*
X158509524Y-87650000D01*
X158557143Y-87697619D01*
X159509524Y-88602381D02*
X158938095Y-88602381D01*
X159223809Y-88602381D02*
X159223809Y-87602381D01*
X159128571Y-87745238D01*
X159033333Y-87840476D01*
X158938095Y-87888095D01*
X160128571Y-87602381D02*
X160223810Y-87602381D01*
X160319048Y-87650000D01*
X160366667Y-87697619D01*
X160414286Y-87792857D01*
X160461905Y-87983333D01*
X160461905Y-88221429D01*
X160414286Y-88411905D01*
X160366667Y-88507143D01*
X160319048Y-88554762D01*
X160223810Y-88602381D01*
X160128571Y-88602381D01*
X160033333Y-88554762D01*
X159985714Y-88507143D01*
X159938095Y-88411905D01*
X159890476Y-88221429D01*
X159890476Y-87983333D01*
X159938095Y-87792857D01*
X159985714Y-87697619D01*
X160033333Y-87650000D01*
X160128571Y-87602381D01*
X158557143Y-99307143D02*
X158509524Y-99354762D01*
X158366667Y-99402381D01*
X158271429Y-99402381D01*
X158128571Y-99354762D01*
X158033333Y-99259524D01*
X157985714Y-99164286D01*
X157938095Y-98973810D01*
X157938095Y-98830952D01*
X157985714Y-98640476D01*
X158033333Y-98545238D01*
X158128571Y-98450000D01*
X158271429Y-98402381D01*
X158366667Y-98402381D01*
X158509524Y-98450000D01*
X158557143Y-98497619D01*
X159509524Y-99402381D02*
X158938095Y-99402381D01*
X159223809Y-99402381D02*
X159223809Y-98402381D01*
X159128571Y-98545238D01*
X159033333Y-98640476D01*
X158938095Y-98688095D01*
X160461905Y-99402381D02*
X159890476Y-99402381D01*
X160176190Y-99402381D02*
X160176190Y-98402381D01*
X160080952Y-98545238D01*
X159985714Y-98640476D01*
X159890476Y-98688095D01*
X195707143Y-67457143D02*
X195659524Y-67504762D01*
X195516667Y-67552381D01*
X195421429Y-67552381D01*
X195278571Y-67504762D01*
X195183333Y-67409524D01*
X195135714Y-67314286D01*
X195088095Y-67123810D01*
X195088095Y-66980952D01*
X195135714Y-66790476D01*
X195183333Y-66695238D01*
X195278571Y-66600000D01*
X195421429Y-66552381D01*
X195516667Y-66552381D01*
X195659524Y-66600000D01*
X195707143Y-66647619D01*
X196659524Y-67552381D02*
X196088095Y-67552381D01*
X196373809Y-67552381D02*
X196373809Y-66552381D01*
X196278571Y-66695238D01*
X196183333Y-66790476D01*
X196088095Y-66838095D01*
X197040476Y-66647619D02*
X197088095Y-66600000D01*
X197183333Y-66552381D01*
X197421429Y-66552381D01*
X197516667Y-66600000D01*
X197564286Y-66647619D01*
X197611905Y-66742857D01*
X197611905Y-66838095D01*
X197564286Y-66980952D01*
X196992857Y-67552381D01*
X197611905Y-67552381D01*
X158557143Y-104607143D02*
X158509524Y-104654762D01*
X158366667Y-104702381D01*
X158271429Y-104702381D01*
X158128571Y-104654762D01*
X158033333Y-104559524D01*
X157985714Y-104464286D01*
X157938095Y-104273810D01*
X157938095Y-104130952D01*
X157985714Y-103940476D01*
X158033333Y-103845238D01*
X158128571Y-103750000D01*
X158271429Y-103702381D01*
X158366667Y-103702381D01*
X158509524Y-103750000D01*
X158557143Y-103797619D01*
X159509524Y-104702381D02*
X158938095Y-104702381D01*
X159223809Y-104702381D02*
X159223809Y-103702381D01*
X159128571Y-103845238D01*
X159033333Y-103940476D01*
X158938095Y-103988095D01*
X159842857Y-103702381D02*
X160461905Y-103702381D01*
X160128571Y-104083333D01*
X160271429Y-104083333D01*
X160366667Y-104130952D01*
X160414286Y-104178571D01*
X160461905Y-104273810D01*
X160461905Y-104511905D01*
X160414286Y-104607143D01*
X160366667Y-104654762D01*
X160271429Y-104702381D01*
X159985714Y-104702381D01*
X159890476Y-104654762D01*
X159842857Y-104607143D01*
X192007143Y-102357143D02*
X191959524Y-102404762D01*
X191816667Y-102452381D01*
X191721429Y-102452381D01*
X191578571Y-102404762D01*
X191483333Y-102309524D01*
X191435714Y-102214286D01*
X191388095Y-102023810D01*
X191388095Y-101880952D01*
X191435714Y-101690476D01*
X191483333Y-101595238D01*
X191578571Y-101500000D01*
X191721429Y-101452381D01*
X191816667Y-101452381D01*
X191959524Y-101500000D01*
X192007143Y-101547619D01*
X192959524Y-102452381D02*
X192388095Y-102452381D01*
X192673809Y-102452381D02*
X192673809Y-101452381D01*
X192578571Y-101595238D01*
X192483333Y-101690476D01*
X192388095Y-101738095D01*
X193816667Y-101785714D02*
X193816667Y-102452381D01*
X193578571Y-101404762D02*
X193340476Y-102119048D01*
X193959524Y-102119048D01*
X192007143Y-96907143D02*
X191959524Y-96954762D01*
X191816667Y-97002381D01*
X191721429Y-97002381D01*
X191578571Y-96954762D01*
X191483333Y-96859524D01*
X191435714Y-96764286D01*
X191388095Y-96573810D01*
X191388095Y-96430952D01*
X191435714Y-96240476D01*
X191483333Y-96145238D01*
X191578571Y-96050000D01*
X191721429Y-96002381D01*
X191816667Y-96002381D01*
X191959524Y-96050000D01*
X192007143Y-96097619D01*
X192959524Y-97002381D02*
X192388095Y-97002381D01*
X192673809Y-97002381D02*
X192673809Y-96002381D01*
X192578571Y-96145238D01*
X192483333Y-96240476D01*
X192388095Y-96288095D01*
X193864286Y-96002381D02*
X193388095Y-96002381D01*
X193340476Y-96478571D01*
X193388095Y-96430952D01*
X193483333Y-96383333D01*
X193721429Y-96383333D01*
X193816667Y-96430952D01*
X193864286Y-96478571D01*
X193911905Y-96573810D01*
X193911905Y-96811905D01*
X193864286Y-96907143D01*
X193816667Y-96954762D01*
X193721429Y-97002381D01*
X193483333Y-97002381D01*
X193388095Y-96954762D01*
X193340476Y-96907143D01*
X149757143Y-91057143D02*
X149709524Y-91104762D01*
X149566667Y-91152381D01*
X149471429Y-91152381D01*
X149328571Y-91104762D01*
X149233333Y-91009524D01*
X149185714Y-90914286D01*
X149138095Y-90723810D01*
X149138095Y-90580952D01*
X149185714Y-90390476D01*
X149233333Y-90295238D01*
X149328571Y-90200000D01*
X149471429Y-90152381D01*
X149566667Y-90152381D01*
X149709524Y-90200000D01*
X149757143Y-90247619D01*
X150709524Y-91152381D02*
X150138095Y-91152381D01*
X150423809Y-91152381D02*
X150423809Y-90152381D01*
X150328571Y-90295238D01*
X150233333Y-90390476D01*
X150138095Y-90438095D01*
X151566667Y-90152381D02*
X151376190Y-90152381D01*
X151280952Y-90200000D01*
X151233333Y-90247619D01*
X151138095Y-90390476D01*
X151090476Y-90580952D01*
X151090476Y-90961905D01*
X151138095Y-91057143D01*
X151185714Y-91104762D01*
X151280952Y-91152381D01*
X151471429Y-91152381D01*
X151566667Y-91104762D01*
X151614286Y-91057143D01*
X151661905Y-90961905D01*
X151661905Y-90723810D01*
X151614286Y-90628571D01*
X151566667Y-90580952D01*
X151471429Y-90533333D01*
X151280952Y-90533333D01*
X151185714Y-90580952D01*
X151138095Y-90628571D01*
X151090476Y-90723810D01*
X169357143Y-65207143D02*
X169309524Y-65254762D01*
X169166667Y-65302381D01*
X169071429Y-65302381D01*
X168928571Y-65254762D01*
X168833333Y-65159524D01*
X168785714Y-65064286D01*
X168738095Y-64873810D01*
X168738095Y-64730952D01*
X168785714Y-64540476D01*
X168833333Y-64445238D01*
X168928571Y-64350000D01*
X169071429Y-64302381D01*
X169166667Y-64302381D01*
X169309524Y-64350000D01*
X169357143Y-64397619D01*
X170309524Y-65302381D02*
X169738095Y-65302381D01*
X170023809Y-65302381D02*
X170023809Y-64302381D01*
X169928571Y-64445238D01*
X169833333Y-64540476D01*
X169738095Y-64588095D01*
X170642857Y-64302381D02*
X171309524Y-64302381D01*
X170880952Y-65302381D01*
X146857143Y-69507143D02*
X146809524Y-69554762D01*
X146666667Y-69602381D01*
X146571429Y-69602381D01*
X146428571Y-69554762D01*
X146333333Y-69459524D01*
X146285714Y-69364286D01*
X146238095Y-69173810D01*
X146238095Y-69030952D01*
X146285714Y-68840476D01*
X146333333Y-68745238D01*
X146428571Y-68650000D01*
X146571429Y-68602381D01*
X146666667Y-68602381D01*
X146809524Y-68650000D01*
X146857143Y-68697619D01*
X147809524Y-69602381D02*
X147238095Y-69602381D01*
X147523809Y-69602381D02*
X147523809Y-68602381D01*
X147428571Y-68745238D01*
X147333333Y-68840476D01*
X147238095Y-68888095D01*
X148380952Y-69030952D02*
X148285714Y-68983333D01*
X148238095Y-68935714D01*
X148190476Y-68840476D01*
X148190476Y-68792857D01*
X148238095Y-68697619D01*
X148285714Y-68650000D01*
X148380952Y-68602381D01*
X148571429Y-68602381D01*
X148666667Y-68650000D01*
X148714286Y-68697619D01*
X148761905Y-68792857D01*
X148761905Y-68840476D01*
X148714286Y-68935714D01*
X148666667Y-68983333D01*
X148571429Y-69030952D01*
X148380952Y-69030952D01*
X148285714Y-69078571D01*
X148238095Y-69126190D01*
X148190476Y-69221429D01*
X148190476Y-69411905D01*
X148238095Y-69507143D01*
X148285714Y-69554762D01*
X148380952Y-69602381D01*
X148571429Y-69602381D01*
X148666667Y-69554762D01*
X148714286Y-69507143D01*
X148761905Y-69411905D01*
X148761905Y-69221429D01*
X148714286Y-69126190D01*
X148666667Y-69078571D01*
X148571429Y-69030952D01*
X94357143Y-119557143D02*
X94309524Y-119604762D01*
X94166667Y-119652381D01*
X94071429Y-119652381D01*
X93928571Y-119604762D01*
X93833333Y-119509524D01*
X93785714Y-119414286D01*
X93738095Y-119223810D01*
X93738095Y-119080952D01*
X93785714Y-118890476D01*
X93833333Y-118795238D01*
X93928571Y-118700000D01*
X94071429Y-118652381D01*
X94166667Y-118652381D01*
X94309524Y-118700000D01*
X94357143Y-118747619D01*
X95309524Y-119652381D02*
X94738095Y-119652381D01*
X95023809Y-119652381D02*
X95023809Y-118652381D01*
X94928571Y-118795238D01*
X94833333Y-118890476D01*
X94738095Y-118938095D01*
X95785714Y-119652381D02*
X95976190Y-119652381D01*
X96071429Y-119604762D01*
X96119048Y-119557143D01*
X96214286Y-119414286D01*
X96261905Y-119223810D01*
X96261905Y-118842857D01*
X96214286Y-118747619D01*
X96166667Y-118700000D01*
X96071429Y-118652381D01*
X95880952Y-118652381D01*
X95785714Y-118700000D01*
X95738095Y-118747619D01*
X95690476Y-118842857D01*
X95690476Y-119080952D01*
X95738095Y-119176190D01*
X95785714Y-119223810D01*
X95880952Y-119271429D01*
X96071429Y-119271429D01*
X96166667Y-119223810D01*
X96214286Y-119176190D01*
X96261905Y-119080952D01*
X103407143Y-118557143D02*
X103359524Y-118604762D01*
X103216667Y-118652381D01*
X103121429Y-118652381D01*
X102978571Y-118604762D01*
X102883333Y-118509524D01*
X102835714Y-118414286D01*
X102788095Y-118223810D01*
X102788095Y-118080952D01*
X102835714Y-117890476D01*
X102883333Y-117795238D01*
X102978571Y-117700000D01*
X103121429Y-117652381D01*
X103216667Y-117652381D01*
X103359524Y-117700000D01*
X103407143Y-117747619D01*
X103788095Y-117747619D02*
X103835714Y-117700000D01*
X103930952Y-117652381D01*
X104169048Y-117652381D01*
X104264286Y-117700000D01*
X104311905Y-117747619D01*
X104359524Y-117842857D01*
X104359524Y-117938095D01*
X104311905Y-118080952D01*
X103740476Y-118652381D01*
X104359524Y-118652381D01*
X104978571Y-117652381D02*
X105073810Y-117652381D01*
X105169048Y-117700000D01*
X105216667Y-117747619D01*
X105264286Y-117842857D01*
X105311905Y-118033333D01*
X105311905Y-118271429D01*
X105264286Y-118461905D01*
X105216667Y-118557143D01*
X105169048Y-118604762D01*
X105073810Y-118652381D01*
X104978571Y-118652381D01*
X104883333Y-118604762D01*
X104835714Y-118557143D01*
X104788095Y-118461905D01*
X104740476Y-118271429D01*
X104740476Y-118033333D01*
X104788095Y-117842857D01*
X104835714Y-117747619D01*
X104883333Y-117700000D01*
X104978571Y-117652381D01*
X114657143Y-115357143D02*
X114609524Y-115404762D01*
X114466667Y-115452381D01*
X114371429Y-115452381D01*
X114228571Y-115404762D01*
X114133333Y-115309524D01*
X114085714Y-115214286D01*
X114038095Y-115023810D01*
X114038095Y-114880952D01*
X114085714Y-114690476D01*
X114133333Y-114595238D01*
X114228571Y-114500000D01*
X114371429Y-114452381D01*
X114466667Y-114452381D01*
X114609524Y-114500000D01*
X114657143Y-114547619D01*
X115038095Y-114547619D02*
X115085714Y-114500000D01*
X115180952Y-114452381D01*
X115419048Y-114452381D01*
X115514286Y-114500000D01*
X115561905Y-114547619D01*
X115609524Y-114642857D01*
X115609524Y-114738095D01*
X115561905Y-114880952D01*
X114990476Y-115452381D01*
X115609524Y-115452381D01*
X116561905Y-115452381D02*
X115990476Y-115452381D01*
X116276190Y-115452381D02*
X116276190Y-114452381D01*
X116180952Y-114595238D01*
X116085714Y-114690476D01*
X115990476Y-114738095D01*
X107307143Y-109907143D02*
X107259524Y-109954762D01*
X107116667Y-110002381D01*
X107021429Y-110002381D01*
X106878571Y-109954762D01*
X106783333Y-109859524D01*
X106735714Y-109764286D01*
X106688095Y-109573810D01*
X106688095Y-109430952D01*
X106735714Y-109240476D01*
X106783333Y-109145238D01*
X106878571Y-109050000D01*
X107021429Y-109002381D01*
X107116667Y-109002381D01*
X107259524Y-109050000D01*
X107307143Y-109097619D01*
X107688095Y-109097619D02*
X107735714Y-109050000D01*
X107830952Y-109002381D01*
X108069048Y-109002381D01*
X108164286Y-109050000D01*
X108211905Y-109097619D01*
X108259524Y-109192857D01*
X108259524Y-109288095D01*
X108211905Y-109430952D01*
X107640476Y-110002381D01*
X108259524Y-110002381D01*
X108640476Y-109097619D02*
X108688095Y-109050000D01*
X108783333Y-109002381D01*
X109021429Y-109002381D01*
X109116667Y-109050000D01*
X109164286Y-109097619D01*
X109211905Y-109192857D01*
X109211905Y-109288095D01*
X109164286Y-109430952D01*
X108592857Y-110002381D01*
X109211905Y-110002381D01*
X95157143Y-96507143D02*
X95109524Y-96554762D01*
X94966667Y-96602381D01*
X94871429Y-96602381D01*
X94728571Y-96554762D01*
X94633333Y-96459524D01*
X94585714Y-96364286D01*
X94538095Y-96173810D01*
X94538095Y-96030952D01*
X94585714Y-95840476D01*
X94633333Y-95745238D01*
X94728571Y-95650000D01*
X94871429Y-95602381D01*
X94966667Y-95602381D01*
X95109524Y-95650000D01*
X95157143Y-95697619D01*
X95538095Y-95697619D02*
X95585714Y-95650000D01*
X95680952Y-95602381D01*
X95919048Y-95602381D01*
X96014286Y-95650000D01*
X96061905Y-95697619D01*
X96109524Y-95792857D01*
X96109524Y-95888095D01*
X96061905Y-96030952D01*
X95490476Y-96602381D01*
X96109524Y-96602381D01*
X96442857Y-95602381D02*
X97061905Y-95602381D01*
X96728571Y-95983333D01*
X96871429Y-95983333D01*
X96966667Y-96030952D01*
X97014286Y-96078571D01*
X97061905Y-96173810D01*
X97061905Y-96411905D01*
X97014286Y-96507143D01*
X96966667Y-96554762D01*
X96871429Y-96602381D01*
X96585714Y-96602381D01*
X96490476Y-96554762D01*
X96442857Y-96507143D01*
X110307143Y-101307143D02*
X110259524Y-101354762D01*
X110116667Y-101402381D01*
X110021429Y-101402381D01*
X109878571Y-101354762D01*
X109783333Y-101259524D01*
X109735714Y-101164286D01*
X109688095Y-100973810D01*
X109688095Y-100830952D01*
X109735714Y-100640476D01*
X109783333Y-100545238D01*
X109878571Y-100450000D01*
X110021429Y-100402381D01*
X110116667Y-100402381D01*
X110259524Y-100450000D01*
X110307143Y-100497619D01*
X110688095Y-100497619D02*
X110735714Y-100450000D01*
X110830952Y-100402381D01*
X111069048Y-100402381D01*
X111164286Y-100450000D01*
X111211905Y-100497619D01*
X111259524Y-100592857D01*
X111259524Y-100688095D01*
X111211905Y-100830952D01*
X110640476Y-101402381D01*
X111259524Y-101402381D01*
X112116667Y-100735714D02*
X112116667Y-101402381D01*
X111878571Y-100354762D02*
X111640476Y-101069048D01*
X112259524Y-101069048D01*
X91057143Y-100007143D02*
X91009524Y-100054762D01*
X90866667Y-100102381D01*
X90771429Y-100102381D01*
X90628571Y-100054762D01*
X90533333Y-99959524D01*
X90485714Y-99864286D01*
X90438095Y-99673810D01*
X90438095Y-99530952D01*
X90485714Y-99340476D01*
X90533333Y-99245238D01*
X90628571Y-99150000D01*
X90771429Y-99102381D01*
X90866667Y-99102381D01*
X91009524Y-99150000D01*
X91057143Y-99197619D01*
X91438095Y-99197619D02*
X91485714Y-99150000D01*
X91580952Y-99102381D01*
X91819048Y-99102381D01*
X91914286Y-99150000D01*
X91961905Y-99197619D01*
X92009524Y-99292857D01*
X92009524Y-99388095D01*
X91961905Y-99530952D01*
X91390476Y-100102381D01*
X92009524Y-100102381D01*
X92914286Y-99102381D02*
X92438095Y-99102381D01*
X92390476Y-99578571D01*
X92438095Y-99530952D01*
X92533333Y-99483333D01*
X92771429Y-99483333D01*
X92866667Y-99530952D01*
X92914286Y-99578571D01*
X92961905Y-99673810D01*
X92961905Y-99911905D01*
X92914286Y-100007143D01*
X92866667Y-100054762D01*
X92771429Y-100102381D01*
X92533333Y-100102381D01*
X92438095Y-100054762D01*
X92390476Y-100007143D01*
X98957143Y-96507143D02*
X98909524Y-96554762D01*
X98766667Y-96602381D01*
X98671429Y-96602381D01*
X98528571Y-96554762D01*
X98433333Y-96459524D01*
X98385714Y-96364286D01*
X98338095Y-96173810D01*
X98338095Y-96030952D01*
X98385714Y-95840476D01*
X98433333Y-95745238D01*
X98528571Y-95650000D01*
X98671429Y-95602381D01*
X98766667Y-95602381D01*
X98909524Y-95650000D01*
X98957143Y-95697619D01*
X99338095Y-95697619D02*
X99385714Y-95650000D01*
X99480952Y-95602381D01*
X99719048Y-95602381D01*
X99814286Y-95650000D01*
X99861905Y-95697619D01*
X99909524Y-95792857D01*
X99909524Y-95888095D01*
X99861905Y-96030952D01*
X99290476Y-96602381D01*
X99909524Y-96602381D01*
X100766667Y-95602381D02*
X100576190Y-95602381D01*
X100480952Y-95650000D01*
X100433333Y-95697619D01*
X100338095Y-95840476D01*
X100290476Y-96030952D01*
X100290476Y-96411905D01*
X100338095Y-96507143D01*
X100385714Y-96554762D01*
X100480952Y-96602381D01*
X100671429Y-96602381D01*
X100766667Y-96554762D01*
X100814286Y-96507143D01*
X100861905Y-96411905D01*
X100861905Y-96173810D01*
X100814286Y-96078571D01*
X100766667Y-96030952D01*
X100671429Y-95983333D01*
X100480952Y-95983333D01*
X100385714Y-96030952D01*
X100338095Y-96078571D01*
X100290476Y-96173810D01*
X90757143Y-109507143D02*
X90709524Y-109554762D01*
X90566667Y-109602381D01*
X90471429Y-109602381D01*
X90328571Y-109554762D01*
X90233333Y-109459524D01*
X90185714Y-109364286D01*
X90138095Y-109173810D01*
X90138095Y-109030952D01*
X90185714Y-108840476D01*
X90233333Y-108745238D01*
X90328571Y-108650000D01*
X90471429Y-108602381D01*
X90566667Y-108602381D01*
X90709524Y-108650000D01*
X90757143Y-108697619D01*
X91138095Y-108697619D02*
X91185714Y-108650000D01*
X91280952Y-108602381D01*
X91519048Y-108602381D01*
X91614286Y-108650000D01*
X91661905Y-108697619D01*
X91709524Y-108792857D01*
X91709524Y-108888095D01*
X91661905Y-109030952D01*
X91090476Y-109602381D01*
X91709524Y-109602381D01*
X92042857Y-108602381D02*
X92709524Y-108602381D01*
X92280952Y-109602381D01*
X101607143Y-90157143D02*
X101559524Y-90204762D01*
X101416667Y-90252381D01*
X101321429Y-90252381D01*
X101178571Y-90204762D01*
X101083333Y-90109524D01*
X101035714Y-90014286D01*
X100988095Y-89823810D01*
X100988095Y-89680952D01*
X101035714Y-89490476D01*
X101083333Y-89395238D01*
X101178571Y-89300000D01*
X101321429Y-89252381D01*
X101416667Y-89252381D01*
X101559524Y-89300000D01*
X101607143Y-89347619D01*
X101988095Y-89347619D02*
X102035714Y-89300000D01*
X102130952Y-89252381D01*
X102369048Y-89252381D01*
X102464286Y-89300000D01*
X102511905Y-89347619D01*
X102559524Y-89442857D01*
X102559524Y-89538095D01*
X102511905Y-89680952D01*
X101940476Y-90252381D01*
X102559524Y-90252381D01*
X103130952Y-89680952D02*
X103035714Y-89633333D01*
X102988095Y-89585714D01*
X102940476Y-89490476D01*
X102940476Y-89442857D01*
X102988095Y-89347619D01*
X103035714Y-89300000D01*
X103130952Y-89252381D01*
X103321429Y-89252381D01*
X103416667Y-89300000D01*
X103464286Y-89347619D01*
X103511905Y-89442857D01*
X103511905Y-89490476D01*
X103464286Y-89585714D01*
X103416667Y-89633333D01*
X103321429Y-89680952D01*
X103130952Y-89680952D01*
X103035714Y-89728571D01*
X102988095Y-89776190D01*
X102940476Y-89871429D01*
X102940476Y-90061905D01*
X102988095Y-90157143D01*
X103035714Y-90204762D01*
X103130952Y-90252381D01*
X103321429Y-90252381D01*
X103416667Y-90204762D01*
X103464286Y-90157143D01*
X103511905Y-90061905D01*
X103511905Y-89871429D01*
X103464286Y-89776190D01*
X103416667Y-89728571D01*
X103321429Y-89680952D01*
X163761905Y-74252381D02*
X163761905Y-73252381D01*
X164000000Y-73252381D01*
X164142858Y-73300000D01*
X164238096Y-73395238D01*
X164285715Y-73490476D01*
X164333334Y-73680952D01*
X164333334Y-73823810D01*
X164285715Y-74014286D01*
X164238096Y-74109524D01*
X164142858Y-74204762D01*
X164000000Y-74252381D01*
X163761905Y-74252381D01*
X165190477Y-73585714D02*
X165190477Y-74252381D01*
X164952381Y-73204762D02*
X164714286Y-73919048D01*
X165333334Y-73919048D01*
X117016667Y-50592857D02*
X117016667Y-51450000D01*
X116969047Y-51621429D01*
X116873809Y-51735714D01*
X116730952Y-51792857D01*
X116635714Y-51792857D01*
X117445238Y-50707143D02*
X117492857Y-50650000D01*
X117588095Y-50592857D01*
X117826191Y-50592857D01*
X117921429Y-50650000D01*
X117969048Y-50707143D01*
X118016667Y-50821429D01*
X118016667Y-50935714D01*
X117969048Y-51107143D01*
X117397619Y-51792857D01*
X118016667Y-51792857D01*
D15*
X178866667Y-50592857D02*
X178866667Y-51450000D01*
X178819047Y-51621429D01*
X178723809Y-51735714D01*
X178580952Y-51792857D01*
X178485714Y-51792857D01*
X179247619Y-50592857D02*
X179866667Y-50592857D01*
X179533333Y-51050000D01*
X179676191Y-51050000D01*
X179771429Y-51107143D01*
X179819048Y-51164286D01*
X179866667Y-51278571D01*
X179866667Y-51564286D01*
X179819048Y-51678571D01*
X179771429Y-51735714D01*
X179676191Y-51792857D01*
X179390476Y-51792857D01*
X179295238Y-51735714D01*
X179247619Y-51678571D01*
X158766667Y-50692857D02*
X158766667Y-51550000D01*
X158719047Y-51721429D01*
X158623809Y-51835714D01*
X158480952Y-51892857D01*
X158385714Y-51892857D01*
X159671429Y-51092857D02*
X159671429Y-51892857D01*
X159433333Y-50635714D02*
X159195238Y-51492857D01*
X159814286Y-51492857D01*
X88316667Y-50592857D02*
X88316667Y-51450000D01*
X88269047Y-51621429D01*
X88173809Y-51735714D01*
X88030952Y-51792857D01*
X87935714Y-51792857D01*
X89269048Y-50592857D02*
X88792857Y-50592857D01*
X88745238Y-51164286D01*
X88792857Y-51107143D01*
X88888095Y-51050000D01*
X89126191Y-51050000D01*
X89221429Y-51107143D01*
X89269048Y-51164286D01*
X89316667Y-51278571D01*
X89316667Y-51564286D01*
X89269048Y-51678571D01*
X89221429Y-51735714D01*
X89126191Y-51792857D01*
X88888095Y-51792857D01*
X88792857Y-51735714D01*
X88745238Y-51678571D01*
D12*
X130483334Y-110702381D02*
X130007143Y-110702381D01*
X130007143Y-109702381D01*
X131340477Y-110702381D02*
X130769048Y-110702381D01*
X131054762Y-110702381D02*
X131054762Y-109702381D01*
X130959524Y-109845238D01*
X130864286Y-109940476D01*
X130769048Y-109988095D01*
D11*
X83628571Y-80278571D02*
X83628571Y-78778571D01*
X84028571Y-79850000D01*
X84428571Y-78778571D01*
X84428571Y-80278571D01*
X85628572Y-80278571D02*
X84942857Y-80278571D01*
X85285715Y-80278571D02*
X85285715Y-78778571D01*
X85171429Y-78992857D01*
X85057143Y-79135714D01*
X84942857Y-79207143D01*
D12*
X132038095Y-73252381D02*
X132609524Y-73252381D01*
X132323809Y-74252381D02*
X132323809Y-73252381D01*
X132942857Y-74252381D02*
X132942857Y-73252381D01*
X133323810Y-73252381D01*
X133419048Y-73300000D01*
X133466667Y-73347619D01*
X133514286Y-73442857D01*
X133514286Y-73585714D01*
X133466667Y-73680952D01*
X133419048Y-73728571D01*
X133323810Y-73776190D01*
X132942857Y-73776190D01*
X134466667Y-74252381D02*
X133895238Y-74252381D01*
X134180952Y-74252381D02*
X134180952Y-73252381D01*
X134085714Y-73395238D01*
X133990476Y-73490476D01*
X133895238Y-73538095D01*
X135638095Y-73252381D02*
X136209524Y-73252381D01*
X135923809Y-74252381D02*
X135923809Y-73252381D01*
X136542857Y-74252381D02*
X136542857Y-73252381D01*
X136923810Y-73252381D01*
X137019048Y-73300000D01*
X137066667Y-73347619D01*
X137114286Y-73442857D01*
X137114286Y-73585714D01*
X137066667Y-73680952D01*
X137019048Y-73728571D01*
X136923810Y-73776190D01*
X136542857Y-73776190D01*
X137495238Y-73347619D02*
X137542857Y-73300000D01*
X137638095Y-73252381D01*
X137876191Y-73252381D01*
X137971429Y-73300000D01*
X138019048Y-73347619D01*
X138066667Y-73442857D01*
X138066667Y-73538095D01*
X138019048Y-73680952D01*
X137447619Y-74252381D01*
X138066667Y-74252381D01*
X151304762Y-83397619D02*
X151209524Y-83350000D01*
X151114286Y-83254762D01*
X150971429Y-83111905D01*
X150876190Y-83064286D01*
X150780952Y-83064286D01*
X150828571Y-83302381D02*
X150733333Y-83254762D01*
X150638095Y-83159524D01*
X150590476Y-82969048D01*
X150590476Y-82635714D01*
X150638095Y-82445238D01*
X150733333Y-82350000D01*
X150828571Y-82302381D01*
X151019048Y-82302381D01*
X151114286Y-82350000D01*
X151209524Y-82445238D01*
X151257143Y-82635714D01*
X151257143Y-82969048D01*
X151209524Y-83159524D01*
X151114286Y-83254762D01*
X151019048Y-83302381D01*
X150828571Y-83302381D01*
X152209524Y-83302381D02*
X151638095Y-83302381D01*
X151923809Y-83302381D02*
X151923809Y-82302381D01*
X151828571Y-82445238D01*
X151733333Y-82540476D01*
X151638095Y-82588095D01*
X164404762Y-69047619D02*
X164309524Y-69000000D01*
X164214286Y-68904762D01*
X164071429Y-68761905D01*
X163976190Y-68714286D01*
X163880952Y-68714286D01*
X163928571Y-68952381D02*
X163833333Y-68904762D01*
X163738095Y-68809524D01*
X163690476Y-68619048D01*
X163690476Y-68285714D01*
X163738095Y-68095238D01*
X163833333Y-68000000D01*
X163928571Y-67952381D01*
X164119048Y-67952381D01*
X164214286Y-68000000D01*
X164309524Y-68095238D01*
X164357143Y-68285714D01*
X164357143Y-68619048D01*
X164309524Y-68809524D01*
X164214286Y-68904762D01*
X164119048Y-68952381D01*
X163928571Y-68952381D01*
X164738095Y-68047619D02*
X164785714Y-68000000D01*
X164880952Y-67952381D01*
X165119048Y-67952381D01*
X165214286Y-68000000D01*
X165261905Y-68047619D01*
X165309524Y-68142857D01*
X165309524Y-68238095D01*
X165261905Y-68380952D01*
X164690476Y-68952381D01*
X165309524Y-68952381D01*
X115204762Y-119247619D02*
X115109524Y-119200000D01*
X115014286Y-119104762D01*
X114871429Y-118961905D01*
X114776190Y-118914286D01*
X114680952Y-118914286D01*
X114728571Y-119152381D02*
X114633333Y-119104762D01*
X114538095Y-119009524D01*
X114490476Y-118819048D01*
X114490476Y-118485714D01*
X114538095Y-118295238D01*
X114633333Y-118200000D01*
X114728571Y-118152381D01*
X114919048Y-118152381D01*
X115014286Y-118200000D01*
X115109524Y-118295238D01*
X115157143Y-118485714D01*
X115157143Y-118819048D01*
X115109524Y-119009524D01*
X115014286Y-119104762D01*
X114919048Y-119152381D01*
X114728571Y-119152381D01*
X115490476Y-118152381D02*
X116109524Y-118152381D01*
X115776190Y-118533333D01*
X115919048Y-118533333D01*
X116014286Y-118580952D01*
X116061905Y-118628571D01*
X116109524Y-118723810D01*
X116109524Y-118961905D01*
X116061905Y-119057143D01*
X116014286Y-119104762D01*
X115919048Y-119152381D01*
X115633333Y-119152381D01*
X115538095Y-119104762D01*
X115490476Y-119057143D01*
D20*
X115143762Y-110197619D02*
X115048524Y-110150000D01*
X114953286Y-110054762D01*
X114810429Y-109911905D01*
X114715190Y-109864286D01*
X114619952Y-109864286D01*
X114667571Y-110102381D02*
X114572333Y-110054762D01*
X114477095Y-109959524D01*
X114429476Y-109769048D01*
X114429476Y-109435714D01*
X114477095Y-109245238D01*
X114572333Y-109150000D01*
X114667571Y-109102381D01*
X114858048Y-109102381D01*
X114953286Y-109150000D01*
X115048524Y-109245238D01*
X115096143Y-109435714D01*
X115096143Y-109769048D01*
X115048524Y-109959524D01*
X114953286Y-110054762D01*
X114858048Y-110102381D01*
X114667571Y-110102381D01*
X115953286Y-109435714D02*
X115953286Y-110102381D01*
X115715190Y-109054762D02*
X115477095Y-109769048D01*
X116096143Y-109769048D01*
D12*
X97204762Y-88497439D02*
X97109524Y-88449820D01*
X97014286Y-88354582D01*
X96871429Y-88211725D01*
X96776190Y-88164106D01*
X96680952Y-88164106D01*
X96728571Y-88402201D02*
X96633333Y-88354582D01*
X96538095Y-88259344D01*
X96490476Y-88068868D01*
X96490476Y-87735534D01*
X96538095Y-87545058D01*
X96633333Y-87449820D01*
X96728571Y-87402201D01*
X96919048Y-87402201D01*
X97014286Y-87449820D01*
X97109524Y-87545058D01*
X97157143Y-87735534D01*
X97157143Y-88068868D01*
X97109524Y-88259344D01*
X97014286Y-88354582D01*
X96919048Y-88402201D01*
X96728571Y-88402201D01*
X98061905Y-87402201D02*
X97585714Y-87402201D01*
X97538095Y-87878391D01*
X97585714Y-87830772D01*
X97680952Y-87783153D01*
X97919048Y-87783153D01*
X98014286Y-87830772D01*
X98061905Y-87878391D01*
X98109524Y-87973630D01*
X98109524Y-88211725D01*
X98061905Y-88306963D01*
X98014286Y-88354582D01*
X97919048Y-88402201D01*
X97680952Y-88402201D01*
X97585714Y-88354582D01*
X97538095Y-88306963D01*
X136433334Y-126102381D02*
X136100000Y-125626190D01*
X135861905Y-126102381D02*
X135861905Y-125102381D01*
X136242858Y-125102381D01*
X136338096Y-125150000D01*
X136385715Y-125197619D01*
X136433334Y-125292857D01*
X136433334Y-125435714D01*
X136385715Y-125530952D01*
X136338096Y-125578571D01*
X136242858Y-125626190D01*
X135861905Y-125626190D01*
X137385715Y-126102381D02*
X136814286Y-126102381D01*
X137100000Y-126102381D02*
X137100000Y-125102381D01*
X137004762Y-125245238D01*
X136909524Y-125340476D01*
X136814286Y-125388095D01*
X141683334Y-126102381D02*
X141350000Y-125626190D01*
X141111905Y-126102381D02*
X141111905Y-125102381D01*
X141492858Y-125102381D01*
X141588096Y-125150000D01*
X141635715Y-125197619D01*
X141683334Y-125292857D01*
X141683334Y-125435714D01*
X141635715Y-125530952D01*
X141588096Y-125578571D01*
X141492858Y-125626190D01*
X141111905Y-125626190D01*
X142064286Y-125197619D02*
X142111905Y-125150000D01*
X142207143Y-125102381D01*
X142445239Y-125102381D01*
X142540477Y-125150000D01*
X142588096Y-125197619D01*
X142635715Y-125292857D01*
X142635715Y-125388095D01*
X142588096Y-125530952D01*
X142016667Y-126102381D01*
X142635715Y-126102381D01*
X148683334Y-63202381D02*
X148350000Y-62726190D01*
X148111905Y-63202381D02*
X148111905Y-62202381D01*
X148492858Y-62202381D01*
X148588096Y-62250000D01*
X148635715Y-62297619D01*
X148683334Y-62392857D01*
X148683334Y-62535714D01*
X148635715Y-62630952D01*
X148588096Y-62678571D01*
X148492858Y-62726190D01*
X148111905Y-62726190D01*
X149016667Y-62202381D02*
X149635715Y-62202381D01*
X149302381Y-62583333D01*
X149445239Y-62583333D01*
X149540477Y-62630952D01*
X149588096Y-62678571D01*
X149635715Y-62773810D01*
X149635715Y-63011905D01*
X149588096Y-63107143D01*
X149540477Y-63154762D01*
X149445239Y-63202381D01*
X149159524Y-63202381D01*
X149064286Y-63154762D01*
X149016667Y-63107143D01*
X146883334Y-126102381D02*
X146550000Y-125626190D01*
X146311905Y-126102381D02*
X146311905Y-125102381D01*
X146692858Y-125102381D01*
X146788096Y-125150000D01*
X146835715Y-125197619D01*
X146883334Y-125292857D01*
X146883334Y-125435714D01*
X146835715Y-125530952D01*
X146788096Y-125578571D01*
X146692858Y-125626190D01*
X146311905Y-125626190D01*
X147740477Y-125435714D02*
X147740477Y-126102381D01*
X147502381Y-125054762D02*
X147264286Y-125769048D01*
X147883334Y-125769048D01*
X125083334Y-110152381D02*
X124750000Y-109676190D01*
X124511905Y-110152381D02*
X124511905Y-109152381D01*
X124892858Y-109152381D01*
X124988096Y-109200000D01*
X125035715Y-109247619D01*
X125083334Y-109342857D01*
X125083334Y-109485714D01*
X125035715Y-109580952D01*
X124988096Y-109628571D01*
X124892858Y-109676190D01*
X124511905Y-109676190D01*
X125988096Y-109152381D02*
X125511905Y-109152381D01*
X125464286Y-109628571D01*
X125511905Y-109580952D01*
X125607143Y-109533333D01*
X125845239Y-109533333D01*
X125940477Y-109580952D01*
X125988096Y-109628571D01*
X126035715Y-109723810D01*
X126035715Y-109961905D01*
X125988096Y-110057143D01*
X125940477Y-110104762D01*
X125845239Y-110152381D01*
X125607143Y-110152381D01*
X125511905Y-110104762D01*
X125464286Y-110057143D01*
X125083334Y-115052381D02*
X124750000Y-114576190D01*
X124511905Y-115052381D02*
X124511905Y-114052381D01*
X124892858Y-114052381D01*
X124988096Y-114100000D01*
X125035715Y-114147619D01*
X125083334Y-114242857D01*
X125083334Y-114385714D01*
X125035715Y-114480952D01*
X124988096Y-114528571D01*
X124892858Y-114576190D01*
X124511905Y-114576190D01*
X125940477Y-114052381D02*
X125750000Y-114052381D01*
X125654762Y-114100000D01*
X125607143Y-114147619D01*
X125511905Y-114290476D01*
X125464286Y-114480952D01*
X125464286Y-114861905D01*
X125511905Y-114957143D01*
X125559524Y-115004762D01*
X125654762Y-115052381D01*
X125845239Y-115052381D01*
X125940477Y-115004762D01*
X125988096Y-114957143D01*
X126035715Y-114861905D01*
X126035715Y-114623810D01*
X125988096Y-114528571D01*
X125940477Y-114480952D01*
X125845239Y-114433333D01*
X125654762Y-114433333D01*
X125559524Y-114480952D01*
X125511905Y-114528571D01*
X125464286Y-114623810D01*
X136533334Y-92052381D02*
X136200000Y-91576190D01*
X135961905Y-92052381D02*
X135961905Y-91052381D01*
X136342858Y-91052381D01*
X136438096Y-91100000D01*
X136485715Y-91147619D01*
X136533334Y-91242857D01*
X136533334Y-91385714D01*
X136485715Y-91480952D01*
X136438096Y-91528571D01*
X136342858Y-91576190D01*
X135961905Y-91576190D01*
X136866667Y-91052381D02*
X137533334Y-91052381D01*
X137104762Y-92052381D01*
X140833334Y-92052381D02*
X140500000Y-91576190D01*
X140261905Y-92052381D02*
X140261905Y-91052381D01*
X140642858Y-91052381D01*
X140738096Y-91100000D01*
X140785715Y-91147619D01*
X140833334Y-91242857D01*
X140833334Y-91385714D01*
X140785715Y-91480952D01*
X140738096Y-91528571D01*
X140642858Y-91576190D01*
X140261905Y-91576190D01*
X141404762Y-91480952D02*
X141309524Y-91433333D01*
X141261905Y-91385714D01*
X141214286Y-91290476D01*
X141214286Y-91242857D01*
X141261905Y-91147619D01*
X141309524Y-91100000D01*
X141404762Y-91052381D01*
X141595239Y-91052381D01*
X141690477Y-91100000D01*
X141738096Y-91147619D01*
X141785715Y-91242857D01*
X141785715Y-91290476D01*
X141738096Y-91385714D01*
X141690477Y-91433333D01*
X141595239Y-91480952D01*
X141404762Y-91480952D01*
X141309524Y-91528571D01*
X141261905Y-91576190D01*
X141214286Y-91671429D01*
X141214286Y-91861905D01*
X141261905Y-91957143D01*
X141309524Y-92004762D01*
X141404762Y-92052381D01*
X141595239Y-92052381D01*
X141690477Y-92004762D01*
X141738096Y-91957143D01*
X141785715Y-91861905D01*
X141785715Y-91671429D01*
X141738096Y-91576190D01*
X141690477Y-91528571D01*
X141595239Y-91480952D01*
X151033334Y-105302381D02*
X150700000Y-104826190D01*
X150461905Y-105302381D02*
X150461905Y-104302381D01*
X150842858Y-104302381D01*
X150938096Y-104350000D01*
X150985715Y-104397619D01*
X151033334Y-104492857D01*
X151033334Y-104635714D01*
X150985715Y-104730952D01*
X150938096Y-104778571D01*
X150842858Y-104826190D01*
X150461905Y-104826190D01*
X151509524Y-105302381D02*
X151700000Y-105302381D01*
X151795239Y-105254762D01*
X151842858Y-105207143D01*
X151938096Y-105064286D01*
X151985715Y-104873810D01*
X151985715Y-104492857D01*
X151938096Y-104397619D01*
X151890477Y-104350000D01*
X151795239Y-104302381D01*
X151604762Y-104302381D01*
X151509524Y-104350000D01*
X151461905Y-104397619D01*
X151414286Y-104492857D01*
X151414286Y-104730952D01*
X151461905Y-104826190D01*
X151509524Y-104873810D01*
X151604762Y-104921429D01*
X151795239Y-104921429D01*
X151890477Y-104873810D01*
X151938096Y-104826190D01*
X151985715Y-104730952D01*
X153707143Y-105302381D02*
X153373809Y-104826190D01*
X153135714Y-105302381D02*
X153135714Y-104302381D01*
X153516667Y-104302381D01*
X153611905Y-104350000D01*
X153659524Y-104397619D01*
X153707143Y-104492857D01*
X153707143Y-104635714D01*
X153659524Y-104730952D01*
X153611905Y-104778571D01*
X153516667Y-104826190D01*
X153135714Y-104826190D01*
X154659524Y-105302381D02*
X154088095Y-105302381D01*
X154373809Y-105302381D02*
X154373809Y-104302381D01*
X154278571Y-104445238D01*
X154183333Y-104540476D01*
X154088095Y-104588095D01*
X155278571Y-104302381D02*
X155373810Y-104302381D01*
X155469048Y-104350000D01*
X155516667Y-104397619D01*
X155564286Y-104492857D01*
X155611905Y-104683333D01*
X155611905Y-104921429D01*
X155564286Y-105111905D01*
X155516667Y-105207143D01*
X155469048Y-105254762D01*
X155373810Y-105302381D01*
X155278571Y-105302381D01*
X155183333Y-105254762D01*
X155135714Y-105207143D01*
X155088095Y-105111905D01*
X155040476Y-104921429D01*
X155040476Y-104683333D01*
X155088095Y-104492857D01*
X155135714Y-104397619D01*
X155183333Y-104350000D01*
X155278571Y-104302381D01*
X195707143Y-61502381D02*
X195373809Y-61026190D01*
X195135714Y-61502381D02*
X195135714Y-60502381D01*
X195516667Y-60502381D01*
X195611905Y-60550000D01*
X195659524Y-60597619D01*
X195707143Y-60692857D01*
X195707143Y-60835714D01*
X195659524Y-60930952D01*
X195611905Y-60978571D01*
X195516667Y-61026190D01*
X195135714Y-61026190D01*
X196659524Y-61502381D02*
X196088095Y-61502381D01*
X196373809Y-61502381D02*
X196373809Y-60502381D01*
X196278571Y-60645238D01*
X196183333Y-60740476D01*
X196088095Y-60788095D01*
X197611905Y-61502381D02*
X197040476Y-61502381D01*
X197326190Y-61502381D02*
X197326190Y-60502381D01*
X197230952Y-60645238D01*
X197135714Y-60740476D01*
X197040476Y-60788095D01*
X192007143Y-91802381D02*
X191673809Y-91326190D01*
X191435714Y-91802381D02*
X191435714Y-90802381D01*
X191816667Y-90802381D01*
X191911905Y-90850000D01*
X191959524Y-90897619D01*
X192007143Y-90992857D01*
X192007143Y-91135714D01*
X191959524Y-91230952D01*
X191911905Y-91278571D01*
X191816667Y-91326190D01*
X191435714Y-91326190D01*
X192959524Y-91802381D02*
X192388095Y-91802381D01*
X192673809Y-91802381D02*
X192673809Y-90802381D01*
X192578571Y-90945238D01*
X192483333Y-91040476D01*
X192388095Y-91088095D01*
X193340476Y-90897619D02*
X193388095Y-90850000D01*
X193483333Y-90802381D01*
X193721429Y-90802381D01*
X193816667Y-90850000D01*
X193864286Y-90897619D01*
X193911905Y-90992857D01*
X193911905Y-91088095D01*
X193864286Y-91230952D01*
X193292857Y-91802381D01*
X193911905Y-91802381D01*
X171807143Y-74752381D02*
X171473809Y-74276190D01*
X171235714Y-74752381D02*
X171235714Y-73752381D01*
X171616667Y-73752381D01*
X171711905Y-73800000D01*
X171759524Y-73847619D01*
X171807143Y-73942857D01*
X171807143Y-74085714D01*
X171759524Y-74180952D01*
X171711905Y-74228571D01*
X171616667Y-74276190D01*
X171235714Y-74276190D01*
X172759524Y-74752381D02*
X172188095Y-74752381D01*
X172473809Y-74752381D02*
X172473809Y-73752381D01*
X172378571Y-73895238D01*
X172283333Y-73990476D01*
X172188095Y-74038095D01*
X173092857Y-73752381D02*
X173711905Y-73752381D01*
X173378571Y-74133333D01*
X173521429Y-74133333D01*
X173616667Y-74180952D01*
X173664286Y-74228571D01*
X173711905Y-74323810D01*
X173711905Y-74561905D01*
X173664286Y-74657143D01*
X173616667Y-74704762D01*
X173521429Y-74752381D01*
X173235714Y-74752381D01*
X173140476Y-74704762D01*
X173092857Y-74657143D01*
X168557143Y-74802381D02*
X168223809Y-74326190D01*
X167985714Y-74802381D02*
X167985714Y-73802381D01*
X168366667Y-73802381D01*
X168461905Y-73850000D01*
X168509524Y-73897619D01*
X168557143Y-73992857D01*
X168557143Y-74135714D01*
X168509524Y-74230952D01*
X168461905Y-74278571D01*
X168366667Y-74326190D01*
X167985714Y-74326190D01*
X169509524Y-74802381D02*
X168938095Y-74802381D01*
X169223809Y-74802381D02*
X169223809Y-73802381D01*
X169128571Y-73945238D01*
X169033333Y-74040476D01*
X168938095Y-74088095D01*
X170366667Y-74135714D02*
X170366667Y-74802381D01*
X170128571Y-73754762D02*
X169890476Y-74469048D01*
X170509524Y-74469048D01*
X154257143Y-87552381D02*
X153923809Y-87076190D01*
X153685714Y-87552381D02*
X153685714Y-86552381D01*
X154066667Y-86552381D01*
X154161905Y-86600000D01*
X154209524Y-86647619D01*
X154257143Y-86742857D01*
X154257143Y-86885714D01*
X154209524Y-86980952D01*
X154161905Y-87028571D01*
X154066667Y-87076190D01*
X153685714Y-87076190D01*
X155209524Y-87552381D02*
X154638095Y-87552381D01*
X154923809Y-87552381D02*
X154923809Y-86552381D01*
X154828571Y-86695238D01*
X154733333Y-86790476D01*
X154638095Y-86838095D01*
X156114286Y-86552381D02*
X155638095Y-86552381D01*
X155590476Y-87028571D01*
X155638095Y-86980952D01*
X155733333Y-86933333D01*
X155971429Y-86933333D01*
X156066667Y-86980952D01*
X156114286Y-87028571D01*
X156161905Y-87123810D01*
X156161905Y-87361905D01*
X156114286Y-87457143D01*
X156066667Y-87504762D01*
X155971429Y-87552381D01*
X155733333Y-87552381D01*
X155638095Y-87504762D01*
X155590476Y-87457143D01*
X154257143Y-91152381D02*
X153923809Y-90676190D01*
X153685714Y-91152381D02*
X153685714Y-90152381D01*
X154066667Y-90152381D01*
X154161905Y-90200000D01*
X154209524Y-90247619D01*
X154257143Y-90342857D01*
X154257143Y-90485714D01*
X154209524Y-90580952D01*
X154161905Y-90628571D01*
X154066667Y-90676190D01*
X153685714Y-90676190D01*
X155209524Y-91152381D02*
X154638095Y-91152381D01*
X154923809Y-91152381D02*
X154923809Y-90152381D01*
X154828571Y-90295238D01*
X154733333Y-90390476D01*
X154638095Y-90438095D01*
X156066667Y-90152381D02*
X155876190Y-90152381D01*
X155780952Y-90200000D01*
X155733333Y-90247619D01*
X155638095Y-90390476D01*
X155590476Y-90580952D01*
X155590476Y-90961905D01*
X155638095Y-91057143D01*
X155685714Y-91104762D01*
X155780952Y-91152381D01*
X155971429Y-91152381D01*
X156066667Y-91104762D01*
X156114286Y-91057143D01*
X156161905Y-90961905D01*
X156161905Y-90723810D01*
X156114286Y-90628571D01*
X156066667Y-90580952D01*
X155971429Y-90533333D01*
X155780952Y-90533333D01*
X155685714Y-90580952D01*
X155638095Y-90628571D01*
X155590476Y-90723810D01*
X159907143Y-71052381D02*
X159573809Y-70576190D01*
X159335714Y-71052381D02*
X159335714Y-70052381D01*
X159716667Y-70052381D01*
X159811905Y-70100000D01*
X159859524Y-70147619D01*
X159907143Y-70242857D01*
X159907143Y-70385714D01*
X159859524Y-70480952D01*
X159811905Y-70528571D01*
X159716667Y-70576190D01*
X159335714Y-70576190D01*
X160859524Y-71052381D02*
X160288095Y-71052381D01*
X160573809Y-71052381D02*
X160573809Y-70052381D01*
X160478571Y-70195238D01*
X160383333Y-70290476D01*
X160288095Y-70338095D01*
X161192857Y-70052381D02*
X161859524Y-70052381D01*
X161430952Y-71052381D01*
X151607143Y-126102381D02*
X151273809Y-125626190D01*
X151035714Y-126102381D02*
X151035714Y-125102381D01*
X151416667Y-125102381D01*
X151511905Y-125150000D01*
X151559524Y-125197619D01*
X151607143Y-125292857D01*
X151607143Y-125435714D01*
X151559524Y-125530952D01*
X151511905Y-125578571D01*
X151416667Y-125626190D01*
X151035714Y-125626190D01*
X152559524Y-126102381D02*
X151988095Y-126102381D01*
X152273809Y-126102381D02*
X152273809Y-125102381D01*
X152178571Y-125245238D01*
X152083333Y-125340476D01*
X151988095Y-125388095D01*
X153130952Y-125530952D02*
X153035714Y-125483333D01*
X152988095Y-125435714D01*
X152940476Y-125340476D01*
X152940476Y-125292857D01*
X152988095Y-125197619D01*
X153035714Y-125150000D01*
X153130952Y-125102381D01*
X153321429Y-125102381D01*
X153416667Y-125150000D01*
X153464286Y-125197619D01*
X153511905Y-125292857D01*
X153511905Y-125340476D01*
X153464286Y-125435714D01*
X153416667Y-125483333D01*
X153321429Y-125530952D01*
X153130952Y-125530952D01*
X153035714Y-125578571D01*
X152988095Y-125626190D01*
X152940476Y-125721429D01*
X152940476Y-125911905D01*
X152988095Y-126007143D01*
X153035714Y-126054762D01*
X153130952Y-126102381D01*
X153321429Y-126102381D01*
X153416667Y-126054762D01*
X153464286Y-126007143D01*
X153511905Y-125911905D01*
X153511905Y-125721429D01*
X153464286Y-125626190D01*
X153416667Y-125578571D01*
X153321429Y-125530952D01*
X88907143Y-126902381D02*
X88573809Y-126426190D01*
X88335714Y-126902381D02*
X88335714Y-125902381D01*
X88716667Y-125902381D01*
X88811905Y-125950000D01*
X88859524Y-125997619D01*
X88907143Y-126092857D01*
X88907143Y-126235714D01*
X88859524Y-126330952D01*
X88811905Y-126378571D01*
X88716667Y-126426190D01*
X88335714Y-126426190D01*
X89859524Y-126902381D02*
X89288095Y-126902381D01*
X89573809Y-126902381D02*
X89573809Y-125902381D01*
X89478571Y-126045238D01*
X89383333Y-126140476D01*
X89288095Y-126188095D01*
X90335714Y-126902381D02*
X90526190Y-126902381D01*
X90621429Y-126854762D01*
X90669048Y-126807143D01*
X90764286Y-126664286D01*
X90811905Y-126473810D01*
X90811905Y-126092857D01*
X90764286Y-125997619D01*
X90716667Y-125950000D01*
X90621429Y-125902381D01*
X90430952Y-125902381D01*
X90335714Y-125950000D01*
X90288095Y-125997619D01*
X90240476Y-126092857D01*
X90240476Y-126330952D01*
X90288095Y-126426190D01*
X90335714Y-126473810D01*
X90430952Y-126521429D01*
X90621429Y-126521429D01*
X90716667Y-126473810D01*
X90764286Y-126426190D01*
X90811905Y-126330952D01*
X110207143Y-120902381D02*
X109873809Y-120426190D01*
X109635714Y-120902381D02*
X109635714Y-119902381D01*
X110016667Y-119902381D01*
X110111905Y-119950000D01*
X110159524Y-119997619D01*
X110207143Y-120092857D01*
X110207143Y-120235714D01*
X110159524Y-120330952D01*
X110111905Y-120378571D01*
X110016667Y-120426190D01*
X109635714Y-120426190D01*
X110588095Y-119997619D02*
X110635714Y-119950000D01*
X110730952Y-119902381D01*
X110969048Y-119902381D01*
X111064286Y-119950000D01*
X111111905Y-119997619D01*
X111159524Y-120092857D01*
X111159524Y-120188095D01*
X111111905Y-120330952D01*
X110540476Y-120902381D01*
X111159524Y-120902381D01*
X111778571Y-119902381D02*
X111873810Y-119902381D01*
X111969048Y-119950000D01*
X112016667Y-119997619D01*
X112064286Y-120092857D01*
X112111905Y-120283333D01*
X112111905Y-120521429D01*
X112064286Y-120711905D01*
X112016667Y-120807143D01*
X111969048Y-120854762D01*
X111873810Y-120902381D01*
X111778571Y-120902381D01*
X111683333Y-120854762D01*
X111635714Y-120807143D01*
X111588095Y-120711905D01*
X111540476Y-120521429D01*
X111540476Y-120283333D01*
X111588095Y-120092857D01*
X111635714Y-119997619D01*
X111683333Y-119950000D01*
X111778571Y-119902381D01*
X110107143Y-115902381D02*
X109773809Y-115426190D01*
X109535714Y-115902381D02*
X109535714Y-114902381D01*
X109916667Y-114902381D01*
X110011905Y-114950000D01*
X110059524Y-114997619D01*
X110107143Y-115092857D01*
X110107143Y-115235714D01*
X110059524Y-115330952D01*
X110011905Y-115378571D01*
X109916667Y-115426190D01*
X109535714Y-115426190D01*
X110488095Y-114997619D02*
X110535714Y-114950000D01*
X110630952Y-114902381D01*
X110869048Y-114902381D01*
X110964286Y-114950000D01*
X111011905Y-114997619D01*
X111059524Y-115092857D01*
X111059524Y-115188095D01*
X111011905Y-115330952D01*
X110440476Y-115902381D01*
X111059524Y-115902381D01*
X111392857Y-114902381D02*
X112011905Y-114902381D01*
X111678571Y-115283333D01*
X111821429Y-115283333D01*
X111916667Y-115330952D01*
X111964286Y-115378571D01*
X112011905Y-115473810D01*
X112011905Y-115711905D01*
X111964286Y-115807143D01*
X111916667Y-115854762D01*
X111821429Y-115902381D01*
X111535714Y-115902381D01*
X111440476Y-115854762D01*
X111392857Y-115807143D01*
X110707143Y-110252381D02*
X110373809Y-109776190D01*
X110135714Y-110252381D02*
X110135714Y-109252381D01*
X110516667Y-109252381D01*
X110611905Y-109300000D01*
X110659524Y-109347619D01*
X110707143Y-109442857D01*
X110707143Y-109585714D01*
X110659524Y-109680952D01*
X110611905Y-109728571D01*
X110516667Y-109776190D01*
X110135714Y-109776190D01*
X111088095Y-109347619D02*
X111135714Y-109300000D01*
X111230952Y-109252381D01*
X111469048Y-109252381D01*
X111564286Y-109300000D01*
X111611905Y-109347619D01*
X111659524Y-109442857D01*
X111659524Y-109538095D01*
X111611905Y-109680952D01*
X111040476Y-110252381D01*
X111659524Y-110252381D01*
X112516667Y-109585714D02*
X112516667Y-110252381D01*
X112278571Y-109204762D02*
X112040476Y-109919048D01*
X112659524Y-109919048D01*
X110707143Y-105002381D02*
X110373809Y-104526190D01*
X110135714Y-105002381D02*
X110135714Y-104002381D01*
X110516667Y-104002381D01*
X110611905Y-104050000D01*
X110659524Y-104097619D01*
X110707143Y-104192857D01*
X110707143Y-104335714D01*
X110659524Y-104430952D01*
X110611905Y-104478571D01*
X110516667Y-104526190D01*
X110135714Y-104526190D01*
X111088095Y-104097619D02*
X111135714Y-104050000D01*
X111230952Y-104002381D01*
X111469048Y-104002381D01*
X111564286Y-104050000D01*
X111611905Y-104097619D01*
X111659524Y-104192857D01*
X111659524Y-104288095D01*
X111611905Y-104430952D01*
X111040476Y-105002381D01*
X111659524Y-105002381D01*
X112516667Y-104002381D02*
X112326190Y-104002381D01*
X112230952Y-104050000D01*
X112183333Y-104097619D01*
X112088095Y-104240476D01*
X112040476Y-104430952D01*
X112040476Y-104811905D01*
X112088095Y-104907143D01*
X112135714Y-104954762D01*
X112230952Y-105002381D01*
X112421429Y-105002381D01*
X112516667Y-104954762D01*
X112564286Y-104907143D01*
X112611905Y-104811905D01*
X112611905Y-104573810D01*
X112564286Y-104478571D01*
X112516667Y-104430952D01*
X112421429Y-104383333D01*
X112230952Y-104383333D01*
X112135714Y-104430952D01*
X112088095Y-104478571D01*
X112040476Y-104573810D01*
X105957143Y-101402381D02*
X105623809Y-100926190D01*
X105385714Y-101402381D02*
X105385714Y-100402381D01*
X105766667Y-100402381D01*
X105861905Y-100450000D01*
X105909524Y-100497619D01*
X105957143Y-100592857D01*
X105957143Y-100735714D01*
X105909524Y-100830952D01*
X105861905Y-100878571D01*
X105766667Y-100926190D01*
X105385714Y-100926190D01*
X106338095Y-100497619D02*
X106385714Y-100450000D01*
X106480952Y-100402381D01*
X106719048Y-100402381D01*
X106814286Y-100450000D01*
X106861905Y-100497619D01*
X106909524Y-100592857D01*
X106909524Y-100688095D01*
X106861905Y-100830952D01*
X106290476Y-101402381D01*
X106909524Y-101402381D01*
X107385714Y-101402381D02*
X107576190Y-101402381D01*
X107671429Y-101354762D01*
X107719048Y-101307143D01*
X107814286Y-101164286D01*
X107861905Y-100973810D01*
X107861905Y-100592857D01*
X107814286Y-100497619D01*
X107766667Y-100450000D01*
X107671429Y-100402381D01*
X107480952Y-100402381D01*
X107385714Y-100450000D01*
X107338095Y-100497619D01*
X107290476Y-100592857D01*
X107290476Y-100830952D01*
X107338095Y-100926190D01*
X107385714Y-100973810D01*
X107480952Y-101021429D01*
X107671429Y-101021429D01*
X107766667Y-100973810D01*
X107814286Y-100926190D01*
X107861905Y-100830952D01*
X182688095Y-137304762D02*
X182830952Y-137352381D01*
X183069048Y-137352381D01*
X183164286Y-137304762D01*
X183211905Y-137257143D01*
X183259524Y-137161905D01*
X183259524Y-137066667D01*
X183211905Y-136971429D01*
X183164286Y-136923810D01*
X183069048Y-136876190D01*
X182878571Y-136828571D01*
X182783333Y-136780952D01*
X182735714Y-136733333D01*
X182688095Y-136638095D01*
X182688095Y-136542857D01*
X182735714Y-136447619D01*
X182783333Y-136400000D01*
X182878571Y-136352381D01*
X183116667Y-136352381D01*
X183259524Y-136400000D01*
X184116667Y-136685714D02*
X184116667Y-137352381D01*
X183878571Y-136304762D02*
X183640476Y-137019048D01*
X184259524Y-137019048D01*
X102838095Y-54454762D02*
X102980952Y-54502381D01*
X103219048Y-54502381D01*
X103314286Y-54454762D01*
X103361905Y-54407143D01*
X103409524Y-54311905D01*
X103409524Y-54216667D01*
X103361905Y-54121429D01*
X103314286Y-54073810D01*
X103219048Y-54026190D01*
X103028571Y-53978571D01*
X102933333Y-53930952D01*
X102885714Y-53883333D01*
X102838095Y-53788095D01*
X102838095Y-53692857D01*
X102885714Y-53597619D01*
X102933333Y-53550000D01*
X103028571Y-53502381D01*
X103266667Y-53502381D01*
X103409524Y-53550000D01*
X104314286Y-53502381D02*
X103838095Y-53502381D01*
X103790476Y-53978571D01*
X103838095Y-53930952D01*
X103933333Y-53883333D01*
X104171429Y-53883333D01*
X104266667Y-53930952D01*
X104314286Y-53978571D01*
X104361905Y-54073810D01*
X104361905Y-54311905D01*
X104314286Y-54407143D01*
X104266667Y-54454762D01*
X104171429Y-54502381D01*
X103933333Y-54502381D01*
X103838095Y-54454762D01*
X103790476Y-54407143D01*
X143338095Y-82852381D02*
X143338095Y-83661905D01*
X143385714Y-83757143D01*
X143433333Y-83804762D01*
X143528571Y-83852381D01*
X143719048Y-83852381D01*
X143814286Y-83804762D01*
X143861905Y-83757143D01*
X143909524Y-83661905D01*
X143909524Y-82852381D01*
X144909524Y-83852381D02*
X144338095Y-83852381D01*
X144623809Y-83852381D02*
X144623809Y-82852381D01*
X144528571Y-82995238D01*
X144433333Y-83090476D01*
X144338095Y-83138095D01*
X195599095Y-70736381D02*
X195599095Y-71545905D01*
X195646714Y-71641143D01*
X195694333Y-71688762D01*
X195789571Y-71736381D01*
X195980048Y-71736381D01*
X196075286Y-71688762D01*
X196122905Y-71641143D01*
X196170524Y-71545905D01*
X196170524Y-70736381D01*
X196551476Y-70736381D02*
X197170524Y-70736381D01*
X196837190Y-71117333D01*
X196980048Y-71117333D01*
X197075286Y-71164952D01*
X197122905Y-71212571D01*
X197170524Y-71307810D01*
X197170524Y-71545905D01*
X197122905Y-71641143D01*
X197075286Y-71688762D01*
X196980048Y-71736381D01*
X196694333Y-71736381D01*
X196599095Y-71688762D01*
X196551476Y-71641143D01*
X183578095Y-76817381D02*
X183578095Y-77626905D01*
X183625714Y-77722143D01*
X183673333Y-77769762D01*
X183768571Y-77817381D01*
X183959048Y-77817381D01*
X184054286Y-77769762D01*
X184101905Y-77722143D01*
X184149524Y-77626905D01*
X184149524Y-76817381D01*
X185101905Y-76817381D02*
X184625714Y-76817381D01*
X184578095Y-77293571D01*
X184625714Y-77245952D01*
X184720952Y-77198333D01*
X184959048Y-77198333D01*
X185054286Y-77245952D01*
X185101905Y-77293571D01*
X185149524Y-77388810D01*
X185149524Y-77626905D01*
X185101905Y-77722143D01*
X185054286Y-77769762D01*
X184959048Y-77817381D01*
X184720952Y-77817381D01*
X184625714Y-77769762D01*
X184578095Y-77722143D01*
X153788095Y-66652381D02*
X153788095Y-67461905D01*
X153835714Y-67557143D01*
X153883333Y-67604762D01*
X153978571Y-67652381D01*
X154169048Y-67652381D01*
X154264286Y-67604762D01*
X154311905Y-67557143D01*
X154359524Y-67461905D01*
X154359524Y-66652381D01*
X155264286Y-66652381D02*
X155073809Y-66652381D01*
X154978571Y-66700000D01*
X154930952Y-66747619D01*
X154835714Y-66890476D01*
X154788095Y-67080952D01*
X154788095Y-67461905D01*
X154835714Y-67557143D01*
X154883333Y-67604762D01*
X154978571Y-67652381D01*
X155169048Y-67652381D01*
X155264286Y-67604762D01*
X155311905Y-67557143D01*
X155359524Y-67461905D01*
X155359524Y-67223810D01*
X155311905Y-67128571D01*
X155264286Y-67080952D01*
X155169048Y-67033333D01*
X154978571Y-67033333D01*
X154883333Y-67080952D01*
X154835714Y-67128571D01*
X154788095Y-67223810D01*
X92888095Y-125202381D02*
X92888095Y-126011905D01*
X92935714Y-126107143D01*
X92983333Y-126154762D01*
X93078571Y-126202381D01*
X93269048Y-126202381D01*
X93364286Y-126154762D01*
X93411905Y-126107143D01*
X93459524Y-126011905D01*
X93459524Y-125202381D01*
X93840476Y-125202381D02*
X94507143Y-125202381D01*
X94078571Y-126202381D01*
X105898095Y-104052381D02*
X105898095Y-104861905D01*
X105945714Y-104957143D01*
X105993333Y-105004762D01*
X106088571Y-105052381D01*
X106279048Y-105052381D01*
X106374286Y-105004762D01*
X106421905Y-104957143D01*
X106469524Y-104861905D01*
X106469524Y-104052381D01*
X106993333Y-105052381D02*
X107183809Y-105052381D01*
X107279048Y-105004762D01*
X107326667Y-104957143D01*
X107421905Y-104814286D01*
X107469524Y-104623810D01*
X107469524Y-104242857D01*
X107421905Y-104147619D01*
X107374286Y-104100000D01*
X107279048Y-104052381D01*
X107088571Y-104052381D01*
X106993333Y-104100000D01*
X106945714Y-104147619D01*
X106898095Y-104242857D01*
X106898095Y-104480952D01*
X106945714Y-104576190D01*
X106993333Y-104623810D01*
X107088571Y-104671429D01*
X107279048Y-104671429D01*
X107374286Y-104623810D01*
X107421905Y-104576190D01*
X107469524Y-104480952D01*
X147540476Y-57252381D02*
X147873809Y-58252381D01*
X148207143Y-57252381D01*
X149111905Y-58252381D02*
X148778571Y-57776190D01*
X148540476Y-58252381D02*
X148540476Y-57252381D01*
X148921429Y-57252381D01*
X149016667Y-57300000D01*
X149064286Y-57347619D01*
X149111905Y-57442857D01*
X149111905Y-57585714D01*
X149064286Y-57680952D01*
X149016667Y-57728571D01*
X148921429Y-57776190D01*
X148540476Y-57776190D01*
X150064286Y-58252381D02*
X149492857Y-58252381D01*
X149778571Y-58252381D02*
X149778571Y-57252381D01*
X149683333Y-57395238D01*
X149588095Y-57490476D01*
X149492857Y-57538095D01*
X150640476Y-57252381D02*
X150973809Y-58252381D01*
X151307143Y-57252381D01*
X152211905Y-58252381D02*
X151878571Y-57776190D01*
X151640476Y-58252381D02*
X151640476Y-57252381D01*
X152021429Y-57252381D01*
X152116667Y-57300000D01*
X152164286Y-57347619D01*
X152211905Y-57442857D01*
X152211905Y-57585714D01*
X152164286Y-57680952D01*
X152116667Y-57728571D01*
X152021429Y-57776190D01*
X151640476Y-57776190D01*
X152592857Y-57347619D02*
X152640476Y-57300000D01*
X152735714Y-57252381D01*
X152973810Y-57252381D01*
X153069048Y-57300000D01*
X153116667Y-57347619D01*
X153164286Y-57442857D01*
X153164286Y-57538095D01*
X153116667Y-57680952D01*
X152545238Y-58252381D01*
X153164286Y-58252381D01*
X128140476Y-99102381D02*
X128807143Y-100102381D01*
X128807143Y-99102381D02*
X128140476Y-100102381D01*
X129711905Y-100102381D02*
X129140476Y-100102381D01*
X129426190Y-100102381D02*
X129426190Y-99102381D01*
X129330952Y-99245238D01*
X129235714Y-99340476D01*
X129140476Y-99388095D01*
X184688095Y-114304762D02*
X184830952Y-114352381D01*
X185069048Y-114352381D01*
X185164286Y-114304762D01*
X185211905Y-114257143D01*
X185259524Y-114161905D01*
X185259524Y-114066667D01*
X185211905Y-113971429D01*
X185164286Y-113923810D01*
X185069048Y-113876190D01*
X184878571Y-113828571D01*
X184783333Y-113780952D01*
X184735714Y-113733333D01*
X184688095Y-113638095D01*
X184688095Y-113542857D01*
X184735714Y-113447619D01*
X184783333Y-113400000D01*
X184878571Y-113352381D01*
X185116667Y-113352381D01*
X185259524Y-113400000D01*
X185592857Y-113352381D02*
X186211905Y-113352381D01*
X185878571Y-113733333D01*
X186021429Y-113733333D01*
X186116667Y-113780952D01*
X186164286Y-113828571D01*
X186211905Y-113923810D01*
X186211905Y-114161905D01*
X186164286Y-114257143D01*
X186116667Y-114304762D01*
X186021429Y-114352381D01*
X185735714Y-114352381D01*
X185640476Y-114304762D01*
X185592857Y-114257143D01*
X174838095Y-114304762D02*
X174980952Y-114352381D01*
X175219048Y-114352381D01*
X175314286Y-114304762D01*
X175361905Y-114257143D01*
X175409524Y-114161905D01*
X175409524Y-114066667D01*
X175361905Y-113971429D01*
X175314286Y-113923810D01*
X175219048Y-113876190D01*
X175028571Y-113828571D01*
X174933333Y-113780952D01*
X174885714Y-113733333D01*
X174838095Y-113638095D01*
X174838095Y-113542857D01*
X174885714Y-113447619D01*
X174933333Y-113400000D01*
X175028571Y-113352381D01*
X175266667Y-113352381D01*
X175409524Y-113400000D01*
X175790476Y-113447619D02*
X175838095Y-113400000D01*
X175933333Y-113352381D01*
X176171429Y-113352381D01*
X176266667Y-113400000D01*
X176314286Y-113447619D01*
X176361905Y-113542857D01*
X176361905Y-113638095D01*
X176314286Y-113780952D01*
X175742857Y-114352381D01*
X176361905Y-114352381D01*
X164988095Y-114304762D02*
X165130952Y-114352381D01*
X165369048Y-114352381D01*
X165464286Y-114304762D01*
X165511905Y-114257143D01*
X165559524Y-114161905D01*
X165559524Y-114066667D01*
X165511905Y-113971429D01*
X165464286Y-113923810D01*
X165369048Y-113876190D01*
X165178571Y-113828571D01*
X165083333Y-113780952D01*
X165035714Y-113733333D01*
X164988095Y-113638095D01*
X164988095Y-113542857D01*
X165035714Y-113447619D01*
X165083333Y-113400000D01*
X165178571Y-113352381D01*
X165416667Y-113352381D01*
X165559524Y-113400000D01*
X166511905Y-114352381D02*
X165940476Y-114352381D01*
X166226190Y-114352381D02*
X166226190Y-113352381D01*
X166130952Y-113495238D01*
X166035714Y-113590476D01*
X165940476Y-113638095D01*
D15*
X130416667Y-50592857D02*
X130416667Y-51450000D01*
X130369047Y-51621429D01*
X130273809Y-51735714D01*
X130130952Y-51792857D01*
X130035714Y-51792857D01*
X131321429Y-50592857D02*
X131130952Y-50592857D01*
X131035714Y-50650000D01*
X130988095Y-50707143D01*
X130892857Y-50878571D01*
X130845238Y-51107143D01*
X130845238Y-51564286D01*
X130892857Y-51678571D01*
X130940476Y-51735714D01*
X131035714Y-51792857D01*
X131226191Y-51792857D01*
X131321429Y-51735714D01*
X131369048Y-51678571D01*
X131416667Y-51564286D01*
X131416667Y-51278571D01*
X131369048Y-51164286D01*
X131321429Y-51107143D01*
X131226191Y-51050000D01*
X131035714Y-51050000D01*
X130940476Y-51107143D01*
X130892857Y-51164286D01*
X130845238Y-51278571D01*
D12*
X144788095Y-99102381D02*
X144788095Y-99911905D01*
X144835714Y-100007143D01*
X144883333Y-100054762D01*
X144978571Y-100102381D01*
X145169048Y-100102381D01*
X145264286Y-100054762D01*
X145311905Y-100007143D01*
X145359524Y-99911905D01*
X145359524Y-99102381D01*
X145788095Y-99197619D02*
X145835714Y-99150000D01*
X145930952Y-99102381D01*
X146169048Y-99102381D01*
X146264286Y-99150000D01*
X146311905Y-99197619D01*
X146359524Y-99292857D01*
X146359524Y-99388095D01*
X146311905Y-99530952D01*
X145740476Y-100102381D01*
X146359524Y-100102381D01*
X151511903Y-120252381D02*
X151511903Y-119252381D01*
X151749998Y-119252381D01*
X151892856Y-119300000D01*
X151988094Y-119395238D01*
X152035713Y-119490476D01*
X152083332Y-119680952D01*
X152083332Y-119823810D01*
X152035713Y-120014286D01*
X151988094Y-120109524D01*
X151892856Y-120204762D01*
X151749998Y-120252381D01*
X151511903Y-120252381D01*
X152988094Y-119252381D02*
X152511903Y-119252381D01*
X152464284Y-119728571D01*
X152511903Y-119680952D01*
X152607141Y-119633333D01*
X152845237Y-119633333D01*
X152940475Y-119680952D01*
X152988094Y-119728571D01*
X153035713Y-119823810D01*
X153035713Y-120061905D01*
X152988094Y-120157143D01*
X152940475Y-120204762D01*
X152845237Y-120252381D01*
X152607141Y-120252381D01*
X152511903Y-120204762D01*
X152464284Y-120157143D01*
X146295237Y-120252381D02*
X146295237Y-119252381D01*
X146533332Y-119252381D01*
X146676190Y-119300000D01*
X146771428Y-119395238D01*
X146819047Y-119490476D01*
X146866666Y-119680952D01*
X146866666Y-119823810D01*
X146819047Y-120014286D01*
X146771428Y-120109524D01*
X146676190Y-120204762D01*
X146533332Y-120252381D01*
X146295237Y-120252381D01*
X147199999Y-119252381D02*
X147819047Y-119252381D01*
X147485713Y-119633333D01*
X147628571Y-119633333D01*
X147723809Y-119680952D01*
X147771428Y-119728571D01*
X147819047Y-119823810D01*
X147819047Y-120061905D01*
X147771428Y-120157143D01*
X147723809Y-120204762D01*
X147628571Y-120252381D01*
X147342856Y-120252381D01*
X147247618Y-120204762D01*
X147199999Y-120157143D01*
X141078571Y-120252381D02*
X141078571Y-119252381D01*
X141316666Y-119252381D01*
X141459524Y-119300000D01*
X141554762Y-119395238D01*
X141602381Y-119490476D01*
X141650000Y-119680952D01*
X141650000Y-119823810D01*
X141602381Y-120014286D01*
X141554762Y-120109524D01*
X141459524Y-120204762D01*
X141316666Y-120252381D01*
X141078571Y-120252381D01*
X142030952Y-119347619D02*
X142078571Y-119300000D01*
X142173809Y-119252381D01*
X142411905Y-119252381D01*
X142507143Y-119300000D01*
X142554762Y-119347619D01*
X142602381Y-119442857D01*
X142602381Y-119538095D01*
X142554762Y-119680952D01*
X141983333Y-120252381D01*
X142602381Y-120252381D01*
X135861905Y-120252381D02*
X135861905Y-119252381D01*
X136100000Y-119252381D01*
X136242858Y-119300000D01*
X136338096Y-119395238D01*
X136385715Y-119490476D01*
X136433334Y-119680952D01*
X136433334Y-119823810D01*
X136385715Y-120014286D01*
X136338096Y-120109524D01*
X136242858Y-120204762D01*
X136100000Y-120252381D01*
X135861905Y-120252381D01*
X137385715Y-120252381D02*
X136814286Y-120252381D01*
X137100000Y-120252381D02*
X137100000Y-119252381D01*
X137004762Y-119395238D01*
X136909524Y-119490476D01*
X136814286Y-119538095D01*
X155466667Y-57778571D02*
X155133333Y-57778571D01*
X155133333Y-58302381D02*
X155133333Y-57302381D01*
X155609524Y-57302381D01*
X156514286Y-58302381D02*
X155942857Y-58302381D01*
X156228571Y-58302381D02*
X156228571Y-57302381D01*
X156133333Y-57445238D01*
X156038095Y-57540476D01*
X155942857Y-57588095D01*
X174838095Y-82202381D02*
X174838095Y-83011905D01*
X174885714Y-83107143D01*
X174933333Y-83154762D01*
X175028571Y-83202381D01*
X175219048Y-83202381D01*
X175314286Y-83154762D01*
X175361905Y-83107143D01*
X175409524Y-83011905D01*
X175409524Y-82202381D01*
X176314286Y-82535714D02*
X176314286Y-83202381D01*
X176076190Y-82154762D02*
X175838095Y-82869048D01*
X176457143Y-82869048D01*
X108183334Y-88402381D02*
X107707143Y-88402381D01*
X107707143Y-87402381D01*
X108469048Y-87497619D02*
X108516667Y-87450000D01*
X108611905Y-87402381D01*
X108850001Y-87402381D01*
X108945239Y-87450000D01*
X108992858Y-87497619D01*
X109040477Y-87592857D01*
X109040477Y-87688095D01*
X108992858Y-87830952D01*
X108421429Y-88402381D01*
X109040477Y-88402381D01*
D15*
X147866667Y-50592857D02*
X147866667Y-51450000D01*
X147819047Y-51621429D01*
X147723809Y-51735714D01*
X147580952Y-51792857D01*
X147485714Y-51792857D01*
X148866667Y-51792857D02*
X148295238Y-51792857D01*
X148580952Y-51792857D02*
X148580952Y-50592857D01*
X148485714Y-50764286D01*
X148390476Y-50878571D01*
X148295238Y-50935714D01*
D12*
X103357143Y-115452381D02*
X103023809Y-114976190D01*
X102785714Y-115452381D02*
X102785714Y-114452381D01*
X103166667Y-114452381D01*
X103261905Y-114500000D01*
X103309524Y-114547619D01*
X103357143Y-114642857D01*
X103357143Y-114785714D01*
X103309524Y-114880952D01*
X103261905Y-114928571D01*
X103166667Y-114976190D01*
X102785714Y-114976190D01*
X103738095Y-114547619D02*
X103785714Y-114500000D01*
X103880952Y-114452381D01*
X104119048Y-114452381D01*
X104214286Y-114500000D01*
X104261905Y-114547619D01*
X104309524Y-114642857D01*
X104309524Y-114738095D01*
X104261905Y-114880952D01*
X103690476Y-115452381D01*
X104309524Y-115452381D01*
X104690476Y-114547619D02*
X104738095Y-114500000D01*
X104833333Y-114452381D01*
X105071429Y-114452381D01*
X105166667Y-114500000D01*
X105214286Y-114547619D01*
X105261905Y-114642857D01*
X105261905Y-114738095D01*
X105214286Y-114880952D01*
X104642857Y-115452381D01*
X105261905Y-115452381D01*
X94857143Y-115452381D02*
X94523809Y-114976190D01*
X94285714Y-115452381D02*
X94285714Y-114452381D01*
X94666667Y-114452381D01*
X94761905Y-114500000D01*
X94809524Y-114547619D01*
X94857143Y-114642857D01*
X94857143Y-114785714D01*
X94809524Y-114880952D01*
X94761905Y-114928571D01*
X94666667Y-114976190D01*
X94285714Y-114976190D01*
X95238095Y-114547619D02*
X95285714Y-114500000D01*
X95380952Y-114452381D01*
X95619048Y-114452381D01*
X95714286Y-114500000D01*
X95761905Y-114547619D01*
X95809524Y-114642857D01*
X95809524Y-114738095D01*
X95761905Y-114880952D01*
X95190476Y-115452381D01*
X95809524Y-115452381D01*
X96761905Y-115452381D02*
X96190476Y-115452381D01*
X96476190Y-115452381D02*
X96476190Y-114452381D01*
X96380952Y-114595238D01*
X96285714Y-114690476D01*
X96190476Y-114738095D01*
X101357143Y-110302381D02*
X101023809Y-109826190D01*
X100785714Y-110302381D02*
X100785714Y-109302381D01*
X101166667Y-109302381D01*
X101261905Y-109350000D01*
X101309524Y-109397619D01*
X101357143Y-109492857D01*
X101357143Y-109635714D01*
X101309524Y-109730952D01*
X101261905Y-109778571D01*
X101166667Y-109826190D01*
X100785714Y-109826190D01*
X101738095Y-109397619D02*
X101785714Y-109350000D01*
X101880952Y-109302381D01*
X102119048Y-109302381D01*
X102214286Y-109350000D01*
X102261905Y-109397619D01*
X102309524Y-109492857D01*
X102309524Y-109588095D01*
X102261905Y-109730952D01*
X101690476Y-110302381D01*
X102309524Y-110302381D01*
X103214286Y-109302381D02*
X102738095Y-109302381D01*
X102690476Y-109778571D01*
X102738095Y-109730952D01*
X102833333Y-109683333D01*
X103071429Y-109683333D01*
X103166667Y-109730952D01*
X103214286Y-109778571D01*
X103261905Y-109873810D01*
X103261905Y-110111905D01*
X103214286Y-110207143D01*
X103166667Y-110254762D01*
X103071429Y-110302381D01*
X102833333Y-110302381D01*
X102738095Y-110254762D01*
X102690476Y-110207143D01*
X91007143Y-96352381D02*
X90673809Y-95876190D01*
X90435714Y-96352381D02*
X90435714Y-95352381D01*
X90816667Y-95352381D01*
X90911905Y-95400000D01*
X90959524Y-95447619D01*
X91007143Y-95542857D01*
X91007143Y-95685714D01*
X90959524Y-95780952D01*
X90911905Y-95828571D01*
X90816667Y-95876190D01*
X90435714Y-95876190D01*
X91388095Y-95447619D02*
X91435714Y-95400000D01*
X91530952Y-95352381D01*
X91769048Y-95352381D01*
X91864286Y-95400000D01*
X91911905Y-95447619D01*
X91959524Y-95542857D01*
X91959524Y-95638095D01*
X91911905Y-95780952D01*
X91340476Y-96352381D01*
X91959524Y-96352381D01*
X92530952Y-95780952D02*
X92435714Y-95733333D01*
X92388095Y-95685714D01*
X92340476Y-95590476D01*
X92340476Y-95542857D01*
X92388095Y-95447619D01*
X92435714Y-95400000D01*
X92530952Y-95352381D01*
X92721429Y-95352381D01*
X92816667Y-95400000D01*
X92864286Y-95447619D01*
X92911905Y-95542857D01*
X92911905Y-95590476D01*
X92864286Y-95685714D01*
X92816667Y-95733333D01*
X92721429Y-95780952D01*
X92530952Y-95780952D01*
X92435714Y-95828571D01*
X92388095Y-95876190D01*
X92340476Y-95971429D01*
X92340476Y-96161905D01*
X92388095Y-96257143D01*
X92435714Y-96304762D01*
X92530952Y-96352381D01*
X92721429Y-96352381D01*
X92816667Y-96304762D01*
X92864286Y-96257143D01*
X92911905Y-96161905D01*
X92911905Y-95971429D01*
X92864286Y-95876190D01*
X92816667Y-95828571D01*
X92721429Y-95780952D01*
X101357143Y-104652381D02*
X101023809Y-104176190D01*
X100785714Y-104652381D02*
X100785714Y-103652381D01*
X101166667Y-103652381D01*
X101261905Y-103700000D01*
X101309524Y-103747619D01*
X101357143Y-103842857D01*
X101357143Y-103985714D01*
X101309524Y-104080952D01*
X101261905Y-104128571D01*
X101166667Y-104176190D01*
X100785714Y-104176190D01*
X101738095Y-103747619D02*
X101785714Y-103700000D01*
X101880952Y-103652381D01*
X102119048Y-103652381D01*
X102214286Y-103700000D01*
X102261905Y-103747619D01*
X102309524Y-103842857D01*
X102309524Y-103938095D01*
X102261905Y-104080952D01*
X101690476Y-104652381D01*
X102309524Y-104652381D01*
X102642857Y-103652381D02*
X103309524Y-103652381D01*
X102880952Y-104652381D01*
X98788095Y-117802381D02*
X98788095Y-118611905D01*
X98835714Y-118707143D01*
X98883333Y-118754762D01*
X98978571Y-118802381D01*
X99169048Y-118802381D01*
X99264286Y-118754762D01*
X99311905Y-118707143D01*
X99359524Y-118611905D01*
X99359524Y-117802381D01*
X99978571Y-118230952D02*
X99883333Y-118183333D01*
X99835714Y-118135714D01*
X99788095Y-118040476D01*
X99788095Y-117992857D01*
X99835714Y-117897619D01*
X99883333Y-117850000D01*
X99978571Y-117802381D01*
X100169048Y-117802381D01*
X100264286Y-117850000D01*
X100311905Y-117897619D01*
X100359524Y-117992857D01*
X100359524Y-118040476D01*
X100311905Y-118135714D01*
X100264286Y-118183333D01*
X100169048Y-118230952D01*
X99978571Y-118230952D01*
X99883333Y-118278571D01*
X99835714Y-118326190D01*
X99788095Y-118421429D01*
X99788095Y-118611905D01*
X99835714Y-118707143D01*
X99883333Y-118754762D01*
X99978571Y-118802381D01*
X100169048Y-118802381D01*
X100264286Y-118754762D01*
X100311905Y-118707143D01*
X100359524Y-118611905D01*
X100359524Y-118421429D01*
X100311905Y-118326190D01*
X100264286Y-118278571D01*
X100169048Y-118230952D01*
X90461905Y-103352381D02*
X90461905Y-104161905D01*
X90509524Y-104257143D01*
X90557143Y-104304762D01*
X90652381Y-104352381D01*
X90842858Y-104352381D01*
X90938096Y-104304762D01*
X90985715Y-104257143D01*
X91033334Y-104161905D01*
X91033334Y-103352381D01*
X92033334Y-104352381D02*
X91461905Y-104352381D01*
X91747619Y-104352381D02*
X91747619Y-103352381D01*
X91652381Y-103495238D01*
X91557143Y-103590476D01*
X91461905Y-103638095D01*
X92652381Y-103352381D02*
X92747620Y-103352381D01*
X92842858Y-103400000D01*
X92890477Y-103447619D01*
X92938096Y-103542857D01*
X92985715Y-103733333D01*
X92985715Y-103971429D01*
X92938096Y-104161905D01*
X92890477Y-104257143D01*
X92842858Y-104304762D01*
X92747620Y-104352381D01*
X92652381Y-104352381D01*
X92557143Y-104304762D01*
X92509524Y-104257143D01*
X92461905Y-104161905D01*
X92414286Y-103971429D01*
X92414286Y-103733333D01*
X92461905Y-103542857D01*
X92509524Y-103447619D01*
X92557143Y-103400000D01*
X92652381Y-103352381D01*
M02*
