M48
INCH,TZ
T1C0.008
T2C0.016
T3C0.020
T4C0.022
T5C0.024
T6C0.031
T7C0.032
T8C0.035
T9C0.039
T10C0.079
T11C0.102
T12C0.120
T13C0.122
T14C0.059
%
G90
G05
T1
X35551Y-20354
X35551Y-21142
X35748Y-19961
X35748Y-20748
X35748Y-21535
X35945Y-20354
X35945Y-21142
X37913Y-20354
X37913Y-21142
X38110Y-19961
X38110Y-20748
X38110Y-21535
X38307Y-20354
X38307Y-21142
X71201Y-20358
X71201Y-21146
X71398Y-19965
X71398Y-20752
X71398Y-21539
X71594Y-20358
X71594Y-21146
X73563Y-20358
X73563Y-21146
X73760Y-19965
X73760Y-20752
X73760Y-21539
X73957Y-20358
X73957Y-21146
T2
X35551Y-36969
X36929Y-23051
X37244Y-42165
X37559Y-41772
X38937Y-47652
X38937Y-48124
X39370Y-49075
X39409Y-47652
X39409Y-48124
X40236Y-48661
X40394Y-47913
X41024Y-48740
X41614Y-47126
X42913Y-42421
X44508Y-47657
X46654Y-20512
X46673Y-21299
X46713Y-33071
X47657Y-43091
X47657Y-45531
X48366Y-31496
X49626Y-38642
X49921Y-44488
X50197Y-20512
X51063Y-44626
X52618Y-33071
X52677Y-41083
X52972Y-38386
X53091Y-41831
X53248Y-41063
X53917Y-39213
X53996Y-46791
X54390Y-36112
X54469Y-39213
X54685Y-50728
X54705Y-41772
X54862Y-37697
X54964Y-39209
X54980Y-45807
X55039Y-34961
X55039Y-41260
X55059Y-40630
X55295Y-41516
X55449Y-40733
X55748Y-42382
X55823Y-43833
X55827Y-40984
X55833Y-39239
X55906Y-42795
X56063Y-44390
X56220Y-45197
X56358Y-36713
X56398Y-44626
X56850Y-42106
X56890Y-45276
X56988Y-43327
X57244Y-44941
X57539Y-44193
X57539Y-44626
X57697Y-37382
X57884Y-42126
X57963Y-42698
X58189Y-23228
X58209Y-42362
X58445Y-47165
X58445Y-49980
X58819Y-40945
X58878Y-39882
X59173Y-35217
X59350Y-23248
X59469Y-22205
X59587Y-32067
X59941Y-30866
X59980Y-43327
X60039Y-39724
X60846Y-33445
X61102Y-46102
X61339Y-25866
X61654Y-39154
X61969Y-39508
X62028Y-42421
X63228Y-40354
X63386Y-35295
X63386Y-36083
X63386Y-37480
X63386Y-38268
X63386Y-39547
X63386Y-41634
X63406Y-36811
X64035Y-50000
X67776Y-32008
X68307Y-31240
X68642Y-31614
X68661Y-24075
X68661Y-24587
X68780Y-28071
X68799Y-29094
X68819Y-29587
X75197Y-36535
X75197Y-38642
X75197Y-40768
X76437Y-28071
X77697Y-25945
T3
X41496Y-42953
X46339Y-45945
X58484Y-33465
X59941Y-34429
T6
X42146Y-38445
X43287Y-38445
T7
X52480Y-29705
X53898Y-29705
T8
X53713Y-24783
X54713Y-24783
T9
X35748Y-26185
X35748Y-27185
X35748Y-28185
X47559Y-26185
X47559Y-27185
X47559Y-28185
X63976Y-42421
X63976Y-44193
X66535Y-42421
X66535Y-44193
X67854Y-42421
X67854Y-44193
X68150Y-48228
X68150Y-54134
X69134Y-54134
X70118Y-48228
X70118Y-54134
X70413Y-42421
X70413Y-44193
X71732Y-42421
X71732Y-44193
X74291Y-42421
X74291Y-44193
T10
X52713Y-22783
X56713Y-22783
T11
X66535Y-51181
X71732Y-51181
T12
X33071Y-21260
X33071Y-33465
X33071Y-53543
X77165Y-21260
X77165Y-33465
X77165Y-53543
T13
X72337Y-26829
T4
X59469Y-21319G85X59350Y-21319
G05
X61437Y-21319G85X61319Y-21319
G05
T5
X59016Y-20364G85X59016Y-20148
G05
X61772Y-20364G85X61772Y-20148
G05
T9
X62953Y-24311G85X62953Y-23720
G05
X65059Y-22756G85X64469Y-22756
G05
X65256Y-25157G85X64272Y-25157
G05
T14
X64705Y-41264G85X73563Y-41264
G05
T0
M30
