<?xml version="1.0" encoding="UTF-8" standalone="no"?>
<svg width="423.333mm" height="564.444mm"
 viewBox="0 0 1200 1600"
 xmlns="http://www.w3.org/2000/svg" xmlns:xlink="http://www.w3.org/1999/xlink"  version="1.2" baseProfile="tiny">
<title>Qt Svg Document</title>
<desc>Generated with Qt</desc>
<defs>
</defs>
<g fill="none" stroke="black" stroke-width="1" fill-rule="evenodd" stroke-linecap="square" stroke-linejoin="bevel" >

<g fill="#ffffff" fill-opacity="1" stroke="none" transform="matrix(1,0,0,1,0,0)"
font-family="Noto Sans" font-size="9" font-weight="400" font-style="normal" 
>
<path vector-effect="non-scaling-stroke" fill-rule="evenodd" d="M0,0 L1200,0 L1200,1600 L0,1600 L0,0"/>
</g>

<g fill="none" stroke="#000000" stroke-opacity="1" stroke-width="1" stroke-linecap="round" stroke-linejoin="round" transform="matrix(1,0,0,1,0,0)"
font-family="Noto Sans" font-size="9" font-weight="400" font-style="normal" 
>
<polyline fill="none" vector-effect="non-scaling-stroke" points="25,1594 1175,1594 " />
<polyline fill="none" vector-effect="non-scaling-stroke" points="1195,1574 1195,721 " />
<polyline fill="none" vector-effect="non-scaling-stroke" points="1175,702 25,702 " />
<polyline fill="none" vector-effect="non-scaling-stroke" points="5,721 5,1574 " />
<polyline fill="none" vector-effect="non-scaling-stroke" points="5,1574 5,1576 5,1578 6,1580 7,1582 7,1584 9,1585 10,1587 11,1588 13,1590 14,1591 16,1592 18,1593 20,1593 22,1594 24,1594 25,1594 " />
<polyline fill="none" vector-effect="non-scaling-stroke" points="1175,1594 1177,1594 1179,1594 1181,1593 1183,1592 1185,1592 1186,1590 1188,1589 1189,1588 1191,1586 1192,1585 1193,1583 1194,1581 1194,1579 1195,1577 1195,1575 1195,1574 " />
<polyline fill="none" vector-effect="non-scaling-stroke" points="1195,721 1195,719 1195,717 1194,715 1193,714 1193,712 1191,710 1190,708 1189,707 1187,706 1186,705 1184,704 1182,703 1180,702 1178,702 1176,702 1175,702 " />
<polyline fill="none" vector-effect="non-scaling-stroke" points="25,702 23,702 21,702 19,702 17,703 15,704 14,705 12,706 11,708 9,709 8,711 7,713 6,714 6,716 5,718 5,720 5,721 " />
<polyline fill="none" vector-effect="non-scaling-stroke" points="64,1554 64,1552 64,1550 64,1548 63,1547 62,1545 61,1543 60,1541 58,1540 57,1539 55,1538 53,1537 52,1536 50,1535 48,1535 46,1535 44,1535 42,1535 40,1535 38,1536 36,1536 34,1537 33,1539 31,1540 30,1541 29,1543 27,1544 27,1546 26,1548 25,1550 25,1552 25,1554 25,1556 25,1558 26,1560 26,1562 27,1564 28,1565 29,1567 31,1568 32,1570 34,1571 36,1572 37,1573 39,1573 41,1574 43,1574 45,1574 47,1574 49,1574 51,1573 53,1572 55,1571 56,1570 58,1569 59,1568 61,1566 62,1564 63,1563 63,1561 64,1559 64,1557 64,1555 64,1554 " />
<polyline fill="none" vector-effect="non-scaling-stroke" points="1175,1554 1175,1552 1175,1550 1174,1548 1174,1547 1173,1545 1172,1543 1170,1541 1169,1540 1168,1539 1166,1538 1164,1537 1162,1536 1160,1535 1158,1535 1156,1535 1154,1535 1152,1535 1151,1535 1149,1536 1147,1536 1145,1537 1143,1539 1142,1540 1140,1541 1139,1543 1138,1544 1137,1546 1136,1548 1136,1550 1136,1552 1136,1554 1136,1556 1136,1558 1136,1560 1137,1562 1138,1564 1139,1565 1140,1567 1141,1568 1143,1570 1144,1571 1146,1572 1148,1573 1150,1573 1152,1574 1154,1574 1156,1574 1158,1574 1160,1574 1162,1573 1164,1572 1165,1571 1167,1570 1169,1569 1170,1568 1171,1566 1172,1564 1173,1563 1174,1561 1175,1559 1175,1557 1175,1555 1175,1554 " />
<polyline fill="none" vector-effect="non-scaling-stroke" points="64,1049 64,1047 64,1045 64,1043 63,1041 62,1039 61,1037 60,1036 58,1034 57,1033 55,1032 53,1031 52,1030 50,1029 48,1029 46,1029 44,1029 42,1029 40,1029 38,1030 36,1031 34,1032 33,1033 31,1034 30,1035 29,1037 27,1039 27,1041 26,1042 25,1044 25,1046 25,1048 25,1050 25,1052 26,1054 26,1056 27,1058 28,1060 29,1061 31,1063 32,1064 34,1065 36,1066 37,1067 39,1068 41,1068 43,1068 45,1068 47,1068 49,1068 51,1067 53,1067 55,1066 56,1065 58,1063 59,1062 61,1060 62,1059 63,1057 63,1055 64,1053 64,1051 64,1049 " />
<polyline fill="none" vector-effect="non-scaling-stroke" points="1175,1049 1175,1047 1175,1045 1174,1043 1174,1041 1173,1039 1172,1037 1170,1036 1169,1034 1168,1033 1166,1032 1164,1031 1162,1030 1160,1029 1158,1029 1156,1029 1154,1029 1152,1029 1151,1029 1149,1030 1147,1031 1145,1032 1143,1033 1142,1034 1140,1035 1139,1037 1138,1039 1137,1041 1136,1042 1136,1044 1136,1046 1136,1048 1136,1050 1136,1052 1136,1054 1137,1056 1138,1058 1139,1060 1140,1061 1141,1063 1143,1064 1144,1065 1146,1066 1148,1067 1150,1068 1152,1068 1154,1068 1156,1068 1158,1068 1160,1068 1162,1067 1164,1067 1165,1066 1167,1065 1169,1063 1170,1062 1171,1060 1172,1059 1173,1057 1174,1055 1175,1053 1175,1051 1175,1049 " />
<polyline fill="none" vector-effect="non-scaling-stroke" points="64,741 64,739 64,737 64,735 63,733 62,732 61,730 60,728 58,727 57,726 55,724 53,723 52,723 50,722 48,722 46,721 44,721 42,722 40,722 38,723 36,723 34,724 33,725 31,727 30,728 29,730 27,731 27,733 26,735 25,737 25,739 25,741 25,743 25,745 26,747 26,749 27,750 28,752 29,754 31,755 32,757 34,758 36,759 37,760 39,760 41,761 43,761 45,761 47,761 49,760 51,760 53,759 55,758 56,757 58,756 59,754 61,753 62,751 63,750 63,748 64,746 64,744 64,742 64,741 " />
<polyline fill="none" vector-effect="non-scaling-stroke" points="1175,741 1175,739 1175,737 1174,735 1174,733 1173,732 1172,730 1170,728 1169,727 1168,726 1166,724 1164,723 1162,723 1160,722 1158,722 1156,721 1154,721 1152,722 1151,722 1149,723 1147,723 1145,724 1143,725 1142,727 1140,728 1139,730 1138,731 1137,733 1136,735 1136,737 1136,739 1136,741 1136,743 1136,745 1136,747 1137,749 1138,750 1139,752 1140,754 1141,755 1143,757 1144,758 1146,759 1148,760 1150,760 1152,761 1154,761 1156,761 1158,761 1160,760 1162,760 1164,759 1165,758 1167,757 1169,756 1170,754 1171,753 1172,751 1173,750 1174,748 1175,746 1175,744 1175,742 1175,741 " />
<polyline fill="none" vector-effect="non-scaling-stroke" points="25,602 1175,602 " />
<polyline fill="none" vector-effect="non-scaling-stroke" points="5,583 5,27 " />
<polyline fill="none" vector-effect="non-scaling-stroke" points="1195,583 1195,27 " />
<polyline fill="none" vector-effect="non-scaling-stroke" points="25,7 1175,7 " />
<polyline fill="none" vector-effect="non-scaling-stroke" points="5,583 5,584 5,586 6,588 7,590 7,592 9,594 10,595 11,597 13,598 14,599 16,600 18,601 20,602 22,602 24,602 25,602 " />
<polyline fill="none" vector-effect="non-scaling-stroke" points="1175,602 1177,602 1179,602 1181,601 1183,601 1185,600 1186,599 1188,598 1189,596 1191,595 1192,593 1193,591 1194,589 1194,588 1195,586 1195,584 1195,583 " />
<polyline fill="none" vector-effect="non-scaling-stroke" points="1195,27 1195,25 1195,23 1194,21 1193,19 1193,18 1191,16 1190,14 1189,13 1187,12 1186,10 1184,9 1182,9 1180,8 1178,8 1176,7 1175,7 " />
<polyline fill="none" vector-effect="non-scaling-stroke" points="25,7 23,7 21,8 19,8 17,9 15,10 14,11 12,12 11,13 9,15 8,17 7,18 6,20 6,22 5,24 5,26 5,27 " />
<polyline fill="none" vector-effect="non-scaling-stroke" points="64,563 64,561 64,559 64,557 63,555 62,553 61,551 60,550 58,548 57,547 55,546 53,545 52,544 50,543 48,543 46,543 44,543 42,543 40,543 38,544 36,545 34,546 33,547 31,548 30,550 29,551 27,553 27,555 26,556 25,558 25,560 25,562 25,564 25,566 26,568 26,570 27,572 28,574 29,575 31,577 32,578 34,579 36,580 37,581 39,582 41,582 43,582 45,582 47,582 49,582 51,581 53,581 55,580 56,579 58,577 59,576 61,574 62,573 63,571 63,569 64,567 64,565 64,563 " />
<polyline fill="none" vector-effect="non-scaling-stroke" points="1175,563 1175,561 1175,559 1174,557 1174,555 1173,553 1172,551 1170,550 1169,548 1168,547 1166,546 1164,545 1162,544 1160,543 1158,543 1156,543 1154,543 1152,543 1151,543 1149,544 1147,545 1145,546 1143,547 1142,548 1140,550 1139,551 1138,553 1137,555 1136,556 1136,558 1136,560 1136,562 1136,564 1136,566 1136,568 1137,570 1138,572 1139,574 1140,575 1141,577 1143,578 1144,579 1146,580 1148,581 1150,582 1152,582 1154,582 1156,582 1158,582 1160,582 1162,581 1164,581 1165,580 1167,579 1169,577 1170,576 1171,574 1172,573 1173,571 1174,569 1175,567 1175,565 1175,563 " />
<polyline fill="none" vector-effect="non-scaling-stroke" points="64,47 64,45 64,43 64,41 63,39 62,37 61,36 60,34 58,33 57,31 55,30 53,29 52,28 50,28 48,27 46,27 44,27 42,27 40,28 38,28 36,29 34,30 33,31 31,32 30,34 29,35 27,37 27,39 26,41 25,43 25,45 25,47 25,49 25,51 26,53 26,55 27,56 28,58 29,60 31,61 32,62 34,64 36,65 37,65 39,66 41,67 43,67 45,67 47,67 49,66 51,66 53,65 55,64 56,63 58,62 59,60 61,59 62,57 63,55 63,53 64,52 64,50 64,48 64,47 " />
<polyline fill="none" vector-effect="non-scaling-stroke" points="1175,47 1175,45 1175,43 1174,41 1174,39 1173,37 1172,36 1170,34 1169,33 1168,31 1166,30 1164,29 1162,28 1160,28 1158,27 1156,27 1154,27 1152,27 1151,28 1149,28 1147,29 1145,30 1143,31 1142,32 1140,34 1139,35 1138,37 1137,39 1136,41 1136,43 1136,45 1136,47 1136,49 1136,51 1136,53 1137,55 1138,56 1139,58 1140,60 1141,61 1143,62 1144,64 1146,65 1148,65 1150,66 1152,67 1154,67 1156,67 1158,67 1160,66 1162,66 1164,65 1165,64 1167,63 1169,62 1170,60 1171,59 1172,57 1173,55 1174,53 1175,52 1175,50 1175,48 1175,47 " />
<polyline fill="none" vector-effect="non-scaling-stroke" points="993,503 993,501 992,499 992,497 992,495 991,493 991,491 990,489 990,488 989,486 988,484 987,482 986,481 984,479 983,477 982,476 980,475 979,473 977,472 976,471 974,470 972,469 971,468 969,467 967,466 965,465 963,465 961,464 959,464 957,464 955,464 953,464 951,464 949,464 947,464 945,464 943,465 942,465 940,466 938,467 936,467 934,468 932,469 931,470 929,472 928,473 926,474 925,476 923,477 922,479 921,480 920,482 919,483 918,485 917,487 916,489 915,491 915,493 914,495 914,497 914,499 913,501 913,503 913,505 914,507 914,509 914,511 914,512 915,514 916,516 916,518 917,520 918,522 919,524 920,525 921,527 922,528 924,530 925,531 927,533 928,534 930,535 931,536 933,537 935,538 937,539 938,540 940,541 942,541 944,542 946,542 948,543 950,543 952,543 954,543 956,543 958,543 960,542 962,542 964,541 966,541 968,540 970,539 971,538 973,537 975,536 976,535 978,534 980,533 981,531 982,530 984,528 985,527 986,525 987,523 988,522 989,520 990,518 991,516 991,514 992,512 992,510 992,508 993,506 993,504 993,503 " />
<polyline fill="none" vector-effect="non-scaling-stroke" points="835,326 876,326 " />
<polyline fill="none" vector-effect="non-scaling-stroke" points="876,326 876,284 " />
<polyline fill="none" vector-effect="non-scaling-stroke" points="876,284 835,284 " />
<polyline fill="none" vector-effect="non-scaling-stroke" points="835,284 835,326 " />
<polyline fill="none" vector-effect="non-scaling-stroke" points="932,326 974,326 " />
<polyline fill="none" vector-effect="non-scaling-stroke" points="974,326 974,284 " />
<polyline fill="none" vector-effect="non-scaling-stroke" points="974,284 932,284 " />
<polyline fill="none" vector-effect="non-scaling-stroke" points="932,284 932,326 " />
<polyline fill="none" vector-effect="non-scaling-stroke" points="1030,326 1072,326 " />
<polyline fill="none" vector-effect="non-scaling-stroke" points="1072,326 1072,284 " />
<polyline fill="none" vector-effect="non-scaling-stroke" points="1072,284 1030,284 " />
<polyline fill="none" vector-effect="non-scaling-stroke" points="1030,284 1030,326 " />
</g>
</g>
</svg>
